<?xml version="1.0" encoding="UTF-8" standalone="no"?>
<!-- Created with Inkscape (http://www.inkscape.org/) -->

<svg
   xmlns:dc="http://purl.org/dc/elements/1.1/"
   xmlns:cc="http://creativecommons.org/ns#"
   xmlns:rdf="http://www.w3.org/1999/02/22-rdf-syntax-ns#"
   xmlns:svg="http://www.w3.org/2000/svg"
   xmlns="http://www.w3.org/2000/svg"
   xmlns:sodipodi="http://sodipodi.sourceforge.net/DTD/sodipodi-0.dtd"
   xmlns:inkscape="http://www.inkscape.org/namespaces/inkscape"
   width="10.16mm"
   height="128.5mm"
   viewBox="0 0 10.16 128.5"
   version="1.1"
   id="svg8"
   inkscape:version="0.92.3 (2405546, 2018-03-11)"
   sodipodi:docname="Blank.svg">
  <defs
     id="defs2" />
  <sodipodi:namedview
     id="base"
     pagecolor="#ffffff"
     bordercolor="#666666"
     borderopacity="1.0"
     inkscape:pageopacity="0.0"
     inkscape:pageshadow="2"
     inkscape:zoom="0.70000001"
     inkscape:cx="-291.13965"
     inkscape:cy="454.92788"
     inkscape:document-units="mm"
     inkscape:current-layer="layer1"
     showgrid="true"
     inkscape:window-width="1920"
     inkscape:window-height="1027"
     inkscape:window-x="-8"
     inkscape:window-y="22"
     inkscape:window-maximized="1"
     inkscape:pagecheckerboard="true"
     inkscape:snap-to-guides="true"
     showguides="true"
     inkscape:guide-bbox="true"
     inkscape:snap-page="true"
     inkscape:snap-bbox="true"
     inkscape:snap-bbox-edge-midpoints="false"
     inkscape:snap-bbox-midpoints="true"
     inkscape:snap-object-midpoints="true"
     inkscape:snap-others="false"
     inkscape:object-nodes="false"
     inkscape:snap-nodes="true"
     inkscape:measure-start="-6.07143,-240"
     inkscape:measure-end="-6.16071,-281.575"
     inkscape:bbox-paths="false"
     inkscape:showpageshadow="false"
     showborder="true">
    <inkscape:grid
       type="xygrid"
       id="grid5221"
       units="mm"
       originx="0"
       originy="0"
       spacingx="0.1"
       spacingy="0.1"
       enabled="true"
       visible="true" />
    <sodipodi:guide
       position="5.1000002,9.0000004"
       orientation="1,0"
       id="guide5243"
       inkscape:locked="false"
       inkscape:label=""
       inkscape:color="rgb(0,0,255)" />
    <sodipodi:guide
       position="0.50000002,9.0000004"
       orientation="1,0"
       id="guide5245"
       inkscape:locked="false"
       inkscape:label=""
       inkscape:color="rgb(0,0,255)" />
    <sodipodi:guide
       position="9.7000004,9.0000004"
       orientation="1,0"
       id="guide5247"
       inkscape:locked="false"
       inkscape:label=""
       inkscape:color="rgb(0,0,255)" />
    <sodipodi:guide
       position="15.000001,-5.0000002"
       orientation="0,1"
       id="guide1534"
       inkscape:locked="false"
       inkscape:label=""
       inkscape:color="rgb(0,0,255)" />
    <sodipodi:guide
       position="15.000001,-74.500003"
       orientation="0,1"
       id="guide1536"
       inkscape:locked="false"
       inkscape:label=""
       inkscape:color="rgb(0,0,255)" />
    <sodipodi:guide
       position="15.000001,-118.5"
       orientation="0,1"
       id="guide1538"
       inkscape:locked="false"
       inkscape:label=""
       inkscape:color="rgb(0,0,255)" />
    <sodipodi:guide
       position="15.000001,-107.5"
       orientation="0,1"
       id="guide1540"
       inkscape:locked="false"
       inkscape:label=""
       inkscape:color="rgb(0,0,255)" />
    <sodipodi:guide
       position="15.000001,-96.500004"
       orientation="0,1"
       id="guide1542"
       inkscape:locked="false"
       inkscape:label=""
       inkscape:color="rgb(0,0,255)" />
    <sodipodi:guide
       position="15.000001,-85.500003"
       orientation="0,1"
       id="guide1544"
       inkscape:locked="false"
       inkscape:label=""
       inkscape:color="rgb(0,0,255)" />
    <sodipodi:guide
       position="15.000001,-63.500003"
       orientation="0,1"
       id="guide1546"
       inkscape:locked="false"
       inkscape:label=""
       inkscape:color="rgb(0,0,255)" />
    <sodipodi:guide
       position="15.000001,-52.500002"
       orientation="0,1"
       id="guide1548"
       inkscape:locked="false"
       inkscape:label=""
       inkscape:color="rgb(0,0,255)" />
    <sodipodi:guide
       position="15.000001,-41.500002"
       orientation="0,1"
       id="guide1550"
       inkscape:locked="false"
       inkscape:label=""
       inkscape:color="rgb(0,0,255)" />
    <sodipodi:guide
       position="15.000001,-79.000003"
       orientation="0,1"
       id="guide1552"
       inkscape:locked="false"
       inkscape:label=""
       inkscape:color="rgb(0,255,0)" />
    <sodipodi:guide
       position="15.000001,-101"
       orientation="0,1"
       id="guide1556"
       inkscape:locked="false"
       inkscape:label=""
       inkscape:color="rgb(0,255,0)" />
    <sodipodi:guide
       position="15.000001,-112"
       orientation="0,1"
       id="guide1558"
       inkscape:locked="false"
       inkscape:label=""
       inkscape:color="rgb(0,255,0)" />
    <sodipodi:guide
       position="15.000001,-68.000003"
       orientation="0,1"
       id="guide1560"
       inkscape:locked="false"
       inkscape:label=""
       inkscape:color="rgb(0,255,0)" />
    <sodipodi:guide
       position="15.000001,-57.000002"
       orientation="0,1"
       id="guide1562"
       inkscape:locked="false"
       inkscape:label=""
       inkscape:color="rgb(0,255,0)" />
    <sodipodi:guide
       position="15.000001,-46.000002"
       orientation="0,1"
       id="guide1564"
       inkscape:locked="false"
       inkscape:label=""
       inkscape:color="rgb(0,255,0)" />
    <sodipodi:guide
       position="7.5000003,122.5"
       orientation="0,1"
       id="guide1557"
       inkscape:locked="false"
       inkscape:label=""
       inkscape:color="rgb(0,0,255)" />
  </sodipodi:namedview>
  <metadata
     id="metadata5">
    <rdf:RDF>
      <cc:Work
         rdf:about="">
        <dc:format>image/svg+xml</dc:format>
        <dc:type
           rdf:resource="http://purl.org/dc/dcmitype/StillImage" />
        <dc:title />
      </cc:Work>
    </rdf:RDF>
  </metadata>
  <g
     inkscape:label="Layer 1"
     inkscape:groupmode="layer"
     id="layer1"
     transform="translate(0,-168.5)"
     style="display:inline">
    <g
       aria-label="mockba modular"
       transform="matrix(0,1.207108,-1.207108,0,-1.0922047,-36.348504)"
       style="font-style:normal;font-weight:normal;font-size:2.82222223px;line-height:1.25;font-family:sans-serif;letter-spacing:0px;word-spacing:0px;display:inline;fill:#000000;fill-opacity:1;stroke:none;stroke-width:0.26458332"
       id="text925">
      <path
         d="m 181.19721,-1.9397581 h -1.80385 v -2.594846 q 0,-0.2990343 -0.0627,-0.4147895 -0.0627,-0.1157552 -0.22669,-0.1157552 -0.30386,0 -0.30386,0.5353679 v 2.5900228 h -1.80385 v -2.594846 q 0,-0.2990343 -0.0675,-0.4147895 -0.0627,-0.1157552 -0.22669,-0.1157552 -0.29904,0 -0.29904,0.5353679 v 2.5900228 h -1.80385 v -2.9614041 q 0,-0.8102865 0.54502,-1.3745932 0.54501,-0.5691298 1.32153,-0.5691298 0.80065,0 1.4373,0.6752388 0.709,-0.6752388 1.418,-0.6752388 0.90193,0 1.44694,0.6559462 0.42926,0.5112522 0.42926,1.4903484 z"
         style="font-style:normal;font-variant:normal;font-weight:normal;font-stretch:normal;font-size:9.87777805px;font-family:'Bauhaus 93';-inkscape-font-specification:'Bauhaus 93, ';fill:#0055d4;stroke-width:0.26458332"
         id="path837"
         inkscape:connector-curvature="0" />
      <path
         d="m 184.53964,-6.8497083 q 1.02251,0 1.7508,0.7379395 0.73311,0.7331163 0.73311,1.7604438 0,1.0417969 -0.74276,1.7749133 -0.73794,0.7331163 -1.78456,0.7331163 -1.04662,0 -1.78938,-0.7331163 -0.74276,-0.7379395 -0.74276,-1.7749133 0,-1.0562663 0.74276,-1.7749132 0.74276,-0.7234701 1.83279,-0.7234701 z m -0.0482,1.7797364 q -0.28939,0 -0.49196,0.2122179 -0.20257,0.2073947 -0.20257,0.5112522 0,0.2990343 0.20257,0.5112521 0.20739,0.2122179 0.49196,0.2122179 0.28939,0 0.49196,-0.2122179 0.20739,-0.2122178 0.20739,-0.5112521 0,-0.3038575 -0.20257,-0.5112522 -0.20257,-0.2122179 -0.49678,-0.2122179 z"
         style="font-style:normal;font-variant:normal;font-weight:normal;font-stretch:normal;font-size:9.87777805px;font-family:'Bauhaus 93';-inkscape-font-specification:'Bauhaus 93, ';fill:#0055d4;stroke-width:0.26458332"
         id="path839"
         inkscape:connector-curvature="0" />
      <path
         d="m 190.72772,-4.1535765 1.78938,-0.067524 q -0.0772,1.0417969 -0.77652,1.7122125 -0.69935,0.6704156 -1.70257,0.6704156 -1.06109,0 -1.7942,-0.7379394 -0.7283,-0.7379395 -0.7283,-1.8086752 0,-1.0176812 0.73794,-1.7411513 0.73794,-0.7234701 1.77009,-0.7234701 0.90193,0 1.59164,0.5691298 0.68971,0.5691298 0.85852,1.4517633 l -1.82797,0.067524 q -0.23634,-0.3086806 -0.59807,-0.3086806 -0.30868,0 -0.50643,0.2025716 -0.19775,0.2025716 -0.19775,0.5112522 0,0.3135037 0.2074,0.5257216 0.21221,0.2122179 0.52572,0.2122179 0.4582,0 0.65112,-0.5353679 z"
         style="font-style:normal;font-variant:normal;font-weight:normal;font-stretch:normal;font-size:9.87777805px;font-family:'Bauhaus 93';-inkscape-font-specification:'Bauhaus 93, ';fill:#0055d4;stroke-width:0.26458332"
         id="path841"
         inkscape:connector-curvature="0" />
      <path
         d="m 195.11677,-8.5233357 v 6.5835776 h -1.80385 v -6.5835776 z m 2.76366,1.7749132 -0.88264,1.7507976 1.3119,3.0578668 h -1.99678 l -1.12861,-3.1398601 0.81993,-1.6688043 z"
         style="font-style:normal;font-variant:normal;font-weight:normal;font-stretch:normal;font-size:9.87777805px;font-family:'Bauhaus 93';-inkscape-font-specification:'Bauhaus 93, ';fill:#0055d4;stroke-width:0.26458332"
         id="path843"
         inkscape:connector-curvature="0" />
      <path
         d="m 200.3354,-8.5233357 v 3.9405003 q 0,0.9598036 0.68971,0.9598036 0.29421,0 0.49678,-0.1977485 0.2074,-0.2025716 0.2074,-0.4871365 0,-0.2942111 -0.19293,-0.4919596 -0.19292,-0.2025716 -0.47266,-0.2025716 -0.19775,0 -0.45338,0.1736328 v -1.9871311 q 0.31833,-0.028939 0.48232,-0.028939 1.01768,0 1.74115,0.7331164 0.72829,0.7331163 0.72829,1.765267 0,1.0562663 -0.73794,1.7797363 -0.73794,0.7234701 -1.8135,0.7234701 -0.54019,0 -1.05626,-0.2363335 -0.51126,-0.2363336 -0.84405,-0.6366537 -0.57878,-0.6945313 -0.57878,-1.7990289 v -4.0080242 z"
         style="font-style:normal;font-variant:normal;font-weight:normal;font-stretch:normal;font-size:9.87777805px;font-family:'Bauhaus 93';-inkscape-font-specification:'Bauhaus 93, ';fill:#0055d4;stroke-width:0.26458332"
         id="path845"
         inkscape:connector-curvature="0" />
      <path
         d="m 207.02027,-3.7436101 v 1.8665528 q -0.22187,0.038585 -0.40515,0.038585 -1.0852,0 -1.80867,-0.7138238 -0.72347,-0.7138238 -0.72347,-1.7893826 0,-1.04662 0.72829,-1.7749132 0.73312,-0.7282933 1.77974,-0.7282933 1.1672,0 1.83761,0.684885 0.67524,0.6800619 0.67524,1.8617297 v 2.3585124 h -1.80385 v -2.2282878 q 0,-0.3810276 -0.1881,-0.6077148 -0.18328,-0.2266873 -0.49679,-0.2266873 -0.28456,0 -0.49196,0.2073947 -0.20739,0.2073948 -0.20739,0.4919597 0,0.2990343 0.1881,0.4919596 0.1881,0.1929254 0.47749,0.1929254 0.23633,0 0.43891,-0.1254015 z"
         style="font-style:normal;font-variant:normal;font-weight:normal;font-stretch:normal;font-size:9.87777805px;font-family:'Bauhaus 93';-inkscape-font-specification:'Bauhaus 93, ';fill:#0055d4;stroke-width:0.26458332"
         id="path847"
         inkscape:connector-curvature="0" />
      <path
         d="m 219.22279,-1.9397581 h -1.80385 v -2.594846 q 0,-0.2990343 -0.0627,-0.4147895 -0.0627,-0.1157552 -0.22669,-0.1157552 -0.30385,0 -0.30385,0.5353679 v 2.5900228 h -1.80386 v -2.594846 q 0,-0.2990343 -0.0675,-0.4147895 -0.0627,-0.1157552 -0.22669,-0.1157552 -0.29903,0 -0.29903,0.5353679 v 2.5900228 h -1.80385 v -2.9614041 q 0,-0.8102865 0.54501,-1.3745932 0.54502,-0.5691298 1.32154,-0.5691298 0.80064,0 1.43729,0.6752388 0.709,-0.6752388 1.41801,-0.6752388 0.90192,0 1.44694,0.6559462 0.42925,0.5112522 0.42925,1.4903484 z"
         style="font-style:normal;font-variant:normal;font-weight:normal;font-stretch:normal;font-size:9.87777805px;font-family:'Bauhaus 93';-inkscape-font-specification:'Bauhaus 93, ';fill:#0055d4;stroke-width:0.26458332"
         id="path849"
         inkscape:connector-curvature="0" />
      <path
         d="m 222.56523,-6.8497083 q 1.0225,0 1.75079,0.7379395 0.73312,0.7331163 0.73312,1.7604438 0,1.0417969 -0.74276,1.7749133 -0.73794,0.7331163 -1.78456,0.7331163 -1.04662,0 -1.78938,-0.7331163 -0.74277,-0.7379395 -0.74277,-1.7749133 0,-1.0562663 0.74277,-1.7749132 0.74276,-0.7234701 1.83279,-0.7234701 z m -0.0482,1.7797364 q -0.28939,0 -0.49196,0.2122179 -0.20258,0.2073947 -0.20258,0.5112522 0,0.2990343 0.20258,0.5112521 0.20739,0.2122179 0.49196,0.2122179 0.28938,0 0.49196,-0.2122179 0.20739,-0.2122178 0.20739,-0.5112521 0,-0.3038575 -0.20257,-0.5112522 -0.20257,-0.2122179 -0.49678,-0.2122179 z"
         style="font-style:normal;font-variant:normal;font-weight:normal;font-stretch:normal;font-size:9.87777805px;font-family:'Bauhaus 93';-inkscape-font-specification:'Bauhaus 93, ';fill:#0055d4;stroke-width:0.26458332"
         id="path851"
         inkscape:connector-curvature="0" />
      <path
         d="m 228.76296,-8.5233357 h 1.80385 v 4.0080242 q 0,1.1044976 -0.57878,1.7990289 -0.3328,0.4003201 -0.84887,0.6366537 -0.51125,0.2363335 -1.05144,0.2363335 -1.07556,0 -1.8135,-0.7234701 -0.73794,-0.72347 -0.73794,-1.7749132 0,-1.0176812 0.73311,-1.7604438 0.73312,-0.7427627 1.73633,-0.7427627 0.15917,0 0.48232,0.028939 v 1.9871311 q -0.22187,-0.1736328 -0.44373,-0.1736328 -0.27974,0 -0.48232,0.2073947 -0.19774,0.2025716 -0.19774,0.4919597 0,0.2797417 0.20739,0.4823133 0.2074,0.1977485 0.49678,0.1977485 0.69454,0 0.69454,-0.9598036 z"
         style="font-style:normal;font-variant:normal;font-weight:normal;font-stretch:normal;font-size:9.87777805px;font-family:'Bauhaus 93';-inkscape-font-specification:'Bauhaus 93, ';fill:#0055d4;stroke-width:0.26458332"
         id="path853"
         inkscape:connector-curvature="0" />
      <path
         d="m 231.51214,-6.6808986 h 1.80385 v 2.7154243 q 0,0.4099664 0.34245,0.4099664 0.33762,0 0.33762,-0.4099664 v -2.7154243 h 1.80385 v 2.6816624 q 0,0.935688 -0.62219,1.5819879 -0.62218,0.6414768 -1.52411,0.6414768 -1.02732,0 -1.65433,-0.7475858 -0.48714,-0.5835991 -0.48714,-1.6205729 z"
         style="font-style:normal;font-variant:normal;font-weight:normal;font-stretch:normal;font-size:9.87777805px;font-family:'Bauhaus 93';-inkscape-font-specification:'Bauhaus 93, ';fill:#0055d4;stroke-width:0.26458332"
         id="path855"
         inkscape:connector-curvature="0" />
      <path
         d="m 238.66003,-8.5233357 v 6.5835776 h -1.80386 v -6.5835776 z"
         style="font-style:normal;font-variant:normal;font-weight:normal;font-stretch:normal;font-size:9.87777805px;font-family:'Bauhaus 93';-inkscape-font-specification:'Bauhaus 93, ';fill:#0055d4;stroke-width:0.26458332"
         id="path857"
         inkscape:connector-curvature="0" />
      <path
         d="m 242.38348,-3.7436101 v 1.8665528 q -0.22186,0.038585 -0.40514,0.038585 -1.08521,0 -1.80868,-0.7138238 -0.72347,-0.7138238 -0.72347,-1.7893826 0,-1.04662 0.7283,-1.7749132 0.73311,-0.7282933 1.77973,-0.7282933 1.1672,0 1.83762,0.684885 0.67524,0.6800619 0.67524,1.8617297 v 2.3585124 h -1.80386 v -2.2282878 q 0,-0.3810276 -0.1881,-0.6077148 -0.18328,-0.2266873 -0.49678,-0.2266873 -0.28457,0 -0.49196,0.2073947 -0.20739,0.2073948 -0.20739,0.4919597 0,0.2990343 0.1881,0.4919596 0.1881,0.1929254 0.47749,0.1929254 0.23633,0 0.4389,-0.1254015 z"
         style="font-style:normal;font-variant:normal;font-weight:normal;font-stretch:normal;font-size:9.87777805px;font-family:'Bauhaus 93';-inkscape-font-specification:'Bauhaus 93, ';fill:#0055d4;stroke-width:0.26458332"
         id="path859"
         inkscape:connector-curvature="0" />
      <path
         d="m 248.15677,-6.7966538 v 1.9292535 q -0.1881,-0.1061089 -0.34244,-0.1061089 -0.49196,0 -0.49196,0.7524088 v 2.2813423 h -1.80385 V -4.568366 q 0,-1.0417969 0.56913,-1.659158 0.56913,-0.6221843 1.51929,-0.6221843 0.21221,0 0.54983,0.053055 z"
         style="font-style:normal;font-variant:normal;font-weight:normal;font-stretch:normal;font-size:9.87777805px;font-family:'Bauhaus 93';-inkscape-font-specification:'Bauhaus 93, ';fill:#0055d4;stroke-width:0.26458332"
         id="path861"
         inkscape:connector-curvature="0" />
    </g>
  </g>
  <g
     inkscape:groupmode="layer"
     id="layer2"
     inkscape:label="components"
     style="display:inline">
    <g
       transform="translate(8.9123756e-8,-173.7917)"
       style="display:inline"
       id="g1583">
      <rect
         y="293.75"
         x="2.5999999"
         height="2.5"
         width="5"
         id="rect1572"
         style="opacity:1;fill:#ffffff;fill-opacity:1;stroke:#8c8c8c;stroke-width:0.02;stroke-linecap:butt;stroke-linejoin:round;stroke-miterlimit:4;stroke-dasharray:none;stroke-opacity:1;paint-order:markers fill stroke" />
      <g
         id="text1570"
         style="font-style:normal;font-variant:normal;font-weight:normal;font-stretch:normal;font-size:2.82222223px;line-height:1.25;font-family:'Bauhaus 93';-inkscape-font-specification:'Bauhaus 93, ';letter-spacing:0px;word-spacing:0px;fill:#000000;fill-opacity:1;stroke:none;stroke-width:0.26458332"
         aria-label="mm">
        <path
           inkscape:connector-curvature="0"
           id="path1574"
           style="stroke-width:0.26458332"
           d="M 4.9484157,295.70074 H 4.4330294 v -0.74138 q 0,-0.0854 -0.017914,-0.11851 -0.017914,-0.0331 -0.064768,-0.0331 -0.086816,0 -0.086816,0.15296 v 0.74 h -0.515387 v -0.74138 q 0,-0.0854 -0.019293,-0.11851 -0.017914,-0.0331 -0.064768,-0.0331 -0.085438,0 -0.085438,0.15296 v 0.74 h -0.515386 v -0.84611 q 0,-0.23151 0.1557184,-0.39274 0.1557183,-0.16261 0.3775824,-0.16261 0.2287544,0 0.4106554,0.19293 0.2025716,-0.19293 0.4051432,-0.19293 0.2576932,0 0.4134115,0.18741 0.1226454,0.14608 0.1226454,0.42582 z" />
        <path
           inkscape:connector-curvature="0"
           id="path1576"
           style="stroke-width:0.26458332"
           d="M 7.1367404,295.70074 H 6.6213541 v -0.74138 q 0,-0.0854 -0.017914,-0.11851 -0.017914,-0.0331 -0.064768,-0.0331 -0.086816,0 -0.086816,0.15296 v 0.74 h -0.515387 v -0.74138 q 0,-0.0854 -0.019292,-0.11851 -0.017915,-0.0331 -0.064768,-0.0331 -0.085438,0 -0.085438,0.15296 v 0.74 h -0.515387 v -0.84611 q 0,-0.23151 0.1557183,-0.39274 0.1557184,-0.16261 0.3775825,-0.16261 0.2287544,0 0.4106554,0.19293 0.2025716,-0.19293 0.4051432,-0.19293 0.2576932,0 0.4134115,0.18741 0.1226454,0.14608 0.1226454,0.42582 z" />
      </g>
    </g>
    <g
       transform="matrix(0.99921929,0.03927901,-0.03927938,0.99922866,-20.964313,-68.54917)"
       id="g2142" />
  </g>
</svg>
