<?xml version="1.0" encoding="UTF-8" standalone="no"?>
<!-- Created with Inkscape (http://www.inkscape.org/) -->

<svg
   xmlns:dc="http://purl.org/dc/elements/1.1/"
   xmlns:cc="http://creativecommons.org/ns#"
   xmlns:rdf="http://www.w3.org/1999/02/22-rdf-syntax-ns#"
   xmlns:svg="http://www.w3.org/2000/svg"
   xmlns="http://www.w3.org/2000/svg"
   xmlns:sodipodi="http://sodipodi.sourceforge.net/DTD/sodipodi-0.dtd"
   xmlns:inkscape="http://www.inkscape.org/namespaces/inkscape"
   width="10.16mm"
   height="128.5mm"
   viewBox="0 0 10.16 128.5"
   version="1.1"
   id="svg8"
   inkscape:version="0.92.3 (2405546, 2018-03-11)"
   sodipodi:docname="Filtah.svg">
  <defs
     id="defs2" />
  <sodipodi:namedview
     id="base"
     pagecolor="#ffffff"
     bordercolor="#666666"
     borderopacity="1.0"
     inkscape:pageopacity="0.0"
     inkscape:pageshadow="2"
     inkscape:zoom="11.2"
     inkscape:cx="6.0954544"
     inkscape:cy="306.53807"
     inkscape:document-units="mm"
     inkscape:current-layer="layer1"
     showgrid="true"
     inkscape:window-width="1920"
     inkscape:window-height="1027"
     inkscape:window-x="-8"
     inkscape:window-y="22"
     inkscape:window-maximized="1"
     inkscape:pagecheckerboard="false"
     inkscape:snap-to-guides="true"
     showguides="true"
     inkscape:guide-bbox="true"
     inkscape:snap-page="true"
     inkscape:snap-bbox="true"
     inkscape:snap-bbox-edge-midpoints="false"
     inkscape:snap-bbox-midpoints="true"
     inkscape:snap-object-midpoints="true"
     inkscape:snap-others="false"
     inkscape:object-nodes="false"
     inkscape:snap-nodes="true"
     inkscape:measure-start="-12.2321,122.857"
     inkscape:measure-end="-11.6964,83.125"
     inkscape:bbox-paths="false">
    <inkscape:grid
       type="xygrid"
       id="grid5221"
       units="mm"
       originx="0"
       originy="0"
       spacingx="0.1"
       spacingy="0.1"
       enabled="true"
       visible="true" />
    <sodipodi:guide
       position="5.1000002,27.000001"
       orientation="1,0"
       id="guide5243"
       inkscape:locked="false" />
    <sodipodi:guide
       position="0.50000004,53.750004"
       orientation="1,0"
       id="guide5245"
       inkscape:locked="false" />
    <sodipodi:guide
       position="9.7000004,27.100001"
       orientation="1,0"
       id="guide5247"
       inkscape:locked="false" />
    <sodipodi:guide
       position="7.5000003,122.5"
       orientation="0,1"
       id="guide5258"
       inkscape:locked="false" />
    <sodipodi:guide
       position="15.000001,87.000004"
       orientation="0,1"
       id="guide921"
       inkscape:locked="false" />
    <sodipodi:guide
       position="14.000001,32.000001"
       orientation="0,1"
       id="guide927"
       inkscape:locked="false" />
    <sodipodi:guide
       position="12.500001,43.000002"
       orientation="0,1"
       id="guide931"
       inkscape:locked="false" />
    <sodipodi:guide
       position="10.500001,21"
       orientation="0,1"
       id="guide1035"
       inkscape:locked="false" />
    <sodipodi:guide
       position="10.500001,10"
       orientation="0,1"
       id="guide1037"
       inkscape:locked="false" />
    <sodipodi:guide
       position="14.500001,54.000001"
       orientation="0,1"
       id="guide1105"
       inkscape:locked="false" />
    <sodipodi:guide
       position="14.500001,65.000001"
       orientation="0,1"
       id="guide1107"
       inkscape:locked="false" />
    <sodipodi:guide
       position="14.000001,76.000002"
       orientation="0,1"
       id="guide1109"
       inkscape:locked="false" />
  </sodipodi:namedview>
  <metadata
     id="metadata5">
    <rdf:RDF>
      <cc:Work
         rdf:about="">
        <dc:format>image/svg+xml</dc:format>
        <dc:type
           rdf:resource="http://purl.org/dc/dcmitype/StillImage" />
        <dc:title />
      </cc:Work>
    </rdf:RDF>
  </metadata>
  <g
     inkscape:label="Layer 1"
     inkscape:groupmode="layer"
     id="layer1"
     transform="translate(0,-168.5)"
     style="display:inline">
    <g
       style="display:inline"
       id="g1583"
       transform="translate(0,-5.2916669)">
      <rect
         y="293.75"
         x="2.5999999"
         height="2.5"
         width="5"
         id="rect1572"
         style="opacity:1;fill:#ffffff;fill-opacity:1;stroke:#8c8c8c;stroke-width:0.02;stroke-linecap:butt;stroke-linejoin:round;stroke-miterlimit:4;stroke-dasharray:none;stroke-opacity:1;paint-order:markers fill stroke" />
      <g
         id="text1570"
         style="font-style:normal;font-variant:normal;font-weight:normal;font-stretch:normal;font-size:2.82222223px;line-height:1.25;font-family:'Bauhaus 93';-inkscape-font-specification:'Bauhaus 93, ';letter-spacing:0px;word-spacing:0px;fill:#000000;fill-opacity:1;stroke:none;stroke-width:0.26458332"
         aria-label="mm">
        <path
           inkscape:connector-curvature="0"
           id="path1574"
           style="stroke-width:0.26458332"
           d="M 4.9484157,295.70074 H 4.4330294 v -0.74138 q 0,-0.0854 -0.017914,-0.11851 -0.017914,-0.0331 -0.064768,-0.0331 -0.086816,0 -0.086816,0.15296 v 0.74 h -0.515387 v -0.74138 q 0,-0.0854 -0.019293,-0.11851 -0.017914,-0.0331 -0.064768,-0.0331 -0.085438,0 -0.085438,0.15296 v 0.74 h -0.515386 v -0.84611 q 0,-0.23151 0.1557184,-0.39274 0.1557183,-0.16261 0.3775824,-0.16261 0.2287544,0 0.4106554,0.19293 0.2025716,-0.19293 0.4051432,-0.19293 0.2576932,0 0.4134115,0.18741 0.1226454,0.14608 0.1226454,0.42582 z" />
        <path
           inkscape:connector-curvature="0"
           id="path1576"
           style="stroke-width:0.26458332"
           d="M 7.1367404,295.70074 H 6.6213541 v -0.74138 q 0,-0.0854 -0.017914,-0.11851 -0.017914,-0.0331 -0.064768,-0.0331 -0.086816,0 -0.086816,0.15296 v 0.74 h -0.515387 v -0.74138 q 0,-0.0854 -0.019292,-0.11851 -0.017915,-0.0331 -0.064768,-0.0331 -0.085438,0 -0.085438,0.15296 v 0.74 h -0.515387 v -0.84611 q 0,-0.23151 0.1557183,-0.39274 0.1557184,-0.16261 0.3775825,-0.16261 0.2287544,0 0.4106554,0.19293 0.2025716,-0.19293 0.4051432,-0.19293 0.2576932,0 0.4134115,0.18741 0.1226454,0.14608 0.1226454,0.42582 z" />
      </g>
    </g>
    <path
       inkscape:connector-curvature="0"
       style="fill:#ffffff;fill-opacity:1;stroke-width:0.2916196"
       d="M 1.8529411,221 H 8.3470588 C 9.0965881,221 9.7,221.70085 9.7,222.57143 v 7.85714 C 9.7,231.29915 9.0965881,232 8.3470588,232 H 1.8529411 c -0.7495293,0 -1.35294111,-0.70085 -1.35294111,-1.57143 v -7.85714 C 0.49999999,221.70085 1.1034118,221 1.8529411,221 Z"
       id="rect182-7-4-1" />
    <path
       inkscape:connector-curvature="0"
       style="display:inline;fill:#ffffff;fill-opacity:1;stroke-width:0.2916196"
       d="m 1.852941,243 h 6.4941178 c 0.7495294,0 1.3529413,0.70085 1.3529413,1.57143 v 7.85714 C 9.7000001,253.29915 9.0965882,254 8.3470588,254 H 1.852941 c -0.7495292,0 -1.35294109,-0.70085 -1.35294109,-1.57143 v -7.85714 C 0.49999991,243.70085 1.1034118,243 1.852941,243 Z"
       id="rect182-7-4-1-8" />
    <g
       transform="translate(-1.1243676e-8,1.2e-6)"
       style="display:inline;fill:#ff0000"
       id="g1162-4-5">
      <path
         id="rect182-2-45"
         d="M 1.8529411,276 H 8.3470588 C 9.0965881,276 9.7,276.70085 9.7,277.57143 v 7.85714 C 9.7,286.29915 9.0965881,287 8.3470588,287 H 1.8529411 c -0.7495293,0 -1.35294108,-0.70085 -1.35294108,-1.57143 v -7.85714 C 0.50000002,276.70085 1.1034118,276 1.8529411,276 Z"
         style="fill:#8a6f91;fill-opacity:1;stroke-width:0.2916196"
         inkscape:connector-curvature="0" />
      <g
         aria-label="output"
         style="font-style:normal;font-weight:normal;font-size:2.82222223px;line-height:1.25;font-family:sans-serif;letter-spacing:0px;word-spacing:0px;fill:#ffffff;fill-opacity:1;stroke:none;stroke-width:0.26458332"
         id="text1045-1-2">
        <path
           d="m 2.6562216,285.42702 q 0.2191081,0 0.3751709,0.15813 0.1570964,0.1571 0.1570964,0.37724 0,0.22324 -0.1591634,0.38034 -0.1581299,0.1571 -0.3824056,0.1571 -0.2242757,0 -0.3834391,-0.1571 -0.1591634,-0.15813 -0.1591634,-0.38034 0,-0.22634 0.1591634,-0.38034 0.1591634,-0.15503 0.3927408,-0.15503 z m -0.010335,0.38138 q -0.062012,0 -0.10542,0.0455 -0.043408,0.0444 -0.043408,0.10956 0,0.0641 0.043408,0.10955 0.044442,0.0455 0.10542,0.0455 0.062012,0 0.1054199,-0.0455 0.044442,-0.0455 0.044442,-0.10955 0,-0.0651 -0.043408,-0.10956 -0.043408,-0.0455 -0.1064539,-0.0455 z"
           style="font-style:normal;font-variant:normal;font-weight:normal;font-stretch:normal;font-size:2.11666656px;font-family:'Bauhaus 93';-inkscape-font-specification:'Bauhaus 93, ';fill:#ffffff;stroke-width:0.26458332"
           id="path1654-6-40"
           inkscape:connector-curvature="0" />
        <path
           d="M 3.3497193,285.4632 H 3.736259 v 0.58187 q 0,0.0879 0.073381,0.0879 0.072347,0 0.072347,-0.0879 v -0.58187 h 0.3865397 v 0.57464 q 0,0.2005 -0.1333252,0.339 -0.1333252,0.13746 -0.3265951,0.13746 -0.2201416,0 -0.3545003,-0.1602 -0.1043864,-0.12506 -0.1043864,-0.34727 z"
           style="font-style:normal;font-variant:normal;font-weight:normal;font-stretch:normal;font-size:2.11666656px;font-family:'Bauhaus 93';-inkscape-font-specification:'Bauhaus 93, ';fill:#ffffff;stroke-width:0.26458332"
           id="path1656-4-8"
           inkscape:connector-curvature="0" />
        <path
           d="m 4.8390342,285.06839 v 0.39481 H 5.012667 v 0.40824 H 4.8390342 q 0,0.12299 0.03824,0.1695 0.039274,0.0465 0.142627,0.0465 v 0.40618 q -0.029972,10e-4 -0.044442,10e-4 -0.1312582,0 -0.2480469,-0.061 -0.1157552,-0.061 -0.1860352,-0.16536 -0.088883,-0.13333 -0.088883,-0.35347 v -0.84646 z"
           style="font-style:normal;font-variant:normal;font-weight:normal;font-stretch:normal;font-size:2.11666656px;font-family:'Bauhaus 93';-inkscape-font-specification:'Bauhaus 93, ';fill:#ffffff;stroke-width:0.26458332"
           id="path1658-4-5"
           inkscape:connector-curvature="0" />
        <path
           d="M 5.5656047,286.86053 H 5.179065 v -0.8599 q 0,-0.23668 0.1240235,-0.3855 0.071313,-0.0858 0.1808675,-0.13643 0.1105875,-0.0506 0.2263427,-0.0506 0.2304769,0 0.3886068,0.15503 0.1581299,0.15503 0.1581299,0.38034 0,0.2191 -0.1570964,0.37827 -0.1570963,0.15916 -0.3720703,0.15916 -0.03514,0 -0.1033528,-0.007 v -0.42582 q 0.047542,0.0382 0.095085,0.0382 0.059945,0 0.1023193,-0.0444 0.043408,-0.0444 0.043408,-0.10542 0,-0.061 -0.044442,-0.10335 -0.044442,-0.0434 -0.1064535,-0.0434 -0.1488281,0 -0.1488281,0.20567 z"
           style="font-style:normal;font-variant:normal;font-weight:normal;font-stretch:normal;font-size:2.11666656px;font-family:'Bauhaus 93';-inkscape-font-specification:'Bauhaus 93, ';fill:#ffffff;stroke-width:0.26458332"
           id="path1660-1-6"
           inkscape:connector-curvature="0" />
        <path
           d="M 6.4255003,285.4632 H 6.81204 v 0.58187 q 0,0.0879 0.073381,0.0879 0.072347,0 0.072347,-0.0879 v -0.58187 h 0.3865397 v 0.57464 q 0,0.2005 -0.1333251,0.339 -0.1333252,0.13746 -0.3265951,0.13746 -0.2201416,0 -0.3545003,-0.1602 -0.1043864,-0.12506 -0.1043864,-0.34727 z"
           style="font-style:normal;font-variant:normal;font-weight:normal;font-stretch:normal;font-size:2.11666656px;font-family:'Bauhaus 93';-inkscape-font-specification:'Bauhaus 93, ';fill:#ffffff;stroke-width:0.26458332"
           id="path1662-4-37"
           inkscape:connector-curvature="0" />
        <path
           d="m 7.9148151,285.06839 v 0.39481 h 0.1736328 v 0.40824 H 7.9148151 q 0,0.12299 0.03824,0.1695 0.039274,0.0465 0.142627,0.0465 v 0.40618 q -0.029972,10e-4 -0.044442,10e-4 -0.1312581,0 -0.2480468,-0.061 -0.1157552,-0.061 -0.1860352,-0.16536 -0.088883,-0.13333 -0.088883,-0.35347 v -0.84646 z"
           style="font-style:normal;font-variant:normal;font-weight:normal;font-stretch:normal;font-size:2.11666656px;font-family:'Bauhaus 93';-inkscape-font-specification:'Bauhaus 93, ';fill:#ffffff;stroke-width:0.26458332"
           id="path1664-4-0"
           inkscape:connector-curvature="0" />
      </g>
    </g>
    <path
       inkscape:connector-curvature="0"
       style="display:inline;fill:#ffffff;fill-opacity:1;stroke-width:0.2916196"
       d="M 1.852941,265 H 8.347059 C 9.096588,265 9.7,265.70085 9.7,266.57143 v 7.85714 C 9.7,275.29915 9.096588,276 8.347059,276 H 1.852941 c -0.749529,0 -1.35294101,-0.70085 -1.35294101,-1.57143 v -7.85714 C 0.49999999,265.70085 1.103412,265 1.852941,265 Z"
       id="rect182-7-4-1-1" />
    <g
       id="text1045-7-7-7-7"
       style="font-style:normal;font-weight:normal;font-size:2.82222223px;line-height:1.25;font-family:sans-serif;letter-spacing:0px;word-spacing:0px;display:inline;fill:#8a6f91;fill-opacity:1;stroke:none;stroke-width:0.26458332"
       aria-label="input a"
       transform="translate(0.86862599,206.43318)">
      <path
         inkscape:connector-curvature="0"
         id="path1628-6-01"
         style="font-style:normal;font-variant:normal;font-weight:normal;font-stretch:normal;font-size:2.11666656px;font-family:'Bauhaus 93';-inkscape-font-specification:'Bauhaus 93, ';fill:#8a6f91;fill-opacity:1;stroke-width:0.26458332"
         d="m 2.2939697,68.024061 v 1.030428 H 1.90743 v -1.030428 z m -0.1922363,-0.45992 q 0.078548,0 0.1353922,0.05581 0.057878,0.05478 0.057878,0.130225 0,0.08062 -0.054777,0.132292 -0.053743,0.05168 -0.1384928,0.05168 -0.084749,0 -0.1395264,-0.05168 -0.053743,-0.05168 -0.053743,-0.132292 0,-0.07545 0.056844,-0.130225 0.057878,-0.05581 0.136425,-0.05581 z" />
      <path
         inkscape:connector-curvature="0"
         id="path1630-6-86"
         style="font-style:normal;font-variant:normal;font-weight:normal;font-stretch:normal;font-size:2.11666656px;font-family:'Bauhaus 93';-inkscape-font-specification:'Bauhaus 93, ';fill:#8a6f91;fill-opacity:1;stroke-width:0.26458332"
         d="M 3.44222,69.054489 H 3.0556803 v -0.581876 q 0,-0.08888 -0.073381,-0.08888 -0.072347,0 -0.072347,0.08888 v 0.581876 H 2.5234131 v -0.574642 q 0,-0.201538 0.1333251,-0.338997 0.1333252,-0.138493 0.3265951,-0.138493 0.2211751,0 0.3545003,0.160197 0.1043864,0.125057 0.1043864,0.348299 z" />
      <path
         inkscape:connector-curvature="0"
         id="path1632-2-0"
         style="font-style:normal;font-variant:normal;font-weight:normal;font-stretch:normal;font-size:2.11666656px;font-family:'Bauhaus 93';-inkscape-font-specification:'Bauhaus 93, ';fill:#8a6f91;fill-opacity:1;stroke-width:0.26458332"
         d="M 4.0323648,69.435861 H 3.6458251 v -0.859896 q 0,-0.236678 0.1240234,-0.385506 0.071314,-0.08578 0.1808675,-0.136426 0.1105876,-0.05064 0.2263428,-0.05064 0.2304768,0 0.3886067,0.155029 0.1581299,0.155029 0.1581299,0.380338 0,0.219108 -0.1570964,0.378272 -0.1570963,0.159163 -0.3720702,0.159163 -0.03514,0 -0.1033529,-0.0072 v -0.425814 q 0.047542,0.03824 0.095085,0.03824 0.059945,0 0.1023194,-0.04444 0.043408,-0.04444 0.043408,-0.10542 0,-0.06098 -0.044442,-0.103353 -0.044442,-0.04341 -0.1064534,-0.04341 -0.1488281,0 -0.1488281,0.205672 z" />
      <path
         inkscape:connector-curvature="0"
         id="path1634-4-2"
         style="font-style:normal;font-variant:normal;font-weight:normal;font-stretch:normal;font-size:2.11666656px;font-family:'Bauhaus 93';-inkscape-font-specification:'Bauhaus 93, ';fill:#8a6f91;fill-opacity:1;stroke-width:0.26458332"
         d="m 4.8922606,68.038531 h 0.3865397 v 0.581876 q 0,0.08785 0.07338,0.08785 0.072347,0 0.072347,-0.08785 V 68.038531 H 5.811067 v 0.574641 q 0,0.200505 -0.1333252,0.338998 -0.1333252,0.137459 -0.326595,0.137459 -0.2201416,0 -0.3545003,-0.160197 -0.1043864,-0.125057 -0.1043864,-0.347265 z" />
      <path
         inkscape:connector-curvature="0"
         id="path1636-2-0"
         style="font-style:normal;font-variant:normal;font-weight:normal;font-stretch:normal;font-size:2.11666656px;font-family:'Bauhaus 93';-inkscape-font-specification:'Bauhaus 93, ';fill:#8a6f91;fill-opacity:1;stroke-width:0.26458332"
         d="m 6.3815756,67.643723 v 0.394808 h 0.1736328 v 0.408243 H 6.3815756 q 0,0.12299 0.038241,0.169499 0.039274,0.04651 0.142627,0.04651 v 0.406177 q -0.029972,10e-4 -0.044442,10e-4 -0.1312581,0 -0.2480468,-0.06098 Q 6.1541996,68.948 6.0839196,68.843615 5.9950366,68.71029 5.9950366,68.490149 v -0.84646 z" />
    </g>
    <path
       inkscape:connector-curvature="0"
       style="display:inline;fill:#ffffff;fill-opacity:1;stroke-width:0.2916196"
       d="m 1.8529411,198.9667 h 6.4941177 c 0.7495294,0 1.3529413,0.70085 1.3529413,1.57143 v 7.85714 c 0,0.87058 -0.6034119,1.57143 -1.3529413,1.57143 H 1.8529411 c -0.7495293,0 -1.35294119,-0.70085 -1.35294119,-1.57143 v -7.85714 c 0,-0.87058 0.60341189,-1.57143 1.35294119,-1.57143 z"
       id="rect182-7-4-1-84" />
    <rect
       style="display:inline;opacity:1;fill:#ffffff;fill-opacity:1;stroke:none;stroke-width:0.40000001;stroke-linecap:butt;stroke-linejoin:round;stroke-miterlimit:4;stroke-dasharray:none;stroke-dashoffset:0.3023622;stroke-opacity:1;paint-order:markers fill stroke"
       id="rect949-7"
       width="9.1999998"
       height="3"
       x="0.50000006"
       y="208.5" />
    <g
       aria-label="type"
       style="font-style:normal;font-variant:normal;font-weight:normal;font-stretch:normal;font-size:2.11666656px;line-height:1.25;font-family:'Bauhaus 93';-inkscape-font-specification:'Bauhaus 93, ';letter-spacing:0px;word-spacing:0px;fill:#8a6f91;fill-opacity:1;stroke:none;stroke-width:0.26458332"
       id="text924"
       transform="translate(0,-1.0583333)">
      <path
         d="m 3.4230999,208.07175 v 0.3948 h 0.1736328 v 0.40825 H 3.4230999 q 0,0.12299 0.038241,0.1695 0.039274,0.0465 0.142627,0.0465 v 0.40617 q -0.029972,0.001 -0.044442,0.001 -0.1312581,0 -0.2480468,-0.061 -0.1157552,-0.061 -0.1860352,-0.16537 -0.088883,-0.13332 -0.088883,-0.35346 v -0.84646 z"
         style="fill:#8a6f91;fill-opacity:1;stroke-width:0.26458332"
         id="path4725"
         inkscape:connector-curvature="0" />
      <path
         d="m 3.9191936,209.93417 v -0.3359 q 0.078548,0.0331 0.1374593,0.0331 0.1881022,0 0.2439127,-0.21187 -0.1012858,0.0599 -0.1984375,0.0599 -0.1436604,0 -0.236678,-0.10645 -0.093018,-0.10749 -0.093018,-0.27285 v -0.64802 h 0.3865397 v 0.55397 q 0,0.092 0.076481,0.092 0.073381,0 0.073381,-0.10129 v -0.54466 h 0.3865397 v 0.91984 q 0,0.25734 -0.144694,0.41547 -0.1725993,0.18811 -0.4175456,0.18811 -0.107487,0 -0.2139404,-0.0413 z"
         style="fill:#8a6f91;fill-opacity:1;stroke-width:0.26458332"
         id="path4727"
         inkscape:connector-curvature="0" />
      <path
         d="M 5.286552,209.86389 H 4.9000123 v -0.8599 q 0,-0.23668 0.1240234,-0.38551 0.071314,-0.0858 0.1808675,-0.13642 0.1105876,-0.0506 0.2263428,-0.0506 0.2304769,0 0.3886067,0.15503 0.1581299,0.15503 0.1581299,0.38034 0,0.21911 -0.1570963,0.37827 -0.1570964,0.15917 -0.3720703,0.15917 -0.03514,0 -0.1033529,-0.007 v -0.42581 q 0.047542,0.0382 0.095085,0.0382 0.059945,0 0.1023193,-0.0444 0.043408,-0.0444 0.043408,-0.10542 0,-0.061 -0.044442,-0.10335 -0.044442,-0.0434 -0.1064535,-0.0434 -0.1488281,0 -0.1488281,0.20567 z"
         style="fill:#8a6f91;fill-opacity:1;stroke-width:0.26458332"
         id="path4729"
         inkscape:connector-curvature="0" />
      <path
         d="M 7.1593058,209.02983 H 6.5732951 q -0.013436,-0.0444 -0.013436,-0.0816 0,-0.0517 0.018603,-0.10129 h 0.1963704 q -0.020671,-0.11472 -0.1291911,-0.11472 -0.072347,0 -0.1178222,0.062 -0.045475,0.061 -0.045475,0.1571 0,0.10025 0.043408,0.16226 0.044442,0.062 0.1157552,0.062 0.057878,0 0.1116211,-0.0579 l 0.2201416,0.26458 q -0.1539958,0.12092 -0.342098,0.12092 -0.2294433,0 -0.3855061,-0.15399 -0.1560628,-0.154 -0.1560628,-0.38137 0,-0.22635 0.1570963,-0.38241 0.1581299,-0.15606 0.3875732,-0.15606 0.2242757,0 0.3762044,0.15296 0.1529623,0.15193 0.1529623,0.37517 0,0.0227 -0.00413,0.0724 z"
         style="fill:#8a6f91;fill-opacity:1;stroke-width:0.26458332"
         id="path4731"
         inkscape:connector-curvature="0" />
    </g>
    <path
       inkscape:connector-curvature="0"
       style="display:inline;fill:#ffffff;fill-opacity:1;stroke-width:0.2916196"
       d="m 1.852941,210 h 6.4941179 c 0.7495294,0 1.3529413,0.70085 1.3529413,1.57143 v 7.85714 C 9.7000002,220.29915 9.0965883,221 8.3470589,221 H 1.852941 c -0.7495293,0 -1.35294121,-0.70085 -1.35294121,-1.57143 v -7.85714 C 0.49999979,210.70085 1.1034117,210 1.852941,210 Z"
       id="rect182-7-4-1-84-2" />
    <rect
       style="opacity:1;fill:#ffffff;fill-opacity:1;stroke:none;stroke-width:0.40000001;stroke-linecap:butt;stroke-linejoin:round;stroke-miterlimit:4;stroke-dasharray:none;stroke-dashoffset:0.3023622;stroke-opacity:1;paint-order:markers fill stroke"
       id="rect949"
       width="9.1999998"
       height="3"
       x="0.5"
       y="219.5" />
    <g
       aria-label="cutoff"
       style="font-style:normal;font-variant:normal;font-weight:normal;font-stretch:normal;font-size:2.11666656px;line-height:1.25;font-family:'Bauhaus 93';-inkscape-font-specification:'Bauhaus 93, ';letter-spacing:0px;word-spacing:0px;fill:#8a6f91;fill-opacity:1;stroke:none;stroke-width:0.26458332"
       id="text943">
      <path
         d="m 3.0065877,219.98652 0.3834391,-0.0145 q -0.016536,0.22324 -0.1663981,0.3669 -0.1498617,0.14366 -0.3648356,0.14366 -0.2273763,0 -0.3844726,-0.15813 -0.1560629,-0.15813 -0.1560629,-0.38757 0,-0.21808 0.1581299,-0.37311 0.1581299,-0.15503 0.379305,-0.15503 0.1932699,0 0.3410644,0.12196 0.1477946,0.12196 0.1839681,0.31109 l -0.3917073,0.0145 q -0.050643,-0.0661 -0.1281575,-0.0661 -0.066146,0 -0.1085205,0.0434 -0.042375,0.0434 -0.042375,0.10955 0,0.0672 0.044442,0.11265 0.045475,0.0455 0.1126546,0.0455 0.098185,0 0.1395264,-0.11472 z"
         style="fill:#8a6f91;fill-opacity:1;stroke-width:0.26458332"
         id="path4734" />
      <path
         d="m 3.560559,219.44495 h 0.3865397 v 0.58187 q 0,0.0879 0.07338,0.0879 0.072347,0 0.072347,-0.0879 v -0.58187 h 0.3865397 v 0.57464 q 0,0.2005 -0.1333252,0.339 -0.1333252,0.13746 -0.326595,0.13746 -0.2201416,0 -0.3545003,-0.1602 -0.1043864,-0.12506 -0.1043864,-0.34727 z"
         style="fill:#8a6f91;fill-opacity:1;stroke-width:0.26458332"
         id="path4736" />
      <path
         d="m 5.0498737,219.05014 v 0.39481 h 0.1736328 v 0.40824 H 5.0498737 q 0,0.12299 0.038241,0.1695 0.039274,0.0465 0.1426269,0.0465 v 0.40618 q -0.029972,0.001 -0.044442,0.001 -0.1312582,0 -0.2480469,-0.061 -0.1157552,-0.061 -0.1860351,-0.16536 -0.088884,-0.13333 -0.088884,-0.35347 v -0.84646 z"
         style="fill:#8a6f91;fill-opacity:1;stroke-width:0.26458332"
         id="path4738" />
      <path
         d="m 5.9015012,219.40877 q 0.2191081,0 0.3751709,0.15813 0.1570963,0.1571 0.1570963,0.37724 0,0.22324 -0.1591634,0.38034 -0.1581299,0.1571 -0.3824056,0.1571 -0.2242757,0 -0.3834391,-0.1571 -0.1591634,-0.15813 -0.1591634,-0.38034 0,-0.22634 0.1591634,-0.38034 0.1591634,-0.15503 0.3927409,-0.15503 z m -0.010335,0.38138 q -0.062012,0 -0.1054199,0.0455 -0.043408,0.0444 -0.043408,0.10956 0,0.0641 0.043408,0.10955 0.044442,0.0455 0.1054199,0.0455 0.062012,0 0.1054199,-0.0455 0.044442,-0.0455 0.044442,-0.10955 0,-0.0651 -0.043408,-0.10956 -0.043408,-0.0455 -0.1064535,-0.0455 z"
         style="fill:#8a6f91;fill-opacity:1;stroke-width:0.26458332"
         id="path4740" />
      <path
         d="m 7.1541377,219.65889 v 0.40514 H 6.9815385 v 0.39688 H 6.5949988 v -0.8754 q 0,-0.1478 0.050643,-0.25218 0.064079,-0.13333 0.1943033,-0.21704 0.1312582,-0.0847 0.2728516,-0.0847 l 0.041341,0.001 v 0.40514 q -0.013436,-0.001 -0.019637,-0.001 -0.07338,0 -0.1136882,0.0486 -0.039274,0.0486 -0.039274,0.13849 v 0.0351 z"
         style="fill:#8a6f91;fill-opacity:1;stroke-width:0.26458332"
         id="path4742" />
      <path
         d="m 7.8817421,219.65889 v 0.40514 H 7.7091428 v 0.39688 H 7.3226032 v -0.8754 q 0,-0.1478 0.050643,-0.25218 0.064079,-0.13333 0.1943033,-0.21704 0.1312582,-0.0847 0.2728516,-0.0847 l 0.041341,0.001 v 0.40514 q -0.013436,-0.001 -0.019637,-0.001 -0.07338,0 -0.1136882,0.0486 -0.039274,0.0486 -0.039274,0.13849 v 0.0351 z"
         style="fill:#8a6f91;fill-opacity:1;stroke-width:0.26458332"
         id="path4744" />
    </g>
    <g
       aria-label="mod"
       style="font-style:normal;font-variant:normal;font-weight:normal;font-stretch:normal;font-size:2.11666656px;line-height:1.25;font-family:'Bauhaus 93';-inkscape-font-specification:'Bauhaus 93, ';letter-spacing:0px;word-spacing:0px;fill:#8a6f91;fill-opacity:1;stroke:none;stroke-width:0.26458332"
       id="text947">
      <path
         d="M 4.5915039,231.48247 H 4.2049642 v -0.55604 q 0,-0.0641 -0.013436,-0.0889 -0.013436,-0.0248 -0.048576,-0.0248 -0.065112,0 -0.065112,0.11472 v 0.55501 H 3.6913005 v -0.55604 q 0,-0.0641 -0.014469,-0.0889 -0.013436,-0.0248 -0.048576,-0.0248 -0.064079,0 -0.064079,0.11472 v 0.55501 H 3.1776368 v -0.63459 q 0,-0.17363 0.1167887,-0.29455 0.1167888,-0.12196 0.2831869,-0.12196 0.1715657,0 0.3079915,0.14469 0.1519287,-0.14469 0.3038574,-0.14469 0.1932698,0 0.3100586,0.14056 0.091984,0.10955 0.091984,0.31936 z"
         style="fill:#8a6f91;fill-opacity:1;stroke-width:0.26458332"
         id="path4747" />
      <path
         d="m 5.3077393,230.43034 q 0.219108,0 0.3751709,0.15813 0.1570963,0.15709 0.1570963,0.37723 0,0.22325 -0.1591634,0.38034 -0.1581299,0.1571 -0.3824056,0.1571 -0.2242757,0 -0.3834391,-0.1571 -0.1591634,-0.15813 -0.1591634,-0.38034 0,-0.22634 0.1591634,-0.38034 0.1591634,-0.15502 0.3927409,-0.15502 z m -0.010335,0.38137 q -0.062012,0 -0.1054199,0.0455 -0.043408,0.0444 -0.043408,0.10956 0,0.0641 0.043408,0.10955 0.044442,0.0455 0.1054199,0.0455 0.062012,0 0.1054199,-0.0455 0.044442,-0.0455 0.044442,-0.10955 0,-0.0651 -0.043408,-0.10956 -0.043408,-0.0455 -0.1064534,-0.0455 z"
         style="fill:#8a6f91;fill-opacity:1;stroke-width:0.26458332"
         id="path4749" />
      <path
         d="m 6.6358236,230.0717 h 0.3865397 v 0.85886 q 0,0.23668 -0.1240234,0.38551 -0.071313,0.0858 -0.181901,0.13643 -0.1095541,0.0506 -0.2253093,0.0506 -0.2304768,0 -0.3886067,-0.15503 -0.1581299,-0.15503 -0.1581299,-0.38034 0,-0.21807 0.1570964,-0.37724 0.1570963,-0.15916 0.3720703,-0.15916 0.034106,0 0.1033528,0.006 v 0.42581 q -0.047542,-0.0372 -0.095085,-0.0372 -0.059945,0 -0.1033529,0.0444 -0.042375,0.0434 -0.042375,0.10542 0,0.0599 0.044442,0.10335 0.044442,0.0424 0.1064534,0.0424 0.1488281,0 0.1488281,-0.20568 z"
         style="fill:#8a6f91;fill-opacity:1;stroke-width:0.26458332"
         id="path4751" />
    </g>
    <path
       inkscape:connector-curvature="0"
       style="display:inline;fill:#ffffff;fill-opacity:1;stroke-width:0.2916196"
       d="m 1.8529409,232 h 6.494118 c 0.7495294,0 1.3529413,0.70085 1.3529413,1.57143 v 7.85714 c 0,0.87058 -0.6034119,1.57143 -1.3529413,1.57143 h -6.494118 c -0.7495292,0 -1.35294111,-0.70085 -1.35294111,-1.57143 v -7.85714 C 0.49999979,232.70085 1.1034117,232 1.8529409,232 Z"
       id="rect182-7-4-1-8-5" />
    <rect
       style="opacity:1;fill:#ffffff;fill-opacity:1;stroke:none;stroke-width:0.40000001;stroke-linecap:butt;stroke-linejoin:round;stroke-miterlimit:4;stroke-dasharray:none;stroke-dashoffset:0.3023622;stroke-opacity:1;paint-order:markers fill stroke"
       id="rect4691"
       width="9.1999998"
       height="3"
       x="0.5"
       y="241.5" />
    <g
       aria-label="reso"
       style="font-style:normal;font-variant:normal;font-weight:normal;font-stretch:normal;font-size:2.11666656px;line-height:1.25;font-family:'Bauhaus 93';-inkscape-font-specification:'Bauhaus 93, ';letter-spacing:0px;word-spacing:0px;fill:#8a6f91;fill-opacity:1;stroke:none;stroke-width:0.26458332"
       id="text4671">
      <path
         d="m 3.8421958,241.42463 v 0.41341 q -0.040308,-0.0227 -0.073381,-0.0227 -0.1054199,0 -0.1054199,0.16123 v 0.48886 H 3.2768556 v -0.56327 q 0,-0.22324 0.1219564,-0.35553 0.1219564,-0.13333 0.3255615,-0.13333 0.045475,0 0.1178223,0.0114 z"
         style="fill:#8a6f91;fill-opacity:1;stroke-width:0.26458332"
         id="path4754" />
      <path
         d="M 4.9677084,242.01271 H 4.3816977 q -0.013436,-0.0444 -0.013436,-0.0816 0,-0.0517 0.018604,-0.10129 h 0.1963704 q -0.020671,-0.11472 -0.129191,-0.11472 -0.072347,0 -0.1178223,0.062 -0.045475,0.061 -0.045475,0.1571 0,0.10025 0.043408,0.16226 0.044442,0.062 0.1157552,0.062 0.057878,0 0.111621,-0.0579 l 0.2201416,0.26458 q -0.1539957,0.12092 -0.3420979,0.12092 -0.2294434,0 -0.3855062,-0.15399 -0.1560628,-0.154 -0.1560628,-0.38137 0,-0.22635 0.1570963,-0.38241 0.1581299,-0.15606 0.3875733,-0.15606 0.2242757,0 0.3762044,0.15296 0.1529622,0.15193 0.1529622,0.37517 0,0.0227 -0.00413,0.0724 z"
         style="fill:#8a6f91;fill-opacity:1;stroke-width:0.26458332"
         id="path4756" />
      <path
         d="m 5.7748942,241.44943 v 0.40721 q -0.081649,0 -0.1126546,0.031 -0.029972,0.03 -0.038241,0.11989 -0.026872,0.29869 -0.2315104,0.42168 -0.1085205,0.0641 -0.3079915,0.0641 h -0.053744 v -0.40928 h 0.01757 q 0.093018,0 0.1322917,-0.0382 0.040308,-0.0393 0.046509,-0.13643 0.00827,-0.15813 0.028939,-0.2222 0.021704,-0.0641 0.086816,-0.12713 0.1136881,-0.11059 0.3152262,-0.11059 z"
         style="fill:#8a6f91;fill-opacity:1;stroke-width:0.26458332"
         id="path4758" />
      <path
         d="m 6.3908773,241.41326 q 0.219108,0 0.3751708,0.15813 0.1570964,0.1571 0.1570964,0.37724 0,0.22324 -0.1591634,0.38034 -0.1581299,0.15709 -0.3824056,0.15709 -0.2242757,0 -0.3834391,-0.15709 -0.1591634,-0.15813 -0.1591634,-0.38034 0,-0.22634 0.1591634,-0.38034 0.1591634,-0.15503 0.3927409,-0.15503 z m -0.010335,0.38137 q -0.062012,0 -0.1054199,0.0455 -0.043408,0.0444 -0.043408,0.10955 0,0.0641 0.043408,0.10956 0.044442,0.0455 0.1054199,0.0455 0.062012,0 0.1054199,-0.0455 0.044442,-0.0455 0.044442,-0.10956 0,-0.0651 -0.043408,-0.10955 -0.043408,-0.0455 -0.1064534,-0.0455 z"
         style="fill:#8a6f91;fill-opacity:1;stroke-width:0.26458332"
         id="path4760" />
    </g>
    <g
       aria-label="mod"
       style="font-style:normal;font-variant:normal;font-weight:normal;font-stretch:normal;font-size:2.11666656px;line-height:1.25;font-family:'Bauhaus 93';-inkscape-font-specification:'Bauhaus 93, ';letter-spacing:0px;word-spacing:0px;display:inline;fill:#8a6f91;fill-opacity:1;stroke:none;stroke-width:0.26458332"
       id="text947-8">
      <path
         d="M 4.5915039,253.48247 H 4.2049642 v -0.55604 q 0,-0.0641 -0.013436,-0.0889 -0.013436,-0.0248 -0.048576,-0.0248 -0.065112,0 -0.065112,0.11472 v 0.55501 H 3.6913005 v -0.55604 q 0,-0.0641 -0.014469,-0.0889 -0.013436,-0.0248 -0.048576,-0.0248 -0.064079,0 -0.064079,0.11472 v 0.55501 H 3.1776368 v -0.63459 q 0,-0.17363 0.1167887,-0.29455 0.1167888,-0.12196 0.2831869,-0.12196 0.1715657,0 0.3079915,0.14469 0.1519287,-0.14469 0.3038574,-0.14469 0.1932698,0 0.3100586,0.14056 0.091984,0.10955 0.091984,0.31936 z"
         style="fill:#8a6f91;fill-opacity:1;stroke-width:0.26458332"
         id="path4763" />
      <path
         d="m 5.3077393,252.43034 q 0.219108,0 0.3751709,0.15813 0.1570963,0.15709 0.1570963,0.37723 0,0.22325 -0.1591634,0.38034 -0.1581299,0.1571 -0.3824056,0.1571 -0.2242757,0 -0.3834391,-0.1571 -0.1591634,-0.15813 -0.1591634,-0.38034 0,-0.22634 0.1591634,-0.38034 0.1591634,-0.15502 0.3927409,-0.15502 z m -0.010335,0.38137 q -0.062012,0 -0.1054199,0.0455 -0.043408,0.0444 -0.043408,0.10956 0,0.0641 0.043408,0.10955 0.044442,0.0455 0.1054199,0.0455 0.062012,0 0.1054199,-0.0455 0.044442,-0.0455 0.044442,-0.10955 0,-0.0651 -0.043408,-0.10956 -0.043408,-0.0455 -0.1064534,-0.0455 z"
         style="fill:#8a6f91;fill-opacity:1;stroke-width:0.26458332"
         id="path4765" />
      <path
         d="m 6.6358236,252.0717 h 0.3865397 v 0.85886 q 0,0.23668 -0.1240234,0.38551 -0.071313,0.0858 -0.181901,0.13643 -0.1095541,0.0506 -0.2253093,0.0506 -0.2304768,0 -0.3886067,-0.15503 -0.1581299,-0.15503 -0.1581299,-0.38034 0,-0.21807 0.1570964,-0.37724 0.1570963,-0.15916 0.3720703,-0.15916 0.034106,0 0.1033528,0.006 v 0.42581 q -0.047542,-0.0372 -0.095085,-0.0372 -0.059945,0 -0.1033529,0.0444 -0.042375,0.0434 -0.042375,0.10542 0,0.0599 0.044442,0.10335 0.044442,0.0424 0.1064534,0.0424 0.1488281,0 0.1488281,-0.20568 z"
         style="fill:#8a6f91;fill-opacity:1;stroke-width:0.26458332"
         id="path4767" />
    </g>
    <path
       inkscape:connector-curvature="0"
       style="display:inline;fill:#ffffff;fill-opacity:1;stroke-width:0.2916196"
       d="m 1.8529409,254 h 6.4941182 c 0.7495291,0 1.352941,0.70085 1.352941,1.57143 v 7.85714 c 0,0.87058 -0.6034119,1.57143 -1.352941,1.57143 H 1.8529409 c -0.749529,0 -1.35294097,-0.70085 -1.35294097,-1.57143 v -7.85714 C 0.49999993,254.70085 1.1034119,254 1.8529409,254 Z"
       id="rect182-7-4-1-1-3" />
    <g
       aria-label="gain"
       style="font-style:normal;font-variant:normal;font-weight:normal;font-stretch:normal;font-size:2.11666656px;line-height:1.25;font-family:'Bauhaus 93';-inkscape-font-specification:'Bauhaus 93, ';letter-spacing:0px;word-spacing:0px;fill:#8a6f91;fill-opacity:1;stroke:none;stroke-width:0.26458332"
       id="text4710">
      <path
         d="m 3.6788981,264.05752 v 0.3545 q -0.083716,0.031 -0.1601969,0.031 -0.1870687,0 -0.3172933,-0.1416 -0.1291911,-0.14159 -0.1291911,-0.34623 0,-0.22117 0.1560629,-0.3731 0.1560628,-0.15193 0.3834391,-0.15193 0.1209228,0 0.2315104,0.0486 0.1105875,0.0486 0.1736328,0.13023 0.1054199,0.13539 0.1054199,0.39274 v 0.339 q 0,0.27595 -0.1570964,0.44751 -0.1560628,0.1726 -0.4072102,0.1726 -0.076481,0 -0.1932699,-0.0382 v -0.3514 q 0.075448,0.0413 0.1529623,0.0413 0.1043864,0 0.1612304,-0.0692 0.056844,-0.0682 0.056844,-0.19637 v -0.38758 q 0,-0.16226 -0.1312581,-0.16226 -0.055811,0 -0.098185,0.0434 -0.041341,0.0424 -0.041341,0.0982 0,0.0589 0.039274,0.0982 0.040308,0.0393 0.099219,0.0393 0.039274,0 0.075448,-0.0186 z"
         style="fill:#8a6f91;fill-opacity:1;stroke-width:0.26458332"
         id="path4770" />
      <path
         d="m 4.9211995,264.09576 v 0.39998 q -0.047542,0.008 -0.086816,0.008 -0.232544,0 -0.3875732,-0.15296 -0.1550293,-0.15296 -0.1550293,-0.38344 0,-0.22427 0.1560628,-0.38034 0.1570963,-0.15606 0.381372,-0.15606 0.250114,0 0.3937744,0.14676 0.144694,0.14573 0.144694,0.39894 v 0.5054 H 4.9811441 v -0.47749 q 0,-0.0817 -0.040308,-0.13023 -0.039274,-0.0486 -0.1064534,-0.0486 -0.060978,0 -0.1054199,0.0444 -0.044442,0.0444 -0.044442,0.10542 0,0.0641 0.040308,0.10542 0.040308,0.0413 0.1023194,0.0413 0.050643,0 0.094051,-0.0269 z"
         style="fill:#8a6f91;fill-opacity:1;stroke-width:0.26458332"
         id="path4772" />
      <path
         d="m 5.9795326,263.45187 v 1.03043 H 5.592993 v -1.03043 z m -0.1922363,-0.45992 q 0.078548,0 0.1353923,0.0558 0.057878,0.0548 0.057878,0.13023 0,0.0806 -0.054777,0.13229 -0.053743,0.0517 -0.1384929,0.0517 -0.084749,0 -0.1395263,-0.0517 -0.053744,-0.0517 -0.053744,-0.13229 0,-0.0755 0.056844,-0.13023 0.057878,-0.0558 0.1364257,-0.0558 z"
         style="fill:#8a6f91;fill-opacity:1;stroke-width:0.26458332"
         id="path4774" />
      <path
         d="M 7.1277831,264.4823 H 6.7412434 v -0.58188 q 0,-0.0889 -0.07338,-0.0889 -0.072347,0 -0.072347,0.0889 v 0.58188 H 6.2089762 v -0.57464 q 0,-0.20154 0.1333252,-0.339 0.1333252,-0.13849 0.326595,-0.13849 0.2211751,0 0.3545003,0.16019 0.1043864,0.12506 0.1043864,0.3483 z"
         style="fill:#8a6f91;fill-opacity:1;stroke-width:0.26458332"
         id="path4776" />
    </g>
    <g
       aria-label="filtah"
       transform="rotate(90)"
       style="font-style:normal;font-variant:normal;font-weight:normal;font-stretch:normal;font-size:9.8777771px;line-height:1.25;font-family:'Bauhaus 93';-inkscape-font-specification:'Bauhaus 93, ';letter-spacing:0px;word-spacing:0px;fill:#8a6f91;fill-opacity:1;stroke:none;stroke-width:0.26458332"
       id="text4781">
      <path
         d="m 177.04228,-5.4159153 v 1.8906683 h -0.80546 v 1.8520832 h -1.80386 v -4.0851939 q 0,-0.6897081 0.23634,-1.1768446 0.29903,-0.6221842 0.90675,-1.012858 0.61253,-0.3954969 1.2733,-0.3954969 l 0.19293,0.00482 v 1.8906683 q -0.0627,-0.00482 -0.0916,-0.00482 -0.34244,0 -0.53055,0.2266872 -0.18327,0.2266873 -0.18327,0.6462999 v 0.1639865 z"
         style="fill:#8a6f91;fill-opacity:1;stroke-width:0.26458332"
         id="path4783" />
      <path
         d="m 179.6323,-6.4818277 v 4.8086639 h -1.80385 v -4.8086639 z m -0.8971,-2.1462944 q 0.36656,0 0.63183,0.2604492 0.27009,0.2556261 0.27009,0.6077148 0,0.3762044 -0.25562,0.6173611 -0.2508,0.2411567 -0.6463,0.2411567 -0.3955,0 -0.65112,-0.2411567 -0.25081,-0.2411567 -0.25081,-0.6173611 0,-0.3520887 0.26527,-0.6077148 0.2701,-0.2604492 0.63666,-0.2604492 z"
         style="fill:#8a6f91;fill-opacity:1;stroke-width:0.26458332"
         id="path4785" />
      <path
         d="m 182.50689,-8.2567408 v 6.583577 h -1.80385 v -6.583577 z"
         style="fill:#8a6f91;fill-opacity:1;stroke-width:0.26458332"
         id="path4787" />
      <path
         d="m 185.16443,-8.2567408 v 1.8424369 h 0.81029 v 1.9051377 h -0.81029 q 0,0.5739529 0.17846,0.7909939 0.18328,0.217041 0.66559,0.217041 v 1.8954914 q -0.13987,0.00482 -0.20739,0.00482 -0.61254,0 -1.15755,-0.2845648 -0.54019,-0.2845649 -0.86817,-0.7717014 -0.41479,-0.6221842 -0.41479,-1.6495116 v -3.9501462 z"
         style="fill:#8a6f91;fill-opacity:1;stroke-width:0.26458332"
         id="path4789" />
      <path
         d="m 189.52937,-3.4770156 v 1.8665526 q -0.22186,0.038585 -0.40514,0.038585 -1.08521,0 -1.80868,-0.7138237 -0.72347,-0.7138237 -0.72347,-1.7893825 0,-1.0466199 0.7283,-1.7749131 0.73311,-0.7282931 1.77973,-0.7282931 1.1672,0 1.83762,0.6848849 0.67523,0.6800618 0.67523,1.8617295 v 2.3585122 h -1.80385 v -2.2282876 q 0,-0.3810275 -0.1881,-0.6077148 -0.18328,-0.2266872 -0.49678,-0.2266872 -0.28457,0 -0.49196,0.2073947 -0.2074,0.2073947 -0.2074,0.4919596 0,0.2990343 0.18811,0.4919596 0.1881,0.1929253 0.47749,0.1929253 0.23633,0 0.4389,-0.1254014 z"
         style="fill:#8a6f91;fill-opacity:1;stroke-width:0.26458332"
         id="path4791" />
      <path
         d="m 194.46826,-8.2567408 v 2.0112466 q 0.4582,-0.3327962 0.91639,-0.3327962 0.69454,0 1.09968,0.5016059 0.40996,0.5016058 0.40996,1.3553005 v 3.0482202 h -1.80385 V -4.214955 q 0,-0.3086806 -0.0675,-0.4147895 -0.0627,-0.1061089 -0.2508,-0.1061089 -0.30386,0 -0.30386,0.4485514 v 2.6141382 h -1.80385 v -6.583577 z"
         style="fill:#8a6f91;fill-opacity:1;stroke-width:0.26458332"
         id="path4793" />
    </g>
  </g>
  <g
     inkscape:groupmode="layer"
     id="layer2"
     inkscape:label="components"
     style="display:none">
    <circle
       cy="101"
       cx="5.0999999"
       id="circle164-0"
       style="display:inline;fill:#00ff00;stroke-width:0.24907795"
       inkscape:label="_b"
       r="4.25" />
    <circle
       transform="translate(0,-168.5)"
       style="display:inline;fill:#0000ff;stroke-width:0.24907796"
       id="circle166"
       cx="5.0999999"
       cy="280.5"
       inkscape:label="_mix"
       r="4.25" />
    <circle
       style="display:inline;fill:#ff0000;stroke-width:0.24907795"
       id="path162"
       cx="5.0999999"
       cy="57"
       inkscape:label="_knob"
       r="4.25" />
    <circle
       cy="90"
       cx="5.0999999"
       id="circle164-0-1"
       style="display:inline;fill:#00ff00;stroke-width:0.24907795"
       inkscape:label="_a"
       r="4.25" />
  </g>
</svg>
