<?xml version="1.0" encoding="UTF-8" standalone="no"?>
<!-- Created with Inkscape (http://www.inkscape.org/) -->

<svg
   xmlns:dc="http://purl.org/dc/elements/1.1/"
   xmlns:cc="http://creativecommons.org/ns#"
   xmlns:rdf="http://www.w3.org/1999/02/22-rdf-syntax-ns#"
   xmlns:svg="http://www.w3.org/2000/svg"
   xmlns="http://www.w3.org/2000/svg"
   xmlns:sodipodi="http://sodipodi.sourceforge.net/DTD/sodipodi-0.dtd"
   xmlns:inkscape="http://www.inkscape.org/namespaces/inkscape"
   width="10.16mm"
   height="128.5mm"
   viewBox="0 0 10.16 128.5"
   version="1.1"
   id="svg8"
   inkscape:version="0.92.3 (2405546, 2018-03-11)"
   sodipodi:docname="Filtah.svg">
  <defs
     id="defs2" />
  <sodipodi:namedview
     id="base"
     pagecolor="#ffffff"
     bordercolor="#666666"
     borderopacity="1.0"
     inkscape:pageopacity="0.0"
     inkscape:pageshadow="2"
     inkscape:zoom="11.2"
     inkscape:cx="-3.4786795"
     inkscape:cy="43.163494"
     inkscape:document-units="mm"
     inkscape:current-layer="g1162-4-5"
     showgrid="true"
     inkscape:window-width="1920"
     inkscape:window-height="1027"
     inkscape:window-x="-8"
     inkscape:window-y="22"
     inkscape:window-maximized="1"
     inkscape:pagecheckerboard="false"
     inkscape:snap-to-guides="true"
     showguides="true"
     inkscape:guide-bbox="true"
     inkscape:snap-page="true"
     inkscape:snap-bbox="true"
     inkscape:snap-bbox-edge-midpoints="false"
     inkscape:snap-bbox-midpoints="true"
     inkscape:snap-object-midpoints="true"
     inkscape:snap-others="false"
     inkscape:object-nodes="false"
     inkscape:snap-nodes="true"
     inkscape:measure-start="-12.2321,122.857"
     inkscape:measure-end="-11.6964,83.125"
     inkscape:bbox-paths="false">
    <inkscape:grid
       type="xygrid"
       id="grid5221"
       units="mm"
       originx="0"
       originy="0"
       spacingx="0.1"
       spacingy="0.1"
       enabled="true"
       visible="true" />
    <sodipodi:guide
       position="5.1000002,27.000001"
       orientation="1,0"
       id="guide5243"
       inkscape:locked="false" />
    <sodipodi:guide
       position="0.50000004,53.750004"
       orientation="1,0"
       id="guide5245"
       inkscape:locked="false" />
    <sodipodi:guide
       position="9.7000004,27.100001"
       orientation="1,0"
       id="guide5247"
       inkscape:locked="false" />
    <sodipodi:guide
       position="7.5000003,122.5"
       orientation="0,1"
       id="guide5258"
       inkscape:locked="false" />
    <sodipodi:guide
       position="15.000001,87.000004"
       orientation="0,1"
       id="guide921"
       inkscape:locked="false" />
    <sodipodi:guide
       position="14.000001,32.000001"
       orientation="0,1"
       id="guide927"
       inkscape:locked="false" />
    <sodipodi:guide
       position="12.500001,43.000002"
       orientation="0,1"
       id="guide931"
       inkscape:locked="false" />
    <sodipodi:guide
       position="10.500001,21"
       orientation="0,1"
       id="guide1035"
       inkscape:locked="false" />
    <sodipodi:guide
       position="10.500001,10"
       orientation="0,1"
       id="guide1037"
       inkscape:locked="false" />
    <sodipodi:guide
       position="14.500001,54.000001"
       orientation="0,1"
       id="guide1105"
       inkscape:locked="false" />
    <sodipodi:guide
       position="14.500001,65.000001"
       orientation="0,1"
       id="guide1107"
       inkscape:locked="false" />
    <sodipodi:guide
       position="14.000001,76.000002"
       orientation="0,1"
       id="guide1109"
       inkscape:locked="false" />
  </sodipodi:namedview>
  <metadata
     id="metadata5">
    <rdf:RDF>
      <cc:Work
         rdf:about="">
        <dc:format>image/svg+xml</dc:format>
        <dc:type
           rdf:resource="http://purl.org/dc/dcmitype/StillImage" />
        <dc:title />
      </cc:Work>
    </rdf:RDF>
  </metadata>
  <g
     inkscape:label="Layer 1"
     inkscape:groupmode="layer"
     id="layer1"
     transform="translate(0,-168.5)"
     style="display:inline">
    <g
       style="display:inline"
       id="g1583"
       transform="translate(0,-5.2916669)">
      <rect
         y="293.75"
         x="2.5999999"
         height="2.5"
         width="5"
         id="rect1572"
         style="opacity:1;fill:#ffffff;fill-opacity:1;stroke:#8c8c8c;stroke-width:0.02;stroke-linecap:butt;stroke-linejoin:round;stroke-miterlimit:4;stroke-dasharray:none;stroke-opacity:1;paint-order:markers fill stroke" />
      <g
         id="text1570"
         style="font-style:normal;font-variant:normal;font-weight:normal;font-stretch:normal;font-size:2.82222223px;line-height:1.25;font-family:'Bauhaus 93';-inkscape-font-specification:'Bauhaus 93, ';letter-spacing:0px;word-spacing:0px;fill:#000000;fill-opacity:1;stroke:none;stroke-width:0.26458332"
         aria-label="mm">
        <path
           inkscape:connector-curvature="0"
           id="path1574"
           style="stroke-width:0.26458332"
           d="M 4.9484157,295.70074 H 4.4330294 v -0.74138 q 0,-0.0854 -0.017914,-0.11851 -0.017914,-0.0331 -0.064768,-0.0331 -0.086816,0 -0.086816,0.15296 v 0.74 h -0.515387 v -0.74138 q 0,-0.0854 -0.019293,-0.11851 -0.017914,-0.0331 -0.064768,-0.0331 -0.085438,0 -0.085438,0.15296 v 0.74 h -0.515386 v -0.84611 q 0,-0.23151 0.1557184,-0.39274 0.1557183,-0.16261 0.3775824,-0.16261 0.2287544,0 0.4106554,0.19293 0.2025716,-0.19293 0.4051432,-0.19293 0.2576932,0 0.4134115,0.18741 0.1226454,0.14608 0.1226454,0.42582 z" />
        <path
           inkscape:connector-curvature="0"
           id="path1576"
           style="stroke-width:0.26458332"
           d="M 7.1367404,295.70074 H 6.6213541 v -0.74138 q 0,-0.0854 -0.017914,-0.11851 -0.017914,-0.0331 -0.064768,-0.0331 -0.086816,0 -0.086816,0.15296 v 0.74 h -0.515387 v -0.74138 q 0,-0.0854 -0.019292,-0.11851 -0.017915,-0.0331 -0.064768,-0.0331 -0.085438,0 -0.085438,0.15296 v 0.74 h -0.515387 v -0.84611 q 0,-0.23151 0.1557183,-0.39274 0.1557184,-0.16261 0.3775825,-0.16261 0.2287544,0 0.4106554,0.19293 0.2025716,-0.19293 0.4051432,-0.19293 0.2576932,0 0.4134115,0.18741 0.1226454,0.14608 0.1226454,0.42582 z" />
      </g>
    </g>
    <path
       inkscape:connector-curvature="0"
       style="fill:#ffffff;fill-opacity:1;stroke-width:0.2916196"
       d="M 1.8529411,221 H 8.3470588 C 9.0965881,221 9.7,221.70085 9.7,222.57143 v 7.85714 C 9.7,231.29915 9.0965881,232 8.3470588,232 H 1.8529411 c -0.7495293,0 -1.35294111,-0.70085 -1.35294111,-1.57143 v -7.85714 C 0.49999999,221.70085 1.1034118,221 1.8529411,221 Z"
       id="rect182-7-4-1" />
    <path
       inkscape:connector-curvature="0"
       style="display:inline;fill:#ffffff;fill-opacity:1;stroke-width:0.2916196"
       d="m 1.852941,243 h 6.4941178 c 0.7495294,0 1.3529413,0.70085 1.3529413,1.57143 v 7.85714 C 9.7000001,253.29915 9.0965882,254 8.3470588,254 H 1.852941 c -0.7495292,0 -1.35294109,-0.70085 -1.35294109,-1.57143 v -7.85714 C 0.49999991,243.70085 1.1034118,243 1.852941,243 Z"
       id="rect182-7-4-1-8" />
    <g
       transform="translate(-1.1243676e-8,1.2e-6)"
       style="display:inline;fill:#ff0000"
       id="g1162-4-5">
      <path
         id="rect182-2-45"
         d="M 1.8529411,276 H 8.3470588 C 9.0965881,276 9.7,276.70085 9.7,277.57143 v 7.85714 C 9.7,286.29915 9.0965881,287 8.3470588,287 H 1.8529411 c -0.7495293,0 -1.35294108,-0.70085 -1.35294108,-1.57143 v -7.85714 C 0.50000002,276.70085 1.1034118,276 1.8529411,276 Z"
         style="fill:#8a6f91;fill-opacity:1;stroke-width:0.2916196"
         inkscape:connector-curvature="0" />
      <g
         aria-label="output"
         style="font-style:normal;font-variant:normal;font-weight:bold;font-stretch:normal;font-size:8.46666622px;line-height:1.25;font-family:'Bauhaus 93';-inkscape-font-specification:'Bauhaus 93 Bold';letter-spacing:0px;word-spacing:0px;display:inline;opacity:1;fill:#ffffff;fill-opacity:1;stroke:none;stroke-width:0.07000434"
         id="text18831-64-6-93">
        <path
           d="m 2.4996421,285.95349 q 0,0.28628 -0.1674316,0.45165 -0.1663981,0.16433 -0.4681885,0.16433 -0.3017903,0 -0.469222,-0.16433 -0.1663981,-0.16537 -0.1663981,-0.45165 0,-0.28836 0.1674317,-0.45269 0.1684651,-0.16433 0.4681884,-0.16433 0.3038574,0 0.469222,0.16536 0.1663981,0.16537 0.1663981,0.45166 z m -0.4578532,0.28215 q 0.036174,-0.0444 0.053744,-0.10646 0.018603,-0.063 0.018603,-0.17363 0,-0.10232 -0.018603,-0.17156 -0.018604,-0.0693 -0.051676,-0.11059 -0.033073,-0.0424 -0.079582,-0.06 -0.046509,-0.0176 -0.1002523,-0.0176 -0.053744,0 -0.096118,0.0145 -0.041341,0.0145 -0.079582,0.0579 -0.034107,0.0403 -0.054777,0.11059 -0.019637,0.0703 -0.019637,0.17673 0,0.0951 0.01757,0.16537 0.01757,0.0692 0.051676,0.11162 0.033073,0.0403 0.078548,0.0589 0.046509,0.0186 0.1054199,0.0186 0.050643,0 0.096118,-0.0165 0.046509,-0.0176 0.078548,-0.0579 z"
           style="font-style:normal;font-variant:normal;font-weight:bold;font-stretch:normal;font-size:2.11666656px;font-family:sans-serif;-inkscape-font-specification:'sans-serif Bold';text-align:center;text-anchor:middle;fill:#ffffff;fill-opacity:1;stroke-width:0.07000434"
           id="path22393"
           inkscape:connector-curvature="0" />
        <path
           d="M 3.9248781,286.53329 H 3.5528078 v -0.12815 q -0.1033529,0.0786 -0.1891358,0.11989 -0.085783,0.0403 -0.2046386,0.0403 -0.1922363,0 -0.2966227,-0.11058 -0.1033529,-0.11059 -0.1033529,-0.3266 v -0.75551 h 0.3741374 v 0.57568 q 0,0.0879 0.00517,0.14676 0.0062,0.0579 0.026872,0.0961 0.019637,0.0382 0.058911,0.0558 0.040308,0.0176 0.1116211,0.0176 0.047542,0 0.1054199,-0.0176 0.057878,-0.0176 0.1116211,-0.0517 v -0.82269 h 0.3720703 z"
           style="font-style:normal;font-variant:normal;font-weight:bold;font-stretch:normal;font-size:2.11666656px;font-family:sans-serif;-inkscape-font-specification:'sans-serif Bold';text-align:center;text-anchor:middle;fill:#ffffff;fill-opacity:1;stroke-width:0.07000434"
           id="path22395"
           inkscape:connector-curvature="0" />
        <path
           d="m 5.0193848,286.52296 q -0.059945,0.0155 -0.1271241,0.0238 -0.067179,0.009 -0.164331,0.009 -0.217041,0 -0.3234944,-0.0879 -0.10542,-0.0879 -0.10542,-0.30075 V 285.6245 H 4.1460531 v -0.25218 h 0.1529622 v -0.33176 h 0.3720703 v 0.33176 h 0.3482992 v 0.25218 H 4.6710856 v 0.41135 q 0,0.061 0.00103,0.10645 0.00103,0.0455 0.016536,0.0816 0.014469,0.0362 0.050643,0.0579 0.037207,0.0207 0.107487,0.0207 0.028939,0 0.075448,-0.0124 0.047542,-0.0124 0.066146,-0.0227 h 0.031006 z"
           style="font-style:normal;font-variant:normal;font-weight:bold;font-stretch:normal;font-size:2.11666656px;font-family:sans-serif;-inkscape-font-specification:'sans-serif Bold';text-align:center;text-anchor:middle;fill:#ffffff;fill-opacity:1;stroke-width:0.07000434"
           id="path22397"
           inkscape:connector-curvature="0" />
        <path
           d="m 6.4518555,285.93695 q 0,0.14366 -0.044442,0.26148 -0.043408,0.11782 -0.1147216,0.1943 -0.074414,0.0806 -0.1684652,0.12196 -0.094051,0.0413 -0.2015381,0.0413 -0.099219,0 -0.1684651,-0.0217 -0.069246,-0.0207 -0.1415934,-0.0589 v 0.48369 H 5.24056 v -1.58647 h 0.3720703 v 0.12092 q 0.085783,-0.0682 0.1746663,-0.11058 0.089917,-0.0424 0.2067057,-0.0424 0.217041,0 0.3369303,0.15917 0.1209229,0.15916 0.1209229,0.43718 z m -0.3834391,0.007 q 0,-0.1695 -0.057878,-0.24598 -0.057878,-0.0765 -0.1829346,-0.0765 -0.05271,0 -0.1085205,0.0165 -0.05581,0.0155 -0.1064534,0.0455 v 0.58395 q 0.037207,0.0145 0.079582,0.0186 0.042375,0.004 0.083716,0.004 0.1477946,0 0.2201416,-0.0858 0.072347,-0.0868 0.072347,-0.26045 z"
           style="font-style:normal;font-variant:normal;font-weight:bold;font-stretch:normal;font-size:2.11666656px;font-family:sans-serif;-inkscape-font-specification:'sans-serif Bold';text-align:center;text-anchor:middle;fill:#ffffff;fill-opacity:1;stroke-width:0.07000434"
           id="path22399"
           inkscape:connector-curvature="0" />
        <path
           d="M 7.8770914,286.53329 H 7.5050211 v -0.12815 q -0.1033529,0.0786 -0.1891358,0.11989 -0.085783,0.0403 -0.2046386,0.0403 -0.1922364,0 -0.2966227,-0.11058 -0.1033529,-0.11059 -0.1033529,-0.3266 v -0.75551 h 0.3741374 v 0.57568 q 0,0.0879 0.00517,0.14676 0.0062,0.0579 0.026872,0.0961 0.019637,0.0382 0.058911,0.0558 0.040308,0.0176 0.1116211,0.0176 0.047542,0 0.1054199,-0.0176 0.057878,-0.0176 0.1116211,-0.0517 v -0.82269 h 0.3720703 z"
           style="font-style:normal;font-variant:normal;font-weight:bold;font-stretch:normal;font-size:2.11666656px;font-family:sans-serif;-inkscape-font-specification:'sans-serif Bold';text-align:center;text-anchor:middle;fill:#ffffff;fill-opacity:1;stroke-width:0.07000434"
           id="path22401"
           inkscape:connector-curvature="0" />
        <path
           d="m 8.9715981,286.52296 q -0.059945,0.0155 -0.1271241,0.0238 -0.067179,0.009 -0.164331,0.009 -0.217041,0 -0.3234945,-0.0879 -0.1054199,-0.0879 -0.1054199,-0.30075 V 285.6245 H 8.0982664 v -0.25218 h 0.1529622 v -0.33176 h 0.3720703 v 0.33176 h 0.3482992 v 0.25218 H 8.6232989 v 0.41135 q 0,0.061 0.00103,0.10645 0.00103,0.0455 0.016536,0.0816 0.014469,0.0362 0.050643,0.0579 0.037207,0.0207 0.107487,0.0207 0.028939,0 0.075448,-0.0124 0.047542,-0.0124 0.066146,-0.0227 h 0.031006 z"
           style="font-style:normal;font-variant:normal;font-weight:bold;font-stretch:normal;font-size:2.11666656px;font-family:sans-serif;-inkscape-font-specification:'sans-serif Bold';text-align:center;text-anchor:middle;fill:#ffffff;fill-opacity:1;stroke-width:0.07000434"
           id="path22403"
           inkscape:connector-curvature="0" />
      </g>
    </g>
    <path
       inkscape:connector-curvature="0"
       style="display:inline;fill:#ffffff;fill-opacity:1;stroke-width:0.2916196"
       d="M 1.852941,265 H 8.347059 C 9.096588,265 9.7,265.70085 9.7,266.57143 v 7.85714 C 9.7,275.29915 9.096588,276 8.347059,276 H 1.852941 c -0.749529,0 -1.35294101,-0.70085 -1.35294101,-1.57143 v -7.85714 C 0.49999999,265.70085 1.103412,265 1.852941,265 Z"
       id="rect182-7-4-1-1" />
    <path
       inkscape:connector-curvature="0"
       style="display:inline;fill:#ffffff;fill-opacity:1;stroke-width:0.2916196"
       d="m 1.8529411,198.9667 h 6.4941177 c 0.7495294,0 1.3529413,0.70085 1.3529413,1.57143 v 7.85714 c 0,0.87058 -0.6034119,1.57143 -1.3529413,1.57143 H 1.8529411 c -0.7495293,0 -1.35294119,-0.70085 -1.35294119,-1.57143 v -7.85714 c 0,-0.87058 0.60341189,-1.57143 1.35294119,-1.57143 z"
       id="rect182-7-4-1-84" />
    <rect
       style="display:inline;opacity:1;fill:#ffffff;fill-opacity:1;stroke:none;stroke-width:0.40000001;stroke-linecap:butt;stroke-linejoin:round;stroke-miterlimit:4;stroke-dasharray:none;stroke-dashoffset:0.3023622;stroke-opacity:1;paint-order:markers fill stroke"
       id="rect949-7"
       width="9.1999998"
       height="3"
       x="0.50000006"
       y="208.5" />
    <path
       inkscape:connector-curvature="0"
       style="display:inline;fill:#ffffff;fill-opacity:1;stroke-width:0.2916196"
       d="m 1.852941,210 h 6.4941179 c 0.7495294,0 1.3529413,0.70085 1.3529413,1.57143 v 7.85714 C 9.7000002,220.29915 9.0965883,221 8.3470589,221 H 1.852941 c -0.7495293,0 -1.35294121,-0.70085 -1.35294121,-1.57143 v -7.85714 C 0.49999979,210.70085 1.1034117,210 1.852941,210 Z"
       id="rect182-7-4-1-84-2" />
    <rect
       style="opacity:1;fill:#ffffff;fill-opacity:1;stroke:none;stroke-width:0.40000001;stroke-linecap:butt;stroke-linejoin:round;stroke-miterlimit:4;stroke-dasharray:none;stroke-dashoffset:0.3023622;stroke-opacity:1;paint-order:markers fill stroke"
       id="rect949"
       width="9.1999998"
       height="3"
       x="0.5"
       y="219.5" />
    <path
       inkscape:connector-curvature="0"
       style="display:inline;fill:#ffffff;fill-opacity:1;stroke-width:0.2916196"
       d="m 1.8529409,232 h 6.494118 c 0.7495294,0 1.3529413,0.70085 1.3529413,1.57143 v 7.85714 c 0,0.87058 -0.6034119,1.57143 -1.3529413,1.57143 h -6.494118 c -0.7495292,0 -1.35294111,-0.70085 -1.35294111,-1.57143 v -7.85714 C 0.49999979,232.70085 1.1034117,232 1.8529409,232 Z"
       id="rect182-7-4-1-8-5" />
    <rect
       style="opacity:1;fill:#ffffff;fill-opacity:1;stroke:none;stroke-width:0.40000001;stroke-linecap:butt;stroke-linejoin:round;stroke-miterlimit:4;stroke-dasharray:none;stroke-dashoffset:0.3023622;stroke-opacity:1;paint-order:markers fill stroke"
       id="rect4691"
       width="9.1999998"
       height="3"
       x="0.5"
       y="241.5" />
    <path
       inkscape:connector-curvature="0"
       style="display:inline;fill:#ffffff;fill-opacity:1;stroke-width:0.2916196"
       d="m 1.8529409,254 h 6.4941182 c 0.7495291,0 1.352941,0.70085 1.352941,1.57143 v 7.85714 c 0,0.87058 -0.6034119,1.57143 -1.352941,1.57143 H 1.8529409 c -0.749529,0 -1.35294097,-0.70085 -1.35294097,-1.57143 v -7.85714 C 0.49999993,254.70085 1.1034119,254 1.8529409,254 Z"
       id="rect182-7-4-1-1-3" />
    <g
       aria-label="filtah"
       transform="rotate(90)"
       style="font-style:normal;font-variant:normal;font-weight:normal;font-stretch:normal;font-size:9.8777771px;line-height:1.25;font-family:'Bauhaus 93';-inkscape-font-specification:'Bauhaus 93, ';letter-spacing:0px;word-spacing:0px;fill:#8a6f91;fill-opacity:1;stroke:none;stroke-width:0.26458332"
       id="text4781">
      <path
         d="m 177.04228,-5.4159153 v 1.8906683 h -0.80546 v 1.8520832 h -1.80386 v -4.0851939 q 0,-0.6897081 0.23634,-1.1768446 0.29903,-0.6221842 0.90675,-1.012858 0.61253,-0.3954969 1.2733,-0.3954969 l 0.19293,0.00482 v 1.8906683 q -0.0627,-0.00482 -0.0916,-0.00482 -0.34244,0 -0.53055,0.2266872 -0.18327,0.2266873 -0.18327,0.6462999 v 0.1639865 z"
         style="fill:#8a6f91;fill-opacity:1;stroke-width:0.26458332"
         id="path4783"
         inkscape:connector-curvature="0" />
      <path
         d="m 179.6323,-6.4818277 v 4.8086639 h -1.80385 v -4.8086639 z m -0.8971,-2.1462944 q 0.36656,0 0.63183,0.2604492 0.27009,0.2556261 0.27009,0.6077148 0,0.3762044 -0.25562,0.6173611 -0.2508,0.2411567 -0.6463,0.2411567 -0.3955,0 -0.65112,-0.2411567 -0.25081,-0.2411567 -0.25081,-0.6173611 0,-0.3520887 0.26527,-0.6077148 0.2701,-0.2604492 0.63666,-0.2604492 z"
         style="fill:#8a6f91;fill-opacity:1;stroke-width:0.26458332"
         id="path4785"
         inkscape:connector-curvature="0" />
      <path
         d="m 182.50689,-8.2567408 v 6.583577 h -1.80385 v -6.583577 z"
         style="fill:#8a6f91;fill-opacity:1;stroke-width:0.26458332"
         id="path4787"
         inkscape:connector-curvature="0" />
      <path
         d="m 185.16443,-8.2567408 v 1.8424369 h 0.81029 v 1.9051377 h -0.81029 q 0,0.5739529 0.17846,0.7909939 0.18328,0.217041 0.66559,0.217041 v 1.8954914 q -0.13987,0.00482 -0.20739,0.00482 -0.61254,0 -1.15755,-0.2845648 -0.54019,-0.2845649 -0.86817,-0.7717014 -0.41479,-0.6221842 -0.41479,-1.6495116 v -3.9501462 z"
         style="fill:#8a6f91;fill-opacity:1;stroke-width:0.26458332"
         id="path4789"
         inkscape:connector-curvature="0" />
      <path
         d="m 189.52937,-3.4770156 v 1.8665526 q -0.22186,0.038585 -0.40514,0.038585 -1.08521,0 -1.80868,-0.7138237 -0.72347,-0.7138237 -0.72347,-1.7893825 0,-1.0466199 0.7283,-1.7749131 0.73311,-0.7282931 1.77973,-0.7282931 1.1672,0 1.83762,0.6848849 0.67523,0.6800618 0.67523,1.8617295 v 2.3585122 h -1.80385 v -2.2282876 q 0,-0.3810275 -0.1881,-0.6077148 -0.18328,-0.2266872 -0.49678,-0.2266872 -0.28457,0 -0.49196,0.2073947 -0.2074,0.2073947 -0.2074,0.4919596 0,0.2990343 0.18811,0.4919596 0.1881,0.1929253 0.47749,0.1929253 0.23633,0 0.4389,-0.1254014 z"
         style="fill:#8a6f91;fill-opacity:1;stroke-width:0.26458332"
         id="path4791"
         inkscape:connector-curvature="0" />
      <path
         d="m 194.46826,-8.2567408 v 2.0112466 q 0.4582,-0.3327962 0.91639,-0.3327962 0.69454,0 1.09968,0.5016059 0.40996,0.5016058 0.40996,1.3553005 v 3.0482202 h -1.80385 V -4.214955 q 0,-0.3086806 -0.0675,-0.4147895 -0.0627,-0.1061089 -0.2508,-0.1061089 -0.30386,0 -0.30386,0.4485514 v 2.6141382 h -1.80385 v -6.583577 z"
         style="fill:#8a6f91;fill-opacity:1;stroke-width:0.26458332"
         id="path4793"
         inkscape:connector-curvature="0" />
    </g>
    <g
       aria-label="type"
       style="font-style:normal;font-variant:normal;font-weight:bold;font-stretch:normal;font-size:8.46666622px;line-height:1.25;font-family:'Bauhaus 93';-inkscape-font-specification:'Bauhaus 93 Bold';letter-spacing:0px;word-spacing:0px;display:inline;opacity:1;fill:#8a6f91;fill-opacity:1;stroke:none;stroke-width:0.07000434"
       id="text18831-64-6">
      <path
         d="m 3.4262003,208.02296 q -0.059945,0.0155 -0.127124,0.0238 -0.067179,0.009 -0.164331,0.009 -0.217041,0 -0.3234945,-0.0879 -0.1054199,-0.0879 -0.1054199,-0.30075 V 207.1245 H 2.5528687 v -0.25218 h 0.1529622 v -0.33176 h 0.3720703 v 0.33176 h 0.3482991 v 0.25218 H 3.0779012 v 0.41135 q 0,0.061 0.00103,0.10645 0.00103,0.0455 0.016536,0.0816 0.014469,0.0362 0.050643,0.0579 0.037207,0.0207 0.1074869,0.0207 0.028939,0 0.075448,-0.0124 0.047542,-0.0124 0.066146,-0.0227 h 0.031006 z"
         style="font-style:normal;font-variant:normal;font-weight:bold;font-stretch:normal;font-size:2.11666656px;font-family:sans-serif;-inkscape-font-specification:'sans-serif Bold';text-align:center;text-anchor:middle;fill:#8a6f91;fill-opacity:1;stroke-width:0.07000434"
         id="path22384"
         inkscape:connector-curvature="0" />
      <path
         d="m 4.1713745,207.62298 0.2645833,-0.75034 h 0.3824056 l -0.6449219,1.58647 H 3.7703654 l 0.1839681,-0.43408 -0.451652,-1.15239 h 0.3906738 z"
         style="font-style:normal;font-variant:normal;font-weight:bold;font-stretch:normal;font-size:2.11666656px;font-family:sans-serif;-inkscape-font-specification:'sans-serif Bold';text-align:center;text-anchor:middle;fill:#8a6f91;fill-opacity:1;stroke-width:0.07000434"
         id="path22386"
         inkscape:connector-curvature="0" />
      <path
         d="m 6.2353311,207.43695 q 0,0.14366 -0.044442,0.26148 -0.043408,0.11782 -0.1147217,0.1943 -0.074414,0.0806 -0.1684651,0.12196 -0.094051,0.0413 -0.2015381,0.0413 -0.099219,0 -0.1684652,-0.0217 -0.069246,-0.0207 -0.1415934,-0.0589 v 0.48369 h -0.37207 v -1.58647 h 0.3720703 v 0.12092 q 0.085783,-0.0682 0.1746664,-0.11058 0.089917,-0.0424 0.2067057,-0.0424 0.217041,0 0.3369303,0.15917 0.1209228,0.15916 0.1209228,0.43718 z m -0.3834391,0.007 q 0,-0.1695 -0.057878,-0.24598 -0.057878,-0.0765 -0.1829345,-0.0765 -0.05271,0 -0.1085205,0.0165 -0.055811,0.0155 -0.1064535,0.0455 v 0.58395 q 0.037207,0.0145 0.079582,0.0186 0.042375,0.004 0.083716,0.004 0.1477946,0 0.2201416,-0.0858 0.072347,-0.0868 0.072347,-0.26045 z"
         style="font-style:normal;font-variant:normal;font-weight:bold;font-stretch:normal;font-size:2.11666656px;font-family:sans-serif;-inkscape-font-specification:'sans-serif Bold';text-align:center;text-anchor:middle;fill:#8a6f91;fill-opacity:1;stroke-width:0.07000434"
         id="path22388"
         inkscape:connector-curvature="0" />
      <path
         d="M 7.6471311,207.5217 H 6.7955036 q 0.00827,0.13642 0.1033528,0.20877 0.096118,0.0724 0.2821534,0.0724 0.1178222,0 0.2284098,-0.0424 0.1105875,-0.0424 0.1746663,-0.0909 h 0.041341 v 0.29869 q -0.1260904,0.0507 -0.2377115,0.0734 -0.1116211,0.0227 -0.2470134,0.0227 -0.3493326,0 -0.5353678,-0.1571 -0.1860351,-0.15709 -0.1860351,-0.44751 0,-0.28732 0.1756998,-0.45476 0.1767334,-0.16846 0.4836914,-0.16846 0.2831869,0 0.4258138,0.14366 0.1426269,0.14263 0.1426269,0.41134 z m -0.3700032,-0.21808 q -0.0031,-0.11679 -0.057878,-0.1757 -0.054777,-0.0589 -0.1705322,-0.0589 -0.107487,0 -0.1767334,0.0558 -0.069246,0.0558 -0.077515,0.1788 z"
         style="font-style:normal;font-variant:normal;font-weight:bold;font-stretch:normal;font-size:2.11666656px;font-family:sans-serif;-inkscape-font-specification:'sans-serif Bold';text-align:center;text-anchor:middle;fill:#8a6f91;fill-opacity:1;stroke-width:0.07000434"
         id="path22390"
         inkscape:connector-curvature="0" />
    </g>
    <g
       aria-label="cutoff"
       style="font-style:normal;font-variant:normal;font-weight:bold;font-stretch:normal;font-size:8.46666622px;line-height:1.25;font-family:'Bauhaus 93';-inkscape-font-specification:'Bauhaus 93 Bold';letter-spacing:0px;word-spacing:0px;display:inline;opacity:1;fill:#8a6f91;fill-opacity:1;stroke:none;stroke-width:0.07000434"
       id="text18831-64-6-3">
      <path
         d="m 2.3384117,220.82217 q -0.1519287,0 -0.2780192,-0.0362 -0.1250569,-0.0362 -0.2180745,-0.11162 -0.091984,-0.0755 -0.1426269,-0.19017 -0.050643,-0.11472 -0.050643,-0.26872 0,-0.16226 0.053743,-0.28008 0.054777,-0.11783 0.1519287,-0.19534 0.094051,-0.0734 0.2170411,-0.10749 0.1229899,-0.0341 0.2552815,-0.0341 0.1188558,0 0.2191081,0.0258 0.1002522,0.0258 0.1870686,0.0672 v 0.3173 h -0.05271 q -0.021704,-0.0186 -0.05271,-0.0434 -0.029972,-0.0248 -0.074414,-0.0486 -0.042375,-0.0227 -0.093018,-0.0372 -0.050643,-0.0155 -0.1178223,-0.0155 -0.1488281,0 -0.2294433,0.0951 -0.079582,0.0941 -0.079582,0.25631 0,0.16743 0.081649,0.25425 0.082682,0.0868 0.2335774,0.0868 0.07028,0 0.1260905,-0.0155 0.056844,-0.0165 0.094051,-0.0382 0.03514,-0.0207 0.062012,-0.0434 0.026872,-0.0227 0.049609,-0.0444 h 0.05271 v 0.3173 q -0.08785,0.0413 -0.183968,0.0651 -0.095085,0.0248 -0.2108399,0.0248 z"
         style="font-style:normal;font-variant:normal;font-weight:bold;font-stretch:normal;font-size:2.11666656px;font-family:sans-serif;-inkscape-font-specification:'sans-serif Bold';text-align:center;text-anchor:middle;fill:#8a6f91;fill-opacity:1;stroke-width:0.07000434"
         id="path22371"
         inkscape:connector-curvature="0" />
      <path
         d="M 4.1346844,220.79117 H 3.7626141 v -0.12816 q -0.1033528,0.0785 -0.1891357,0.11989 -0.085783,0.0403 -0.2046387,0.0403 -0.1922363,0 -0.2966227,-0.11059 -0.1033528,-0.11059 -0.1033528,-0.32659 v -0.75551 h 0.3741373 v 0.57567 q 0,0.0879 0.00517,0.14676 0.0062,0.0579 0.026872,0.0961 0.019637,0.0382 0.058911,0.0558 0.040308,0.0176 0.1116211,0.0176 0.047542,0 0.1054199,-0.0176 0.057878,-0.0176 0.1116211,-0.0517 v -0.82268 h 0.3720703 z"
         style="font-style:normal;font-variant:normal;font-weight:bold;font-stretch:normal;font-size:2.11666656px;font-family:sans-serif;-inkscape-font-specification:'sans-serif Bold';text-align:center;text-anchor:middle;fill:#8a6f91;fill-opacity:1;stroke-width:0.07000434"
         id="path22373"
         inkscape:connector-curvature="0" />
      <path
         d="m 5.2291912,220.78083 q -0.059945,0.0155 -0.127124,0.0238 -0.067179,0.009 -0.164331,0.009 -0.217041,0 -0.3234945,-0.0879 -0.1054199,-0.0879 -0.1054199,-0.30076 v -0.5426 H 4.3558596 v -0.25218 h 0.1529622 v -0.33177 h 0.3720703 v 0.33177 h 0.3482991 v 0.25218 H 4.8808921 v 0.41134 q 0,0.061 0.00103,0.10645 0.00103,0.0455 0.016536,0.0816 0.014469,0.0362 0.050643,0.0579 0.037207,0.0207 0.107487,0.0207 0.028939,0 0.075448,-0.0124 0.047542,-0.0124 0.066146,-0.0227 h 0.031006 z"
         style="font-style:normal;font-variant:normal;font-weight:bold;font-stretch:normal;font-size:2.11666656px;font-family:sans-serif;-inkscape-font-specification:'sans-serif Bold';text-align:center;text-anchor:middle;fill:#8a6f91;fill-opacity:1;stroke-width:0.07000434"
         id="path22375"
         inkscape:connector-curvature="0" />
      <path
         d="m 6.6368573,220.21136 q 0,0.28629 -0.1674317,0.45165 -0.1663981,0.16433 -0.4681884,0.16433 -0.3017904,0 -0.469222,-0.16433 -0.1663981,-0.16536 -0.1663981,-0.45165 0,-0.28836 0.1674316,-0.45269 0.1684652,-0.16433 0.4681885,-0.16433 0.3038574,0 0.469222,0.16537 0.1663981,0.16536 0.1663981,0.45165 z m -0.4578532,0.28215 q 0.036173,-0.0444 0.053743,-0.10645 0.018604,-0.0631 0.018604,-0.17363 0,-0.10232 -0.018604,-0.17157 -0.018603,-0.0693 -0.051676,-0.11059 -0.033073,-0.0424 -0.079582,-0.0599 -0.046509,-0.0176 -0.1002523,-0.0176 -0.053744,0 -0.096118,0.0145 -0.041341,0.0145 -0.079582,0.0579 -0.034106,0.0403 -0.054777,0.11059 -0.019637,0.0703 -0.019637,0.17674 0,0.0951 0.01757,0.16536 0.01757,0.0692 0.051676,0.11162 0.033073,0.0403 0.078548,0.0589 0.046509,0.0186 0.1054199,0.0186 0.050643,0 0.096118,-0.0165 0.046509,-0.0176 0.078548,-0.0579 z"
         style="font-style:normal;font-variant:normal;font-weight:bold;font-stretch:normal;font-size:2.11666656px;font-family:sans-serif;-inkscape-font-specification:'sans-serif Bold';text-align:center;text-anchor:middle;fill:#8a6f91;fill-opacity:1;stroke-width:0.07000434"
         id="path22377"
         inkscape:connector-curvature="0" />
      <path
         d="m 7.6579836,219.45585 h -0.027905 q -0.024805,-0.007 -0.065112,-0.0165 -0.039274,-0.009 -0.084749,-0.009 -0.109554,0 -0.1488281,0.0393 -0.03824,0.0393 -0.03824,0.15192 v 0.009 h 0.2873209 v 0.25218 H 7.3055503 v 0.90847 H 6.93348 V 219.8827 H 6.7743166 v -0.25218 H 6.93348 v -0.032 q 0,-0.21291 0.1126546,-0.31936 0.1136882,-0.10646 0.3431315,-0.10646 0.082682,0 0.1498617,0.006 0.067179,0.005 0.1188558,0.0145 z"
         style="font-style:normal;font-variant:normal;font-weight:bold;font-stretch:normal;font-size:2.11666656px;font-family:sans-serif;-inkscape-font-specification:'sans-serif Bold';text-align:center;text-anchor:middle;fill:#8a6f91;fill-opacity:1;stroke-width:0.07000434"
         id="path22379"
         inkscape:connector-curvature="0" />
      <path
         d="m 8.5509522,219.45585 h -0.027905 q -0.024805,-0.007 -0.065112,-0.0165 -0.039274,-0.009 -0.084749,-0.009 -0.109554,0 -0.1488281,0.0393 -0.038241,0.0393 -0.038241,0.15192 v 0.009 h 0.287321 v 0.25218 H 8.198519 v 0.90847 H 7.8264487 V 219.8827 H 7.6672853 v -0.25218 h 0.1591634 v -0.032 q 0,-0.21291 0.1126546,-0.31936 0.1136881,-0.10646 0.3431315,-0.10646 0.082682,0 0.1498616,0.006 0.067179,0.005 0.1188558,0.0145 z"
         style="font-style:normal;font-variant:normal;font-weight:bold;font-stretch:normal;font-size:2.11666656px;font-family:sans-serif;-inkscape-font-specification:'sans-serif Bold';text-align:center;text-anchor:middle;fill:#8a6f91;fill-opacity:1;stroke-width:0.07000434"
         id="path22381"
         inkscape:connector-curvature="0" />
    </g>
    <g
       aria-label="mod"
       style="font-style:normal;font-variant:normal;font-weight:bold;font-stretch:normal;font-size:8.46666622px;line-height:1.25;font-family:'Bauhaus 93';-inkscape-font-specification:'Bauhaus 93 Bold';letter-spacing:0px;word-spacing:0px;display:inline;opacity:1;fill:#8a6f91;fill-opacity:1;stroke:none;stroke-width:0.07000434"
       id="text18831-64-6-37">
      <path
         d="M 3.8225586,230.96331 V 231.786 H 3.4484212 v -0.57981 q 0,-0.0847 -0.00413,-0.14366 -0.00413,-0.06 -0.022738,-0.0972 -0.018603,-0.0372 -0.056844,-0.0537 -0.037207,-0.0176 -0.1054199,-0.0176 -0.054777,0 -0.1064535,0.0227 -0.051676,0.0217 -0.093018,0.0465 V 231.786 H 2.6877442 v -1.16066 h 0.3720703 v 0.12816 q 0.096118,-0.0754 0.1839681,-0.11782 0.08785,-0.0424 0.1943033,-0.0424 0.1147217,0 0.2025716,0.0517 0.08785,0.0506 0.1374593,0.14986 0.1116211,-0.094 0.217041,-0.14779 0.10542,-0.0538 0.2067058,-0.0538 0.1881022,0 0.2852538,0.11266 0.098185,0.11265 0.098185,0.32453 V 231.786 H 4.2111653 v -0.57981 q 0,-0.0858 -0.00413,-0.1447 -0.0031,-0.0589 -0.021704,-0.0961 -0.01757,-0.0372 -0.055811,-0.0537 -0.038241,-0.0176 -0.107487,-0.0176 -0.046509,0 -0.09095,0.0165 -0.044442,0.0155 -0.1085205,0.0527 z"
         style="font-style:normal;font-variant:normal;font-weight:bold;font-stretch:normal;font-size:2.11666656px;font-family:sans-serif;-inkscape-font-specification:'sans-serif Bold';text-align:center;text-anchor:middle;fill:#8a6f91;fill-opacity:1;stroke-width:0.07000434"
         id="path22364"
         inkscape:connector-curvature="0" />
      <path
         d="m 6.114925,231.20619 q 0,0.28628 -0.1674316,0.45165 -0.1663981,0.16433 -0.4681885,0.16433 -0.3017903,0 -0.469222,-0.16433 -0.1663981,-0.16537 -0.1663981,-0.45165 0,-0.28836 0.1674317,-0.45269 0.1684651,-0.16433 0.4681884,-0.16433 0.3038574,0 0.469222,0.16536 0.1663981,0.16537 0.1663981,0.45166 z m -0.4578532,0.28215 q 0.036174,-0.0444 0.053744,-0.10645 0.018604,-0.0631 0.018604,-0.17364 0,-0.10232 -0.018604,-0.17156 -0.018604,-0.0692 -0.051676,-0.11059 -0.033073,-0.0424 -0.079582,-0.0599 -0.046509,-0.0176 -0.1002523,-0.0176 -0.053743,0 -0.096118,0.0145 -0.041341,0.0145 -0.079582,0.0579 -0.034106,0.0403 -0.054777,0.11059 -0.019637,0.0703 -0.019637,0.17673 0,0.0951 0.01757,0.16537 0.01757,0.0692 0.051676,0.11162 0.033073,0.0403 0.078548,0.0589 0.046509,0.0186 0.1054199,0.0186 0.050643,0 0.096118,-0.0165 0.046509,-0.0176 0.078548,-0.0579 z"
         style="font-style:normal;font-variant:normal;font-weight:bold;font-stretch:normal;font-size:2.11666656px;font-family:sans-serif;-inkscape-font-specification:'sans-serif Bold';text-align:center;text-anchor:middle;fill:#8a6f91;fill-opacity:1;stroke-width:0.07000434"
         id="path22366"
         inkscape:connector-curvature="0" />
      <path
         d="M 7.5122557,231.786 H 7.1401854 v -0.12093 q -0.096118,0.0786 -0.179834,0.11576 -0.083716,0.0372 -0.1932698,0.0372 -0.2118734,0 -0.3389974,-0.16329 -0.127124,-0.1633 -0.127124,-0.44029 0,-0.14779 0.042375,-0.26148 0.043408,-0.11472 0.1178222,-0.19637 0.07028,-0.0775 0.1705322,-0.11989 0.1002523,-0.0434 0.2005046,-0.0434 0.1043864,0 0.1705322,0.0227 0.067179,0.0217 0.1374593,0.0558 v -0.49403 H 7.512256 Z m -0.3720703,-0.3204 v -0.56947 q -0.039274,-0.0165 -0.082682,-0.0238 -0.043408,-0.007 -0.079582,-0.007 -0.1467611,0 -0.2201416,0.092 -0.07338,0.0909 -0.07338,0.25321 0,0.17053 0.058911,0.24805 0.058911,0.0765 0.1891357,0.0765 0.050643,0 0.107487,-0.0186 0.056844,-0.0196 0.1002523,-0.0506 z"
         style="font-style:normal;font-variant:normal;font-weight:bold;font-stretch:normal;font-size:2.11666656px;font-family:sans-serif;-inkscape-font-specification:'sans-serif Bold';text-align:center;text-anchor:middle;fill:#8a6f91;fill-opacity:1;stroke-width:0.07000434"
         id="path22368"
         inkscape:connector-curvature="0" />
    </g>
    <g
       aria-label="reso"
       style="font-style:normal;font-variant:normal;font-weight:bold;font-stretch:normal;font-size:8.46666622px;line-height:1.25;font-family:'Bauhaus 93';-inkscape-font-specification:'Bauhaus 93 Bold';letter-spacing:0px;word-spacing:0px;display:inline;opacity:1;fill:#8a6f91;fill-opacity:1;stroke:none;stroke-width:0.07000434"
       id="text18831-64-6-9">
      <path
         d="m 3.4897622,241.77417 h -0.033073 q -0.023771,-0.008 -0.076481,-0.0124 -0.05271,-0.004 -0.08785,-0.004 -0.079582,0 -0.1405599,0.0103 -0.060978,0.0103 -0.1312581,0.0351 v 0.77721 H 2.6484699 v -1.16065 h 0.3720703 v 0.17053 q 0.1229899,-0.10542 0.2139404,-0.13952 0.090951,-0.0351 0.1674317,-0.0351 0.019637,0 0.044442,0.001 0.024805,0.001 0.043408,0.003 z"
         style="font-style:normal;font-variant:normal;font-weight:bold;font-stretch:normal;font-size:2.11666656px;font-family:sans-serif;-inkscape-font-specification:'sans-serif Bold';text-align:center;text-anchor:middle;fill:#8a6f91;fill-opacity:1;stroke-width:0.07000434"
         id="path22355"
         inkscape:connector-curvature="0" />
      <path
         d="M 4.8457518,242.06873 H 3.9941242 q 0.00827,0.13642 0.1033529,0.20877 0.096118,0.0724 0.2821533,0.0724 0.1178222,0 0.2284098,-0.0424 0.1105875,-0.0424 0.1746663,-0.0909 h 0.041341 v 0.29869 q -0.1260905,0.0506 -0.2377116,0.0734 -0.1116211,0.0227 -0.2470133,0.0227 -0.3493327,0 -0.5353679,-0.1571 -0.1860351,-0.15709 -0.1860351,-0.44752 0,-0.28732 0.1756999,-0.45475 0.1767333,-0.16846 0.4836913,-0.16846 0.2831869,0 0.4258138,0.14366 0.142627,0.14262 0.142627,0.41134 z m -0.3700033,-0.21808 q -0.0031,-0.11679 -0.057878,-0.1757 -0.054777,-0.0589 -0.1705322,-0.0589 -0.107487,0 -0.1767334,0.0558 -0.069246,0.0558 -0.077515,0.1788 z"
         style="font-style:normal;font-variant:normal;font-weight:bold;font-stretch:normal;font-size:2.11666656px;font-family:sans-serif;-inkscape-font-specification:'sans-serif Bold';text-align:center;text-anchor:middle;fill:#8a6f91;fill-opacity:1;stroke-width:0.07000434"
         id="path22357"
         inkscape:connector-curvature="0" />
      <path
         d="m 6.1169919,242.21239 q 0,0.17983 -0.1612304,0.29042 -0.1612305,0.10955 -0.4413167,0.10955 -0.1550293,0 -0.2811198,-0.0289 -0.1260905,-0.0289 -0.2025716,-0.0641 v -0.30592 h 0.034106 q 0.027905,0.0196 0.064079,0.0434 0.037207,0.0227 0.1043864,0.0496 0.057878,0.0238 0.1312581,0.0413 0.07338,0.0165 0.1570964,0.0165 0.109554,0 0.1622639,-0.0238 0.05271,-0.0248 0.05271,-0.0723 0,-0.0424 -0.031006,-0.061 -0.031006,-0.0196 -0.1178222,-0.0372 -0.041341,-0.009 -0.1126546,-0.0196 -0.07028,-0.0114 -0.1281576,-0.0269 -0.1581298,-0.0413 -0.234611,-0.12815 -0.076481,-0.0879 -0.076481,-0.21808 0,-0.16743 0.1581299,-0.27802 0.1591634,-0.11162 0.434082,-0.11162 0.1302246,0 0.2490804,0.0269 0.1198893,0.0258 0.1870687,0.0558 v 0.29352 h -0.032039 q -0.082682,-0.0568 -0.1891357,-0.092 -0.10542,-0.0362 -0.2139405,-0.0362 -0.089917,0 -0.1519287,0.0248 -0.060978,0.0248 -0.060978,0.0703 0,0.0413 0.027905,0.0631 0.027905,0.0217 0.1312581,0.0434 0.056844,0.0114 0.1219564,0.0227 0.066146,0.0103 0.1322917,0.0269 0.146761,0.0383 0.217041,0.12093 0.07028,0.0817 0.07028,0.20464 z"
         style="font-style:normal;font-variant:normal;font-weight:bold;font-stretch:normal;font-size:2.11666656px;font-family:sans-serif;-inkscape-font-specification:'sans-serif Bold';text-align:center;text-anchor:middle;fill:#8a6f91;fill-opacity:1;stroke-width:0.07000434"
         id="path22359"
         inkscape:connector-curvature="0" />
      <path
         d="m 7.5515297,242.00051 q 0,0.28629 -0.1674316,0.45165 -0.1663981,0.16434 -0.4681885,0.16434 -0.3017903,0 -0.469222,-0.16434 -0.1663981,-0.16536 -0.1663981,-0.45165 0,-0.28835 0.1674317,-0.45268 0.1684651,-0.16433 0.4681884,-0.16433 0.3038574,0 0.469222,0.16536 0.1663981,0.16537 0.1663981,0.45165 z m -0.4578532,0.28216 q 0.036174,-0.0444 0.053744,-0.10646 0.018603,-0.063 0.018603,-0.17363 0,-0.10232 -0.018603,-0.17157 -0.018604,-0.0692 -0.051676,-0.11058 -0.033073,-0.0424 -0.079582,-0.0599 -0.046509,-0.0176 -0.1002523,-0.0176 -0.053744,0 -0.096118,0.0145 -0.041341,0.0145 -0.079582,0.0579 -0.034107,0.0403 -0.054777,0.11059 -0.019637,0.0703 -0.019637,0.17673 0,0.0951 0.01757,0.16536 0.01757,0.0693 0.051676,0.11163 0.033073,0.0403 0.078548,0.0589 0.046509,0.0186 0.1054199,0.0186 0.050643,0 0.096118,-0.0165 0.046509,-0.0176 0.078548,-0.0579 z"
         style="font-style:normal;font-variant:normal;font-weight:bold;font-stretch:normal;font-size:2.11666656px;font-family:sans-serif;-inkscape-font-specification:'sans-serif Bold';text-align:center;text-anchor:middle;fill:#8a6f91;fill-opacity:1;stroke-width:0.07000434"
         id="path22361"
         inkscape:connector-curvature="0" />
    </g>
    <g
       aria-label="mod"
       style="font-style:normal;font-variant:normal;font-weight:bold;font-stretch:normal;font-size:8.46666622px;line-height:1.25;font-family:'Bauhaus 93';-inkscape-font-specification:'Bauhaus 93 Bold';letter-spacing:0px;word-spacing:0px;display:inline;opacity:1;fill:#8a6f91;fill-opacity:1;stroke:none;stroke-width:0.07000434"
       id="text18831-64-6-1">
      <path
         d="M 3.8225586,252.96331 V 253.786 H 3.4484212 v -0.57981 q 0,-0.0847 -0.00413,-0.14366 -0.00413,-0.06 -0.022738,-0.0972 -0.018603,-0.0372 -0.056844,-0.0537 -0.037207,-0.0176 -0.1054199,-0.0176 -0.054777,0 -0.1064535,0.0227 -0.051676,0.0217 -0.093018,0.0465 V 253.786 H 2.6877442 v -1.16066 h 0.3720703 v 0.12816 q 0.096118,-0.0754 0.1839681,-0.11782 0.08785,-0.0424 0.1943033,-0.0424 0.1147217,0 0.2025716,0.0517 0.08785,0.0506 0.1374593,0.14986 0.1116211,-0.094 0.217041,-0.14779 0.10542,-0.0538 0.2067058,-0.0538 0.1881022,0 0.2852538,0.11266 0.098185,0.11265 0.098185,0.32453 V 253.786 H 4.2111653 v -0.57981 q 0,-0.0858 -0.00413,-0.1447 -0.0031,-0.0589 -0.021704,-0.0961 -0.01757,-0.0372 -0.055811,-0.0537 -0.038241,-0.0176 -0.107487,-0.0176 -0.046509,0 -0.09095,0.0165 -0.044442,0.0155 -0.1085205,0.0527 z"
         style="font-style:normal;font-variant:normal;font-weight:bold;font-stretch:normal;font-size:2.11666656px;font-family:sans-serif;-inkscape-font-specification:'sans-serif Bold';text-align:center;text-anchor:middle;fill:#8a6f91;fill-opacity:1;stroke-width:0.07000434"
         id="path22348"
         inkscape:connector-curvature="0" />
      <path
         d="m 6.114925,253.20619 q 0,0.28628 -0.1674316,0.45165 -0.1663981,0.16433 -0.4681885,0.16433 -0.3017903,0 -0.469222,-0.16433 -0.1663981,-0.16537 -0.1663981,-0.45165 0,-0.28836 0.1674317,-0.45269 0.1684651,-0.16433 0.4681884,-0.16433 0.3038574,0 0.469222,0.16536 0.1663981,0.16537 0.1663981,0.45166 z m -0.4578532,0.28215 q 0.036174,-0.0444 0.053744,-0.10645 0.018604,-0.0631 0.018604,-0.17364 0,-0.10232 -0.018604,-0.17156 -0.018604,-0.0692 -0.051676,-0.11059 -0.033073,-0.0424 -0.079582,-0.0599 -0.046509,-0.0176 -0.1002523,-0.0176 -0.053743,0 -0.096118,0.0145 -0.041341,0.0145 -0.079582,0.0579 -0.034106,0.0403 -0.054777,0.11059 -0.019637,0.0703 -0.019637,0.17673 0,0.0951 0.01757,0.16537 0.01757,0.0692 0.051676,0.11162 0.033073,0.0403 0.078548,0.0589 0.046509,0.0186 0.1054199,0.0186 0.050643,0 0.096118,-0.0165 0.046509,-0.0176 0.078548,-0.0579 z"
         style="font-style:normal;font-variant:normal;font-weight:bold;font-stretch:normal;font-size:2.11666656px;font-family:sans-serif;-inkscape-font-specification:'sans-serif Bold';text-align:center;text-anchor:middle;fill:#8a6f91;fill-opacity:1;stroke-width:0.07000434"
         id="path22350"
         inkscape:connector-curvature="0" />
      <path
         d="M 7.5122557,253.786 H 7.1401854 v -0.12093 q -0.096118,0.0786 -0.179834,0.11576 -0.083716,0.0372 -0.1932698,0.0372 -0.2118734,0 -0.3389974,-0.16329 -0.127124,-0.1633 -0.127124,-0.44029 0,-0.14779 0.042375,-0.26148 0.043408,-0.11472 0.1178222,-0.19637 0.07028,-0.0775 0.1705322,-0.11989 0.1002523,-0.0434 0.2005046,-0.0434 0.1043864,0 0.1705322,0.0227 0.067179,0.0217 0.1374593,0.0558 v -0.49403 H 7.512256 Z m -0.3720703,-0.3204 v -0.56947 q -0.039274,-0.0165 -0.082682,-0.0238 -0.043408,-0.007 -0.079582,-0.007 -0.1467611,0 -0.2201416,0.092 -0.07338,0.0909 -0.07338,0.25321 0,0.17053 0.058911,0.24805 0.058911,0.0765 0.1891357,0.0765 0.050643,0 0.107487,-0.0186 0.056844,-0.0196 0.1002523,-0.0506 z"
         style="font-style:normal;font-variant:normal;font-weight:bold;font-stretch:normal;font-size:2.11666656px;font-family:sans-serif;-inkscape-font-specification:'sans-serif Bold';text-align:center;text-anchor:middle;fill:#8a6f91;fill-opacity:1;stroke-width:0.07000434"
         id="path22352"
         inkscape:connector-curvature="0" />
    </g>
    <g
       aria-label="gain"
       style="font-style:normal;font-variant:normal;font-weight:bold;font-stretch:normal;font-size:8.46666622px;line-height:1.25;font-family:'Bauhaus 93';-inkscape-font-specification:'Bauhaus 93 Bold';letter-spacing:0px;word-spacing:0px;display:inline;opacity:1;fill:#8a6f91;fill-opacity:1;stroke:none;stroke-width:0.07000434"
       id="text18831-64-6-14">
      <path
         d="m 3.8783692,264.45215 q 0,0.1633 -0.046509,0.27492 -0.046509,0.11162 -0.1302246,0.17467 -0.083716,0.0641 -0.2025716,0.092 -0.1178222,0.0289 -0.2666504,0.0289 -0.1209228,0 -0.2387451,-0.0145 -0.1167887,-0.0145 -0.2025716,-0.0351 v -0.29042 h 0.045475 q 0.068213,0.0269 0.1663981,0.0486 0.098185,0.0227 0.1756999,0.0227 0.1033528,0 0.1674316,-0.0196 0.065112,-0.0186 0.099219,-0.0537 0.032039,-0.0331 0.046509,-0.0847 0.014469,-0.0517 0.014469,-0.12403 v -0.0217 q -0.067179,0.0548 -0.1488281,0.0868 -0.081649,0.032 -0.181901,0.032 -0.2439128,0 -0.3762044,-0.14676 -0.1322917,-0.14676 -0.1322917,-0.44648 0,-0.14366 0.040308,-0.24805 0.040308,-0.10439 0.1136882,-0.1819 0.068213,-0.0723 0.1674316,-0.11265 0.1002523,-0.0403 0.2046387,-0.0403 0.094051,0 0.1705322,0.0227 0.077515,0.0217 0.1405599,0.061 l 0.013436,-0.0517 h 0.3607015 z m -0.3720703,-0.23254 v -0.52607 q -0.032039,-0.0134 -0.078548,-0.0207 -0.046509,-0.008 -0.083716,-0.008 -0.146761,0 -0.2201416,0.0848 -0.073381,0.0837 -0.073381,0.23461 0,0.16743 0.062012,0.23357 0.063045,0.0661 0.1860352,0.0661 0.05581,0 0.109554,-0.0176 0.053743,-0.0176 0.098185,-0.0465 z"
         style="font-style:normal;font-variant:normal;font-weight:bold;font-stretch:normal;font-size:2.11666656px;font-family:sans-serif;-inkscape-font-specification:'sans-serif Bold';text-align:center;text-anchor:middle;fill:#8a6f91;fill-opacity:1;stroke-width:0.07000434"
         id="path22339"
         inkscape:connector-curvature="0" />
      <path
         d="m 4.9325683,264.28266 v -0.24185 q -0.075448,0.006 -0.1632975,0.0176 -0.08785,0.0103 -0.1333252,0.0248 -0.055811,0.0176 -0.085783,0.0517 -0.028939,0.0331 -0.028939,0.0879 0,0.0362 0.0062,0.0589 0.0062,0.0227 0.031006,0.0434 0.023771,0.0207 0.056844,0.031 0.033073,0.009 0.1033529,0.009 0.05581,0 0.1126546,-0.0227 0.057878,-0.0227 0.1012858,-0.0599 z m 0,0.17983 q -0.029972,0.0227 -0.074414,0.0548 -0.044442,0.032 -0.083716,0.0506 -0.054777,0.0248 -0.1136881,0.0362 -0.058911,0.0124 -0.1291911,0.0124 -0.1653645,0 -0.2769856,-0.10232 -0.1116211,-0.10232 -0.1116211,-0.26149 0,-0.12712 0.056844,-0.20774 0.056844,-0.0806 0.1612305,-0.12712 0.1033529,-0.0465 0.2563151,-0.0661 0.1529622,-0.0196 0.3172933,-0.0289 v -0.006 q 0,-0.0961 -0.078548,-0.13229 -0.078548,-0.0372 -0.2315104,-0.0372 -0.091984,0 -0.1963704,0.0331 -0.1043864,0.032 -0.1498617,0.0496 h -0.034106 v -0.28009 q 0.058911,-0.0155 0.1912028,-0.0362 0.1333252,-0.0217 0.2666503,-0.0217 0.3172933,0 0.4578532,0.0982 0.1415934,0.0971 0.1415934,0.30592 v 0.78962 H 4.9325683 Z"
         style="font-style:normal;font-variant:normal;font-weight:bold;font-stretch:normal;font-size:2.11666656px;font-family:sans-serif;-inkscape-font-specification:'sans-serif Bold';text-align:center;text-anchor:middle;fill:#8a6f91;fill-opacity:1;stroke-width:0.07000434"
         id="path22341"
         inkscape:connector-curvature="0" />
      <path
         d="M 6.0157062,264.58548 H 5.6436359 v -1.16065 h 0.3720703 z m 0.010335,-1.32602 H 5.6333006 v -0.28215 h 0.3927409 z"
         style="font-style:normal;font-variant:normal;font-weight:bold;font-stretch:normal;font-size:2.11666656px;font-family:sans-serif;-inkscape-font-specification:'sans-serif Bold';text-align:center;text-anchor:middle;fill:#8a6f91;fill-opacity:1;stroke-width:0.07000434"
         id="path22343"
         inkscape:connector-curvature="0" />
      <path
         d="M 7.5329263,264.58548 H 7.158789 v -0.57568 q 0,-0.0703 -0.00723,-0.13952 -0.00723,-0.0703 -0.024805,-0.10335 -0.020671,-0.0383 -0.060978,-0.0558 -0.039274,-0.0176 -0.1105875,-0.0176 -0.050643,0 -0.1033529,0.0165 -0.051676,0.0165 -0.1126546,0.0527 v 0.82269 H 6.3671061 v -1.16065 h 0.3720703 v 0.12815 q 0.099219,-0.0775 0.1901692,-0.11885 0.091984,-0.0413 0.2036052,-0.0413 0.1881022,0 0.2935221,0.10955 0.1064534,0.10956 0.1064534,0.32763 z"
         style="font-style:normal;font-variant:normal;font-weight:bold;font-stretch:normal;font-size:2.11666656px;font-family:sans-serif;-inkscape-font-specification:'sans-serif Bold';text-align:center;text-anchor:middle;fill:#8a6f91;fill-opacity:1;stroke-width:0.07000434"
         id="path22345"
         inkscape:connector-curvature="0" />
    </g>
    <g
       aria-label="input"
       style="font-style:normal;font-variant:normal;font-weight:bold;font-stretch:normal;font-size:8.46666622px;line-height:1.25;font-family:'Bauhaus 93';-inkscape-font-specification:'Bauhaus 93 Bold';letter-spacing:0px;word-spacing:0px;display:inline;opacity:1;fill:#8a6f91;fill-opacity:1;stroke:none;stroke-width:0.07000434"
       id="text18831-64-6-8">
      <path
         d="M 2.4955079,275.59119 H 2.1234376 v -1.16066 h 0.3720703 z m 0.010335,-1.32602 H 2.1131023 v -0.28215 h 0.3927409 z"
         style="font-style:normal;font-variant:normal;font-weight:bold;font-stretch:normal;font-size:2.11666656px;font-family:sans-serif;-inkscape-font-specification:'sans-serif Bold';text-align:center;text-anchor:middle;fill:#8a6f91;fill-opacity:1;stroke-width:0.07000434"
         id="path22328"
         inkscape:connector-curvature="0" />
      <path
         d="M 4.0127279,275.59119 H 3.6385905 v -0.57568 q 0,-0.0703 -0.00723,-0.13953 -0.00723,-0.0703 -0.024805,-0.10335 -0.020671,-0.0382 -0.060978,-0.0558 -0.039274,-0.0176 -0.1105875,-0.0176 -0.050643,0 -0.1033529,0.0165 -0.051676,0.0165 -0.1126546,0.0527 v 0.82269 H 2.8469076 v -1.16066 h 0.3720703 v 0.12816 q 0.099219,-0.0775 0.1901693,-0.11885 0.091984,-0.0414 0.2036051,-0.0414 0.1881022,0 0.2935221,0.10956 0.1064535,0.10955 0.1064535,0.32763 z"
         style="font-style:normal;font-variant:normal;font-weight:bold;font-stretch:normal;font-size:2.11666656px;font-family:sans-serif;-inkscape-font-specification:'sans-serif Bold';text-align:center;text-anchor:middle;fill:#8a6f91;fill-opacity:1;stroke-width:0.07000434"
         id="path22330"
         inkscape:connector-curvature="0" />
      <path
         d="m 5.567155,274.99484 q 0,0.14366 -0.044442,0.26148 -0.043408,0.11783 -0.1147216,0.19431 -0.074414,0.0806 -0.1684652,0.12195 -0.094051,0.0413 -0.2015381,0.0413 -0.099219,0 -0.1684651,-0.0217 -0.069246,-0.0207 -0.1415934,-0.0589 V 276.017 H 4.3558595 v -1.58647 h 0.3720703 v 0.12093 q 0.085783,-0.0682 0.1746663,-0.11059 0.089917,-0.0424 0.2067057,-0.0424 0.217041,0 0.3369303,0.15917 0.1209229,0.15916 0.1209229,0.43718 z m -0.3834391,0.007 q 0,-0.1695 -0.057878,-0.24598 -0.057878,-0.0765 -0.1829346,-0.0765 -0.05271,0 -0.1085205,0.0165 -0.055811,0.0155 -0.1064534,0.0455 v 0.58394 q 0.037207,0.0145 0.079582,0.0186 0.042375,0.004 0.083716,0.004 0.1477946,0 0.2201416,-0.0858 0.072347,-0.0868 0.072347,-0.26044 z"
         style="font-style:normal;font-variant:normal;font-weight:bold;font-stretch:normal;font-size:2.11666656px;font-family:sans-serif;-inkscape-font-specification:'sans-serif Bold';text-align:center;text-anchor:middle;fill:#8a6f91;fill-opacity:1;stroke-width:0.07000434"
         id="path22332"
         inkscape:connector-curvature="0" />
      <path
         d="M 6.9923909,275.59119 H 6.6203206 v -0.12816 q -0.1033529,0.0786 -0.1891358,0.11989 -0.085783,0.0403 -0.2046386,0.0403 -0.1922364,0 -0.2966227,-0.11059 -0.1033529,-0.11059 -0.1033529,-0.3266 v -0.75551 H 6.200708 v 0.57568 q 0,0.0879 0.00517,0.14676 0.0062,0.0579 0.026872,0.0961 0.019637,0.0382 0.058911,0.0558 0.040308,0.0176 0.1116211,0.0176 0.047542,0 0.1054199,-0.0176 0.057878,-0.0176 0.1116211,-0.0517 v -0.82269 h 0.3720703 z"
         style="font-style:normal;font-variant:normal;font-weight:bold;font-stretch:normal;font-size:2.11666656px;font-family:sans-serif;-inkscape-font-specification:'sans-serif Bold';text-align:center;text-anchor:middle;fill:#8a6f91;fill-opacity:1;stroke-width:0.07000434"
         id="path22334"
         inkscape:connector-curvature="0" />
      <path
         d="m 8.0868976,275.58085 q -0.059945,0.0155 -0.1271241,0.0238 -0.067179,0.009 -0.164331,0.009 -0.217041,0 -0.3234945,-0.0879 -0.1054199,-0.0879 -0.1054199,-0.30075 v -0.54261 H 7.2135659 v -0.25218 h 0.1529622 v -0.33176 h 0.3720703 v 0.33176 h 0.3482992 v 0.25218 H 7.7385984 v 0.41135 q 0,0.061 0.00103,0.10645 0.00103,0.0455 0.016536,0.0816 0.014469,0.0362 0.050643,0.0579 0.037207,0.0207 0.107487,0.0207 0.028939,0 0.075448,-0.0124 0.047542,-0.0124 0.066146,-0.0227 h 0.031006 z"
         style="font-style:normal;font-variant:normal;font-weight:bold;font-stretch:normal;font-size:2.11666656px;font-family:sans-serif;-inkscape-font-specification:'sans-serif Bold';text-align:center;text-anchor:middle;fill:#8a6f91;fill-opacity:1;stroke-width:0.07000434"
         id="path22336"
         inkscape:connector-curvature="0" />
    </g>
  </g>
  <g
     inkscape:groupmode="layer"
     id="layer2"
     inkscape:label="components"
     style="display:none">
    <circle
       cy="101"
       cx="5.0999999"
       id="circle164-0"
       style="display:inline;fill:#00ff00;stroke-width:0.24907795"
       inkscape:label="_b"
       r="4.25" />
    <circle
       transform="translate(0,-168.5)"
       style="display:inline;fill:#0000ff;stroke-width:0.24907796"
       id="circle166"
       cx="5.0999999"
       cy="280.5"
       inkscape:label="_mix"
       r="4.25" />
    <circle
       style="display:inline;fill:#ff0000;stroke-width:0.24907795"
       id="path162"
       cx="5.0999999"
       cy="57"
       inkscape:label="_knob"
       r="4.25" />
    <circle
       cy="90"
       cx="5.0999999"
       id="circle164-0-1"
       style="display:inline;fill:#00ff00;stroke-width:0.24907795"
       inkscape:label="_a"
       r="4.25" />
  </g>
</svg>
