<?xml version="1.0" encoding="UTF-8" standalone="no"?>
<!-- Created with Inkscape (http://www.inkscape.org/) -->

<svg
   xmlns:dc="http://purl.org/dc/elements/1.1/"
   xmlns:cc="http://creativecommons.org/ns#"
   xmlns:rdf="http://www.w3.org/1999/02/22-rdf-syntax-ns#"
   xmlns:svg="http://www.w3.org/2000/svg"
   xmlns="http://www.w3.org/2000/svg"
   xmlns:sodipodi="http://sodipodi.sourceforge.net/DTD/sodipodi-0.dtd"
   xmlns:inkscape="http://www.inkscape.org/namespaces/inkscape"
   width="10.16mm"
   height="128.5mm"
   viewBox="0 0 10.16 128.5"
   version="1.1"
   id="svg8"
   inkscape:version="0.92.3 (2405546, 2018-03-11)"
   sodipodi:docname="Holdah.svg">
  <defs
     id="defs2" />
  <sodipodi:namedview
     id="base"
     pagecolor="#ffffff"
     bordercolor="#666666"
     borderopacity="1.0"
     inkscape:pageopacity="0"
     inkscape:pageshadow="2"
     inkscape:zoom="7.919596"
     inkscape:cx="50.78518"
     inkscape:cy="24.044872"
     inkscape:document-units="mm"
     inkscape:current-layer="layer1"
     showgrid="true"
     inkscape:window-width="1920"
     inkscape:window-height="1027"
     inkscape:window-x="-8"
     inkscape:window-y="22"
     inkscape:window-maximized="1"
     inkscape:pagecheckerboard="true"
     inkscape:snap-to-guides="true"
     showguides="true"
     inkscape:guide-bbox="true"
     inkscape:snap-page="true"
     inkscape:snap-bbox="true"
     inkscape:snap-bbox-edge-midpoints="false"
     inkscape:snap-bbox-midpoints="true"
     inkscape:snap-object-midpoints="true"
     inkscape:snap-others="false"
     inkscape:object-nodes="false"
     inkscape:snap-nodes="true"
     inkscape:measure-start="-12.2321,122.857"
     inkscape:measure-end="-11.6964,83.125"
     inkscape:bbox-paths="false"
     inkscape:showpageshadow="false">
    <inkscape:grid
       type="xygrid"
       id="grid5221"
       units="mm"
       originx="0"
       originy="0"
       spacingx="0.1"
       spacingy="0.1"
       enabled="true"
       visible="true" />
    <sodipodi:guide
       position="5.1000002,27.000001"
       orientation="1,0"
       id="guide5243"
       inkscape:locked="false" />
    <sodipodi:guide
       position="0.50000004,53.750004"
       orientation="1,0"
       id="guide5245"
       inkscape:locked="false" />
    <sodipodi:guide
       position="9.7000004,27.100001"
       orientation="1,0"
       id="guide5247"
       inkscape:locked="false" />
    <sodipodi:guide
       position="7.5000003,122.5"
       orientation="0,1"
       id="guide5258"
       inkscape:locked="false" />
    <sodipodi:guide
       position="15.000001,87.000004"
       orientation="0,1"
       id="guide921"
       inkscape:locked="false" />
    <sodipodi:guide
       position="14.000001,32.000001"
       orientation="0,1"
       id="guide927"
       inkscape:locked="false" />
    <sodipodi:guide
       position="12.500001,43.000002"
       orientation="0,1"
       id="guide931"
       inkscape:locked="false" />
    <sodipodi:guide
       position="10.500001,21"
       orientation="0,1"
       id="guide1035"
       inkscape:locked="false" />
    <sodipodi:guide
       position="10.500001,10"
       orientation="0,1"
       id="guide1037"
       inkscape:locked="false" />
    <sodipodi:guide
       position="14.500001,54.000001"
       orientation="0,1"
       id="guide1105"
       inkscape:locked="false" />
    <sodipodi:guide
       position="14.500001,65.000001"
       orientation="0,1"
       id="guide1107"
       inkscape:locked="false" />
    <sodipodi:guide
       position="14.000001,76.000002"
       orientation="0,1"
       id="guide1109"
       inkscape:locked="false" />
  </sodipodi:namedview>
  <metadata
     id="metadata5">
    <rdf:RDF>
      <cc:Work
         rdf:about="">
        <dc:format>image/svg+xml</dc:format>
        <dc:type
           rdf:resource="http://purl.org/dc/dcmitype/StillImage" />
        <dc:title />
      </cc:Work>
    </rdf:RDF>
  </metadata>
  <g
     inkscape:label="Layer 1"
     inkscape:groupmode="layer"
     id="layer1"
     transform="translate(0,-168.5)"
     style="display:inline">
    <path
       inkscape:connector-curvature="0"
       style="fill:#2ca05a;fill-opacity:1;stroke-width:0.2916196"
       d="M 1.8529411,276 H 8.3470588 C 9.0965881,276 9.7,276.70085 9.7,277.57143 v 7.85714 C 9.7,286.29915 9.0965881,287 8.3470588,287 H 1.8529411 c -0.7495293,0 -1.35294112,-0.70085 -1.35294112,-1.57143 v -7.85714 C 0.49999998,276.70085 1.1034118,276 1.8529411,276 Z"
       id="rect182" />
    <path
       inkscape:connector-curvature="0"
       style="fill:#ffffff;fill-opacity:1;stroke-width:0.2916196"
       d="M 1.8529411,265 H 8.3470588 C 9.0965881,265 9.7,265.70085 9.7,266.57143 v 7.85714 C 9.7,275.29915 9.0965881,276 8.3470588,276 H 1.8529411 C 1.1034118,276 0.5,275.29915 0.5,274.42857 v -7.85714 C 0.5,265.70085 1.1034118,265 1.8529411,265 Z"
       id="rect182-7" />
    <g
       style="display:inline"
       id="g1583"
       transform="translate(0,-5.2916669)">
      <rect
         y="293.75"
         x="2.5999999"
         height="2.5"
         width="5"
         id="rect1572"
         style="opacity:1;fill:#ffffff;fill-opacity:1;stroke:#8c8c8c;stroke-width:0.02;stroke-linecap:butt;stroke-linejoin:round;stroke-miterlimit:4;stroke-dasharray:none;stroke-opacity:1;paint-order:markers fill stroke" />
      <g
         id="text1570"
         style="font-style:normal;font-variant:normal;font-weight:normal;font-stretch:normal;font-size:2.82222223px;line-height:1.25;font-family:'Bauhaus 93';-inkscape-font-specification:'Bauhaus 93, ';letter-spacing:0px;word-spacing:0px;fill:#000000;fill-opacity:1;stroke:none;stroke-width:0.26458332"
         aria-label="mm">
        <path
           inkscape:connector-curvature="0"
           id="path1574"
           style="stroke-width:0.26458332"
           d="M 4.9484157,295.70074 H 4.4330294 v -0.74138 q 0,-0.0854 -0.017914,-0.11851 -0.017914,-0.0331 -0.064768,-0.0331 -0.086816,0 -0.086816,0.15296 v 0.74 h -0.515387 v -0.74138 q 0,-0.0854 -0.019293,-0.11851 -0.017914,-0.0331 -0.064768,-0.0331 -0.085438,0 -0.085438,0.15296 v 0.74 h -0.515386 v -0.84611 q 0,-0.23151 0.1557184,-0.39274 0.1557183,-0.16261 0.3775824,-0.16261 0.2287544,0 0.4106554,0.19293 0.2025716,-0.19293 0.4051432,-0.19293 0.2576932,0 0.4134115,0.18741 0.1226454,0.14608 0.1226454,0.42582 z" />
        <path
           inkscape:connector-curvature="0"
           id="path1576"
           style="stroke-width:0.26458332"
           d="M 7.1367404,295.70074 H 6.6213541 v -0.74138 q 0,-0.0854 -0.017914,-0.11851 -0.017914,-0.0331 -0.064768,-0.0331 -0.086816,0 -0.086816,0.15296 v 0.74 h -0.515387 v -0.74138 q 0,-0.0854 -0.019292,-0.11851 -0.017915,-0.0331 -0.064768,-0.0331 -0.085438,0 -0.085438,0.15296 v 0.74 h -0.515387 v -0.84611 q 0,-0.23151 0.1557183,-0.39274 0.1557184,-0.16261 0.3775825,-0.16261 0.2287544,0 0.4106554,0.19293 0.2025716,-0.19293 0.4051432,-0.19293 0.2576932,0 0.4134115,0.18741 0.1226454,0.14608 0.1226454,0.42582 z" />
      </g>
    </g>
    <path
       inkscape:connector-curvature="0"
       style="display:inline;fill:#ffffff;fill-opacity:1;stroke-width:0.2916196"
       d="M 1.8529411,254 H 8.3470588 C 9.0965881,254 9.7,254.70085 9.7,255.57143 v 7.85714 C 9.7,264.29915 9.0965881,265 8.3470588,265 H 1.8529411 c -0.7495293,0 -1.35294112,-0.70085 -1.35294112,-1.57143 v -7.85714 C 0.49999998,254.70085 1.1034118,254 1.8529411,254 Z"
       id="rect182-7-2-7" />
    <path
       inkscape:connector-curvature="0"
       style="display:inline;fill:#2ca05a;fill-opacity:1;stroke-width:0.2916196"
       d="m 1.852941,243 h 6.4941178 c 0.7495294,0 1.3529413,0.70085 1.3529413,1.57143 v 7.85714 C 9.7000001,253.29915 9.0965882,254 8.3470588,254 H 1.852941 c -0.7495292,0 -1.35294109,-0.70085 -1.35294109,-1.57143 v -7.85714 C 0.49999991,243.70085 1.1034118,243 1.852941,243 Z"
       id="rect182-9" />
    <path
       inkscape:connector-curvature="0"
       style="display:inline;fill:#ffffff;fill-opacity:1;stroke-width:0.2916196"
       d="m 1.852941,232 h 6.4941178 c 0.7495294,0 1.3529413,0.70085 1.3529413,1.57143 v 7.85714 C 9.7000001,242.29915 9.0965882,243 8.3470588,243 H 1.852941 c -0.7495292,0 -1.35294107,-0.70085 -1.35294107,-1.57143 v -7.85714 C 0.49999993,232.70085 1.1034118,232 1.852941,232 Z"
       id="rect182-7-3" />
    <path
       inkscape:connector-curvature="0"
       style="display:inline;fill:#ffffff;fill-opacity:1;stroke-width:0.2916196"
       d="m 1.852941,221 h 6.4941178 c 0.7495294,0 1.3529413,0.70085 1.3529413,1.57143 v 7.85714 C 9.7000001,231.29915 9.0965882,232 8.3470588,232 H 1.852941 c -0.7495292,0 -1.35294109,-0.70085 -1.35294109,-1.57143 v -7.85714 C 0.49999991,221.70085 1.1034118,221 1.852941,221 Z"
       id="rect182-7-2-7-3" />
    <g
       aria-label="holdah"
       transform="rotate(90)"
       style="font-style:normal;font-variant:normal;font-weight:normal;font-stretch:normal;font-size:8.46666622px;line-height:1.25;font-family:'Bauhaus 93';-inkscape-font-specification:'Bauhaus 93, ';letter-spacing:0px;word-spacing:0px;fill:#2ca05a;fill-opacity:1;stroke:none;stroke-width:0.26458332"
       id="text1018">
      <path
         d="m 175.94331,-7.9649412 v 1.7239257 q 0.39274,-0.2852539 0.78548,-0.2852539 0.59531,0 0.94258,0.4299479 0.3514,0.4299479 0.3514,1.1616861 v 2.6127603 h -1.54616 v -2.1786783 q 0,-0.2645833 -0.0579,-0.3555338 -0.0537,-0.09095 -0.21497,-0.09095 -0.26045,0 -0.26045,0.3844726 v 2.24069 h -1.54616 v -5.6430661 z"
         style="fill:#2ca05a;fill-opacity:1;stroke-width:0.26458332"
         id="path1020"
         inkscape:connector-curvature="0" />
      <path
         d="m 180.88358,-6.5304035 q 0.87643,0 1.50068,0.6325195 0.62839,0.6283854 0.62839,1.5089517 0,0.8929687 -0.63666,1.5213541 -0.63252,0.6283854 -1.52962,0.6283854 -0.8971,0 -1.53376,-0.6283854 -0.63665,-0.6325195 -0.63665,-1.5213541 0,-0.905371 0.63665,-1.5213541 0.63666,-0.6201171 1.57097,-0.6201171 z m -0.0413,1.5254882 q -0.24805,0 -0.42168,0.181901 -0.17364,0.1777669 -0.17364,0.4382161 0,0.2563151 0.17364,0.4382162 0.17776,0.181901 0.42168,0.181901 0.24804,0 0.42168,-0.181901 0.17776,-0.1819011 0.17776,-0.4382162 0,-0.2604492 -0.17363,-0.4382161 -0.17363,-0.181901 -0.42581,-0.181901 z"
         style="fill:#2ca05a;fill-opacity:1;stroke-width:0.26458332"
         id="path1022"
         inkscape:connector-curvature="0" />
      <path
         d="m 185.20373,-7.9649412 v 5.6430661 h -1.54616 v -5.6430661 z"
         style="fill:#2ca05a;fill-opacity:1;stroke-width:0.26458332"
         id="path1024"
         inkscape:connector-curvature="0" />
      <path
         d="m 188.64331,-7.9649412 h 1.54616 v 3.435449 q 0,0.9467122 -0.4961,1.5420247 -0.28525,0.3431315 -0.7276,0.5457031 -0.43822,0.2025716 -0.90124,0.2025716 -0.9219,0 -1.55442,-0.6201172 -0.63252,-0.6201171 -0.63252,-1.521354 0,-0.8722982 0.62838,-1.5089518 0.62839,-0.6366536 1.48828,-0.6366536 0.13643,0 0.41341,0.024805 v 1.7032551 q -0.19016,-0.1488281 -0.38033,-0.1488281 -0.23978,0 -0.41342,0.1777669 -0.16949,0.1736328 -0.16949,0.4216797 0,0.2397786 0.17776,0.4134114 0.17777,0.1694987 0.42582,0.1694987 0.59531,0 0.59531,-0.8226888 z"
         style="fill:#2ca05a;fill-opacity:1;stroke-width:0.26458332"
         id="path1026"
         inkscape:connector-curvature="0" />
      <path
         d="m 193.29005,-3.8680339 v 1.5999023 q -0.19016,0.033073 -0.34726,0.033073 -0.93018,0 -1.55029,-0.6118489 -0.62012,-0.6118489 -0.62012,-1.5337564 0,-0.8971029 0.62425,-1.5213541 0.62839,-0.6242513 1.52549,-0.6242513 1.00045,0 1.5751,0.5870442 0.57877,0.5829102 0.57877,1.5957682 v 2.0215819 h -1.54616 v -1.9099608 q 0,-0.3265951 -0.16123,-0.5208984 -0.15709,-0.1943034 -0.42581,-0.1943034 -0.24391,0 -0.42168,0.1777669 -0.17777,0.1777669 -0.17777,0.4216797 0,0.2563151 0.16123,0.4216796 0.16123,0.1653646 0.40928,0.1653646 0.20257,0 0.3762,-0.1074871 z"
         style="fill:#2ca05a;fill-opacity:1;stroke-width:0.26458332"
         id="path1028"
         inkscape:connector-curvature="0" />
      <path
         d="m 197.52339,-7.9649412 v 1.7239257 q 0.39274,-0.2852539 0.78548,-0.2852539 0.59531,0 0.94258,0.4299479 0.3514,0.4299479 0.3514,1.1616861 v 2.6127603 h -1.54616 v -2.1786783 q 0,-0.2645833 -0.0579,-0.3555338 -0.0537,-0.09095 -0.21497,-0.09095 -0.26045,0 -0.26045,0.3844726 v 2.24069 h -1.54616 v -5.6430661 z"
         style="fill:#2ca05a;fill-opacity:1;stroke-width:0.26458332"
         id="path1030"
         inkscape:connector-curvature="0" />
    </g>
    <g
       aria-label="trigger"
       style="font-style:normal;font-variant:normal;font-weight:bold;font-stretch:normal;font-size:8.46666622px;line-height:1.25;font-family:'Bauhaus 93';-inkscape-font-specification:'Bauhaus 93 Bold';letter-spacing:0px;word-spacing:0px;display:inline;opacity:1;fill:#2ca05a;fill-opacity:1;stroke:none;stroke-width:0.07000434"
       id="text18831-64-6">
      <path
         d="m 1.9337851,231.57516 q -0.059945,0.0155 -0.127124,0.0238 -0.067179,0.009 -0.164331,0.009 -0.217041,0 -0.3234945,-0.0879 -0.1054199,-0.0878 -0.1054199,-0.30075 V 230.6767 H 1.0604535 v -0.25218 h 0.1529622 v -0.33176 H 1.585486 v 0.33176 h 0.3482991 v 0.25218 H 1.585486 v 0.41135 q 0,0.061 0.00103,0.10645 0.00103,0.0455 0.016536,0.0816 0.014469,0.0362 0.050643,0.0579 0.037207,0.0207 0.107487,0.0207 0.028939,0 0.075447,-0.0124 0.047542,-0.0124 0.066146,-0.0227 h 0.031006 z"
         style="font-style:normal;font-variant:normal;font-weight:bold;font-stretch:normal;font-size:2.11666656px;font-family:sans-serif;-inkscape-font-specification:'sans-serif Bold';text-align:center;text-anchor:middle;fill:#2ca05a;fill-opacity:1;stroke-width:0.07000434"
         id="path23244"
         inkscape:connector-curvature="0" />
      <path
         d="m 2.9962525,230.77934 h -0.033073 q -0.023771,-0.008 -0.076481,-0.0124 -0.05271,-0.004 -0.08785,-0.004 -0.079582,0 -0.1405599,0.0103 -0.060978,0.0103 -0.1312581,0.0351 v 0.77721 H 2.1549603 v -1.16065 h 0.3720703 v 0.17053 q 0.1229899,-0.10542 0.2139404,-0.13952 0.09095,-0.0351 0.1674316,-0.0351 0.019637,0 0.044442,0.001 0.024805,0.001 0.043408,0.003 z"
         style="font-style:normal;font-variant:normal;font-weight:bold;font-stretch:normal;font-size:2.11666656px;font-family:sans-serif;-inkscape-font-specification:'sans-serif Bold';text-align:center;text-anchor:middle;fill:#2ca05a;fill-opacity:1;stroke-width:0.07000434"
         id="path23246"
         inkscape:connector-curvature="0" />
      <path
         d="M 3.5812298,231.58549 H 3.2091595 v -1.16065 h 0.3720703 z m 0.010335,-1.32601 H 3.1988243 v -0.28216 h 0.3927408 z"
         style="font-style:normal;font-variant:normal;font-weight:bold;font-stretch:normal;font-size:2.11666656px;font-family:sans-serif;-inkscape-font-specification:'sans-serif Bold';text-align:center;text-anchor:middle;fill:#2ca05a;fill-opacity:1;stroke-width:0.07000434"
         id="path23248"
         inkscape:connector-curvature="0" />
      <path
         d="m 5.0612427,231.45217 q 0,0.1633 -0.046509,0.27492 -0.046509,0.11162 -0.1302246,0.17466 -0.083716,0.0641 -0.2025717,0.092 -0.1178222,0.0289 -0.2666503,0.0289 -0.1209229,0 -0.2387451,-0.0145 -0.1167888,-0.0145 -0.2025716,-0.0351 v -0.29042 h 0.045475 q 0.068213,0.0269 0.1663981,0.0486 0.098185,0.0227 0.1756999,0.0227 0.1033528,0 0.1674316,-0.0196 0.065112,-0.0186 0.099219,-0.0537 0.032039,-0.0331 0.046509,-0.0847 0.014469,-0.0517 0.014469,-0.12402 v -0.0217 q -0.067179,0.0548 -0.1488281,0.0868 -0.081649,0.032 -0.181901,0.032 -0.2439127,0 -0.3762044,-0.14676 -0.1322917,-0.14676 -0.1322917,-0.44649 0,-0.14366 0.040308,-0.24804 0.040308,-0.10439 0.1136882,-0.1819 0.068213,-0.0724 0.1674316,-0.11266 0.1002523,-0.0403 0.2046387,-0.0403 0.094051,0 0.1705322,0.0227 0.077515,0.0217 0.1405599,0.061 l 0.013436,-0.0517 h 0.3607014 z m -0.3720703,-0.23254 v -0.52607 q -0.032039,-0.0134 -0.078548,-0.0207 -0.046509,-0.008 -0.083716,-0.008 -0.1467611,0 -0.2201416,0.0847 -0.073381,0.0837 -0.073381,0.23461 0,0.16743 0.062012,0.23358 0.063045,0.0661 0.1860351,0.0661 0.055811,0 0.109554,-0.0176 0.053744,-0.0176 0.098185,-0.0465 z"
         style="font-style:normal;font-variant:normal;font-weight:bold;font-stretch:normal;font-size:2.11666656px;font-family:sans-serif;-inkscape-font-specification:'sans-serif Bold';text-align:center;text-anchor:middle;fill:#2ca05a;fill-opacity:1;stroke-width:0.07000434"
         id="path23250"
         inkscape:connector-curvature="0" />
      <path
         d="m 6.5412559,231.45217 q 0,0.1633 -0.046509,0.27492 -0.046509,0.11162 -0.1302246,0.17466 -0.083716,0.0641 -0.2025716,0.092 -0.1178223,0.0289 -0.2666504,0.0289 -0.1209228,0 -0.2387451,-0.0145 -0.1167887,-0.0145 -0.2025716,-0.0351 v -0.29042 h 0.045475 q 0.068213,0.0269 0.1663981,0.0486 0.098185,0.0227 0.1756998,0.0227 0.1033529,0 0.1674316,-0.0196 0.065112,-0.0186 0.099219,-0.0537 0.032039,-0.0331 0.046509,-0.0847 0.014469,-0.0517 0.014469,-0.12402 v -0.0217 q -0.067179,0.0548 -0.1488281,0.0868 -0.081649,0.032 -0.1819011,0.032 -0.2439127,0 -0.3762044,-0.14676 -0.1322916,-0.14676 -0.1322916,-0.44649 0,-0.14366 0.040308,-0.24804 0.040308,-0.10439 0.1136881,-0.1819 0.068213,-0.0724 0.1674317,-0.11266 0.1002522,-0.0403 0.2046386,-0.0403 0.094051,0 0.1705322,0.0227 0.077515,0.0217 0.1405599,0.061 l 0.013436,-0.0517 h 0.3607015 z m -0.3720703,-0.23254 v -0.52607 q -0.032039,-0.0134 -0.078548,-0.0207 -0.046509,-0.008 -0.083716,-0.008 -0.1467611,0 -0.2201416,0.0847 -0.07338,0.0837 -0.07338,0.23461 0,0.16743 0.062012,0.23358 0.063045,0.0661 0.1860351,0.0661 0.055811,0 0.1095541,-0.0176 0.053744,-0.0176 0.098185,-0.0465 z"
         style="font-style:normal;font-variant:normal;font-weight:bold;font-stretch:normal;font-size:2.11666656px;font-family:sans-serif;-inkscape-font-specification:'sans-serif Bold';text-align:center;text-anchor:middle;fill:#2ca05a;fill-opacity:1;stroke-width:0.07000434"
         id="path23252"
         inkscape:connector-curvature="0" />
      <path
         d="M 8.0357382,231.0739 H 7.1841106 q 0.00827,0.13642 0.1033529,0.20877 0.096118,0.0724 0.2821533,0.0724 0.1178222,0 0.2284098,-0.0424 0.1105876,-0.0424 0.1746663,-0.0909 h 0.041341 v 0.29869 q -0.1260905,0.0507 -0.2377116,0.0734 -0.1116211,0.0227 -0.2470133,0.0227 -0.3493327,0 -0.5353679,-0.1571 -0.1860351,-0.15709 -0.1860351,-0.44751 0,-0.28732 0.1756999,-0.45476 0.1767334,-0.16846 0.4836913,-0.16846 0.2831869,0 0.4258138,0.14366 0.142627,0.14263 0.142627,0.41134 z m -0.3700033,-0.21808 q -0.0031,-0.11678 -0.057878,-0.1757 -0.054777,-0.0589 -0.1705322,-0.0589 -0.107487,0 -0.1767334,0.0558 -0.069246,0.0558 -0.077515,0.1788 z"
         style="font-style:normal;font-variant:normal;font-weight:bold;font-stretch:normal;font-size:2.11666656px;font-family:sans-serif;-inkscape-font-specification:'sans-serif Bold';text-align:center;text-anchor:middle;fill:#2ca05a;fill-opacity:1;stroke-width:0.07000434"
         id="path23254"
         inkscape:connector-curvature="0" />
      <path
         d="m 9.1395465,230.77934 h -0.033073 q -0.023771,-0.008 -0.076481,-0.0124 -0.05271,-0.004 -0.08785,-0.004 -0.079582,0 -0.1405599,0.0103 -0.060978,0.0103 -0.1312581,0.0351 v 0.77721 H 8.2982542 v -1.16065 h 0.3720703 v 0.17053 q 0.1229899,-0.10542 0.2139404,-0.13952 0.09095,-0.0351 0.1674316,-0.0351 0.019637,0 0.044442,0.001 0.024805,0.001 0.043408,0.003 z"
         style="font-style:normal;font-variant:normal;font-weight:bold;font-stretch:normal;font-size:2.11666656px;font-family:sans-serif;-inkscape-font-specification:'sans-serif Bold';text-align:center;text-anchor:middle;fill:#2ca05a;fill-opacity:1;stroke-width:0.07000434"
         id="path23256"
         inkscape:connector-curvature="0" />
    </g>
    <g
       aria-label="input"
       style="font-style:normal;font-variant:normal;font-weight:bold;font-stretch:normal;font-size:8.46666622px;line-height:1.25;font-family:'Bauhaus 93';-inkscape-font-specification:'Bauhaus 93 Bold';letter-spacing:0px;word-spacing:0px;display:inline;opacity:1;fill:#2ca05a;fill-opacity:1;stroke:none;stroke-width:0.07000434"
       id="text18831-64-6-6">
      <path
         d="M 2.4955079,242.59117 H 2.1234376 v -1.16065 h 0.3720703 z m 0.010335,-1.32602 H 2.1131023 V 240.983 h 0.3927409 z"
         style="font-style:normal;font-variant:normal;font-weight:bold;font-stretch:normal;font-size:2.11666656px;font-family:sans-serif;-inkscape-font-specification:'sans-serif Bold';text-align:center;text-anchor:middle;fill:#2ca05a;fill-opacity:1;stroke-width:0.07000434"
         id="path23233"
         inkscape:connector-curvature="0" />
      <path
         d="M 4.0127279,242.59117 H 3.6385905 v -0.57567 q 0,-0.0703 -0.00723,-0.13953 -0.00723,-0.0703 -0.024805,-0.10335 -0.020671,-0.0382 -0.060978,-0.0558 -0.039274,-0.0176 -0.1105875,-0.0176 -0.050643,0 -0.1033529,0.0165 -0.051676,0.0165 -0.1126546,0.0527 v 0.82269 H 2.8469076 v -1.16065 h 0.3720703 v 0.12816 q 0.099219,-0.0775 0.1901693,-0.11886 0.091984,-0.0413 0.2036051,-0.0413 0.1881022,0 0.2935221,0.10955 0.1064535,0.10956 0.1064535,0.32763 z"
         style="font-style:normal;font-variant:normal;font-weight:bold;font-stretch:normal;font-size:2.11666656px;font-family:sans-serif;-inkscape-font-specification:'sans-serif Bold';text-align:center;text-anchor:middle;fill:#2ca05a;fill-opacity:1;stroke-width:0.07000434"
         id="path23235"
         inkscape:connector-curvature="0" />
      <path
         d="m 5.567155,241.99483 q 0,0.14366 -0.044442,0.26148 -0.043408,0.11782 -0.1147216,0.1943 -0.074414,0.0806 -0.1684652,0.12196 -0.094051,0.0413 -0.2015381,0.0413 -0.099219,0 -0.1684651,-0.0217 -0.069246,-0.0207 -0.1415934,-0.0589 v 0.4837 H 4.3558595 v -1.58647 h 0.3720703 v 0.12092 q 0.085783,-0.0682 0.1746663,-0.11059 0.089917,-0.0424 0.2067057,-0.0424 0.217041,0 0.3369303,0.15916 0.1209229,0.15917 0.1209229,0.43719 z m -0.3834391,0.007 q 0,-0.1695 -0.057878,-0.24598 -0.057878,-0.0765 -0.1829346,-0.0765 -0.05271,0 -0.1085205,0.0165 -0.055811,0.0155 -0.1064534,0.0455 v 0.58394 q 0.037207,0.0145 0.079582,0.0186 0.042375,0.004 0.083716,0.004 0.1477946,0 0.2201416,-0.0858 0.072347,-0.0868 0.072347,-0.26045 z"
         style="font-style:normal;font-variant:normal;font-weight:bold;font-stretch:normal;font-size:2.11666656px;font-family:sans-serif;-inkscape-font-specification:'sans-serif Bold';text-align:center;text-anchor:middle;fill:#2ca05a;fill-opacity:1;stroke-width:0.07000434"
         id="path23237"
         inkscape:connector-curvature="0" />
      <path
         d="M 6.9923909,242.59117 H 6.6203206 v -0.12816 q -0.1033529,0.0786 -0.1891358,0.11989 -0.085783,0.0403 -0.2046386,0.0403 -0.1922364,0 -0.2966227,-0.11059 -0.1033529,-0.11058 -0.1033529,-0.32659 v -0.75551 H 6.200708 v 0.57567 q 0,0.0879 0.00517,0.14677 0.0062,0.0579 0.026872,0.0961 0.019637,0.0382 0.058911,0.0558 0.040308,0.0176 0.1116211,0.0176 0.047542,0 0.1054199,-0.0176 0.057878,-0.0176 0.1116211,-0.0517 v -0.82269 h 0.3720703 z"
         style="font-style:normal;font-variant:normal;font-weight:bold;font-stretch:normal;font-size:2.11666656px;font-family:sans-serif;-inkscape-font-specification:'sans-serif Bold';text-align:center;text-anchor:middle;fill:#2ca05a;fill-opacity:1;stroke-width:0.07000434"
         id="path23239"
         inkscape:connector-curvature="0" />
      <path
         d="m 8.0868976,242.58084 q -0.059945,0.0155 -0.1271241,0.0238 -0.067179,0.009 -0.164331,0.009 -0.217041,0 -0.3234945,-0.0879 -0.1054199,-0.0879 -0.1054199,-0.30076 v -0.5426 H 7.2135659 v -0.25218 h 0.1529622 v -0.33176 h 0.3720703 v 0.33176 h 0.3482992 v 0.25218 H 7.7385984 v 0.41134 q 0,0.061 0.00103,0.10646 0.00103,0.0455 0.016536,0.0816 0.014469,0.0362 0.050643,0.0579 0.037207,0.0207 0.107487,0.0207 0.028939,0 0.075448,-0.0124 0.047542,-0.0124 0.066146,-0.0227 h 0.031006 z"
         style="font-style:normal;font-variant:normal;font-weight:bold;font-stretch:normal;font-size:2.11666656px;font-family:sans-serif;-inkscape-font-specification:'sans-serif Bold';text-align:center;text-anchor:middle;fill:#2ca05a;fill-opacity:1;stroke-width:0.07000434"
         id="path23241"
         inkscape:connector-curvature="0" />
    </g>
    <g
       aria-label="trigger"
       style="font-style:normal;font-variant:normal;font-weight:bold;font-stretch:normal;font-size:8.46666622px;line-height:1.25;font-family:'Bauhaus 93';-inkscape-font-specification:'Bauhaus 93 Bold';letter-spacing:0px;word-spacing:0px;display:inline;opacity:1;fill:#2ca05a;fill-opacity:1;stroke:none;stroke-width:0.07000434"
       id="text18831-64-6-4">
      <path
         d="m 1.9337851,264.57514 q -0.059945,0.0155 -0.127124,0.0238 -0.067179,0.009 -0.164331,0.009 -0.217041,0 -0.3234945,-0.0879 -0.1054199,-0.0879 -0.1054199,-0.30076 v -0.5426 H 1.0604535 v -0.25218 h 0.1529622 v -0.33177 H 1.585486 v 0.33177 h 0.3482991 v 0.25218 H 1.585486 v 0.41134 q 0,0.061 0.00103,0.10646 0.00103,0.0455 0.016536,0.0816 0.014469,0.0362 0.050643,0.0579 0.037207,0.0207 0.107487,0.0207 0.028939,0 0.075447,-0.0124 0.047542,-0.0124 0.066146,-0.0227 h 0.031006 z"
         style="font-style:normal;font-variant:normal;font-weight:bold;font-stretch:normal;font-size:2.11666656px;font-family:sans-serif;-inkscape-font-specification:'sans-serif Bold';text-align:center;text-anchor:middle;fill:#2ca05a;fill-opacity:1;stroke-width:0.07000434"
         id="path23218"
         inkscape:connector-curvature="0" />
      <path
         d="m 2.9962525,263.77933 h -0.033073 q -0.023771,-0.008 -0.076481,-0.0124 -0.05271,-0.004 -0.08785,-0.004 -0.079582,0 -0.1405599,0.0103 -0.060978,0.0103 -0.1312581,0.0351 v 0.77721 H 2.1549603 v -1.16065 h 0.3720703 v 0.17053 q 0.1229899,-0.10542 0.2139404,-0.13953 0.09095,-0.0351 0.1674316,-0.0351 0.019637,0 0.044442,10e-4 0.024805,0.001 0.043408,0.003 z"
         style="font-style:normal;font-variant:normal;font-weight:bold;font-stretch:normal;font-size:2.11666656px;font-family:sans-serif;-inkscape-font-specification:'sans-serif Bold';text-align:center;text-anchor:middle;fill:#2ca05a;fill-opacity:1;stroke-width:0.07000434"
         id="path23220"
         inkscape:connector-curvature="0" />
      <path
         d="M 3.5812298,264.58548 H 3.2091595 v -1.16065 h 0.3720703 z m 0.010335,-1.32602 H 3.1988243 v -0.28215 h 0.3927408 z"
         style="font-style:normal;font-variant:normal;font-weight:bold;font-stretch:normal;font-size:2.11666656px;font-family:sans-serif;-inkscape-font-specification:'sans-serif Bold';text-align:center;text-anchor:middle;fill:#2ca05a;fill-opacity:1;stroke-width:0.07000434"
         id="path23222"
         inkscape:connector-curvature="0" />
      <path
         d="m 5.0612427,264.45215 q 0,0.1633 -0.046509,0.27492 -0.046509,0.11162 -0.1302246,0.17467 -0.083716,0.0641 -0.2025717,0.092 -0.1178222,0.0289 -0.2666503,0.0289 -0.1209229,0 -0.2387451,-0.0145 -0.1167888,-0.0145 -0.2025716,-0.0351 v -0.29042 h 0.045475 q 0.068213,0.0269 0.1663981,0.0486 0.098185,0.0227 0.1756999,0.0227 0.1033528,0 0.1674316,-0.0196 0.065112,-0.0186 0.099219,-0.0537 0.032039,-0.0331 0.046509,-0.0847 0.014469,-0.0517 0.014469,-0.12403 v -0.0217 q -0.067179,0.0548 -0.1488281,0.0868 -0.081649,0.032 -0.181901,0.032 -0.2439127,0 -0.3762044,-0.14676 -0.1322917,-0.14676 -0.1322917,-0.44648 0,-0.14366 0.040308,-0.24805 0.040308,-0.10439 0.1136882,-0.1819 0.068213,-0.0723 0.1674316,-0.11265 0.1002523,-0.0403 0.2046387,-0.0403 0.094051,0 0.1705322,0.0227 0.077515,0.0217 0.1405599,0.061 l 0.013436,-0.0517 h 0.3607014 z m -0.3720703,-0.23254 v -0.52607 q -0.032039,-0.0134 -0.078548,-0.0207 -0.046509,-0.008 -0.083716,-0.008 -0.1467611,0 -0.2201416,0.0848 -0.073381,0.0837 -0.073381,0.23461 0,0.16743 0.062012,0.23357 0.063045,0.0661 0.1860351,0.0661 0.055811,0 0.109554,-0.0176 0.053744,-0.0176 0.098185,-0.0465 z"
         style="font-style:normal;font-variant:normal;font-weight:bold;font-stretch:normal;font-size:2.11666656px;font-family:sans-serif;-inkscape-font-specification:'sans-serif Bold';text-align:center;text-anchor:middle;fill:#2ca05a;fill-opacity:1;stroke-width:0.07000434"
         id="path23224"
         inkscape:connector-curvature="0" />
      <path
         d="m 6.5412559,264.45215 q 0,0.1633 -0.046509,0.27492 -0.046509,0.11162 -0.1302246,0.17467 -0.083716,0.0641 -0.2025716,0.092 -0.1178223,0.0289 -0.2666504,0.0289 -0.1209228,0 -0.2387451,-0.0145 -0.1167887,-0.0145 -0.2025716,-0.0351 v -0.29042 h 0.045475 q 0.068213,0.0269 0.1663981,0.0486 0.098185,0.0227 0.1756998,0.0227 0.1033529,0 0.1674316,-0.0196 0.065112,-0.0186 0.099219,-0.0537 0.032039,-0.0331 0.046509,-0.0847 0.014469,-0.0517 0.014469,-0.12403 v -0.0217 q -0.067179,0.0548 -0.1488281,0.0868 -0.081649,0.032 -0.1819011,0.032 -0.2439127,0 -0.3762044,-0.14676 -0.1322916,-0.14676 -0.1322916,-0.44648 0,-0.14366 0.040308,-0.24805 0.040308,-0.10439 0.1136881,-0.1819 0.068213,-0.0723 0.1674317,-0.11265 0.1002522,-0.0403 0.2046386,-0.0403 0.094051,0 0.1705322,0.0227 0.077515,0.0217 0.1405599,0.061 l 0.013436,-0.0517 h 0.3607015 z m -0.3720703,-0.23254 v -0.52607 q -0.032039,-0.0134 -0.078548,-0.0207 -0.046509,-0.008 -0.083716,-0.008 -0.1467611,0 -0.2201416,0.0848 -0.07338,0.0837 -0.07338,0.23461 0,0.16743 0.062012,0.23357 0.063045,0.0661 0.1860351,0.0661 0.055811,0 0.1095541,-0.0176 0.053744,-0.0176 0.098185,-0.0465 z"
         style="font-style:normal;font-variant:normal;font-weight:bold;font-stretch:normal;font-size:2.11666656px;font-family:sans-serif;-inkscape-font-specification:'sans-serif Bold';text-align:center;text-anchor:middle;fill:#2ca05a;fill-opacity:1;stroke-width:0.07000434"
         id="path23226"
         inkscape:connector-curvature="0" />
      <path
         d="M 8.0357382,264.07388 H 7.1841106 q 0.00827,0.13643 0.1033529,0.20878 0.096118,0.0723 0.2821533,0.0723 0.1178222,0 0.2284098,-0.0424 0.1105876,-0.0424 0.1746663,-0.091 h 0.041341 v 0.29869 q -0.1260905,0.0506 -0.2377116,0.0734 -0.1116211,0.0227 -0.2470133,0.0227 -0.3493327,0 -0.5353679,-0.1571 -0.1860351,-0.1571 -0.1860351,-0.44752 0,-0.28732 0.1756999,-0.45475 0.1767334,-0.16847 0.4836913,-0.16847 0.2831869,0 0.4258138,0.14366 0.142627,0.14263 0.142627,0.41135 z m -0.3700033,-0.21807 q -0.0031,-0.11679 -0.057878,-0.1757 -0.054777,-0.0589 -0.1705322,-0.0589 -0.107487,0 -0.1767334,0.0558 -0.069246,0.0558 -0.077515,0.1788 z"
         style="font-style:normal;font-variant:normal;font-weight:bold;font-stretch:normal;font-size:2.11666656px;font-family:sans-serif;-inkscape-font-specification:'sans-serif Bold';text-align:center;text-anchor:middle;fill:#2ca05a;fill-opacity:1;stroke-width:0.07000434"
         id="path23228"
         inkscape:connector-curvature="0" />
      <path
         d="m 9.1395465,263.77933 h -0.033073 q -0.023771,-0.008 -0.076481,-0.0124 -0.05271,-0.004 -0.08785,-0.004 -0.079582,0 -0.1405599,0.0103 -0.060978,0.0103 -0.1312581,0.0351 v 0.77721 H 8.2982542 v -1.16065 h 0.3720703 v 0.17053 q 0.1229899,-0.10542 0.2139404,-0.13953 0.09095,-0.0351 0.1674316,-0.0351 0.019637,0 0.044442,10e-4 0.024805,0.001 0.043408,0.003 z"
         style="font-style:normal;font-variant:normal;font-weight:bold;font-stretch:normal;font-size:2.11666656px;font-family:sans-serif;-inkscape-font-specification:'sans-serif Bold';text-align:center;text-anchor:middle;fill:#2ca05a;fill-opacity:1;stroke-width:0.07000434"
         id="path23230"
         inkscape:connector-curvature="0" />
    </g>
    <g
       aria-label="input"
       style="font-style:normal;font-variant:normal;font-weight:bold;font-stretch:normal;font-size:8.46666622px;line-height:1.25;font-family:'Bauhaus 93';-inkscape-font-specification:'Bauhaus 93 Bold';letter-spacing:0px;word-spacing:0px;display:inline;opacity:1;fill:#2ca05a;fill-opacity:1;stroke:none;stroke-width:0.07000434"
       id="text18831-64-6-0">
      <path
         d="M 2.4955079,275.59119 H 2.1234376 v -1.16066 h 0.3720703 z m 0.010335,-1.32602 H 2.1131023 v -0.28215 h 0.3927409 z"
         style="font-style:normal;font-variant:normal;font-weight:bold;font-stretch:normal;font-size:2.11666656px;font-family:sans-serif;-inkscape-font-specification:'sans-serif Bold';text-align:center;text-anchor:middle;fill:#2ca05a;fill-opacity:1;stroke-width:0.07000434"
         id="path23207"
         inkscape:connector-curvature="0" />
      <path
         d="M 4.0127279,275.59119 H 3.6385905 v -0.57568 q 0,-0.0703 -0.00723,-0.13953 -0.00723,-0.0703 -0.024805,-0.10335 -0.020671,-0.0382 -0.060978,-0.0558 -0.039274,-0.0176 -0.1105875,-0.0176 -0.050643,0 -0.1033529,0.0165 -0.051676,0.0165 -0.1126546,0.0527 v 0.82269 H 2.8469076 v -1.16066 h 0.3720703 v 0.12816 q 0.099219,-0.0775 0.1901693,-0.11885 0.091984,-0.0414 0.2036051,-0.0414 0.1881022,0 0.2935221,0.10956 0.1064535,0.10955 0.1064535,0.32763 z"
         style="font-style:normal;font-variant:normal;font-weight:bold;font-stretch:normal;font-size:2.11666656px;font-family:sans-serif;-inkscape-font-specification:'sans-serif Bold';text-align:center;text-anchor:middle;fill:#2ca05a;fill-opacity:1;stroke-width:0.07000434"
         id="path23209"
         inkscape:connector-curvature="0" />
      <path
         d="m 5.567155,274.99484 q 0,0.14366 -0.044442,0.26148 -0.043408,0.11783 -0.1147216,0.19431 -0.074414,0.0806 -0.1684652,0.12195 -0.094051,0.0413 -0.2015381,0.0413 -0.099219,0 -0.1684651,-0.0217 -0.069246,-0.0207 -0.1415934,-0.0589 V 276.017 H 4.3558595 v -1.58647 h 0.3720703 v 0.12093 q 0.085783,-0.0682 0.1746663,-0.11059 0.089917,-0.0424 0.2067057,-0.0424 0.217041,0 0.3369303,0.15917 0.1209229,0.15916 0.1209229,0.43718 z m -0.3834391,0.007 q 0,-0.1695 -0.057878,-0.24598 -0.057878,-0.0765 -0.1829346,-0.0765 -0.05271,0 -0.1085205,0.0165 -0.055811,0.0155 -0.1064534,0.0455 v 0.58394 q 0.037207,0.0145 0.079582,0.0186 0.042375,0.004 0.083716,0.004 0.1477946,0 0.2201416,-0.0858 0.072347,-0.0868 0.072347,-0.26044 z"
         style="font-style:normal;font-variant:normal;font-weight:bold;font-stretch:normal;font-size:2.11666656px;font-family:sans-serif;-inkscape-font-specification:'sans-serif Bold';text-align:center;text-anchor:middle;fill:#2ca05a;fill-opacity:1;stroke-width:0.07000434"
         id="path23211"
         inkscape:connector-curvature="0" />
      <path
         d="M 6.9923909,275.59119 H 6.6203206 v -0.12816 q -0.1033529,0.0786 -0.1891358,0.11989 -0.085783,0.0403 -0.2046386,0.0403 -0.1922364,0 -0.2966227,-0.11059 -0.1033529,-0.11059 -0.1033529,-0.3266 v -0.75551 H 6.200708 v 0.57568 q 0,0.0879 0.00517,0.14676 0.0062,0.0579 0.026872,0.0961 0.019637,0.0382 0.058911,0.0558 0.040308,0.0176 0.1116211,0.0176 0.047542,0 0.1054199,-0.0176 0.057878,-0.0176 0.1116211,-0.0517 v -0.82269 h 0.3720703 z"
         style="font-style:normal;font-variant:normal;font-weight:bold;font-stretch:normal;font-size:2.11666656px;font-family:sans-serif;-inkscape-font-specification:'sans-serif Bold';text-align:center;text-anchor:middle;fill:#2ca05a;fill-opacity:1;stroke-width:0.07000434"
         id="path23213"
         inkscape:connector-curvature="0" />
      <path
         d="m 8.0868976,275.58085 q -0.059945,0.0155 -0.1271241,0.0238 -0.067179,0.009 -0.164331,0.009 -0.217041,0 -0.3234945,-0.0879 -0.1054199,-0.0879 -0.1054199,-0.30075 v -0.54261 H 7.2135659 v -0.25218 h 0.1529622 v -0.33176 h 0.3720703 v 0.33176 h 0.3482992 v 0.25218 H 7.7385984 v 0.41135 q 0,0.061 0.00103,0.10645 0.00103,0.0455 0.016536,0.0816 0.014469,0.0362 0.050643,0.0579 0.037207,0.0207 0.107487,0.0207 0.028939,0 0.075448,-0.0124 0.047542,-0.0124 0.066146,-0.0227 h 0.031006 z"
         style="font-style:normal;font-variant:normal;font-weight:bold;font-stretch:normal;font-size:2.11666656px;font-family:sans-serif;-inkscape-font-specification:'sans-serif Bold';text-align:center;text-anchor:middle;fill:#2ca05a;fill-opacity:1;stroke-width:0.07000434"
         id="path23215"
         inkscape:connector-curvature="0" />
    </g>
    <g
       aria-label="output"
       style="font-style:normal;font-variant:normal;font-weight:bold;font-stretch:normal;font-size:8.46666622px;line-height:1.25;font-family:'Bauhaus 93';-inkscape-font-specification:'Bauhaus 93 Bold';letter-spacing:0px;word-spacing:0px;display:inline;opacity:1;fill:#ffffff;fill-opacity:1;stroke:none;stroke-width:0.07000434"
       id="text18831-64-6-9">
      <path
         d="m 2.4996421,252.95349 q 0,0.28628 -0.1674316,0.45165 -0.1663981,0.16433 -0.4681885,0.16433 -0.3017903,0 -0.469222,-0.16433 -0.1663981,-0.16537 -0.1663981,-0.45165 0,-0.28836 0.1674317,-0.45269 0.1684651,-0.16433 0.4681884,-0.16433 0.3038574,0 0.469222,0.16536 0.1663981,0.16537 0.1663981,0.45166 z m -0.4578532,0.28215 q 0.036174,-0.0444 0.053744,-0.10646 0.018603,-0.063 0.018603,-0.17363 0,-0.10232 -0.018603,-0.17156 -0.018604,-0.0692 -0.051676,-0.11059 -0.033073,-0.0424 -0.079582,-0.0599 -0.046509,-0.0176 -0.1002523,-0.0176 -0.053744,0 -0.096118,0.0145 -0.041341,0.0145 -0.079582,0.0579 -0.034107,0.0403 -0.054777,0.11059 -0.019637,0.0703 -0.019637,0.17673 0,0.0951 0.01757,0.16537 0.01757,0.0692 0.051676,0.11162 0.033073,0.0403 0.078548,0.0589 0.046509,0.0186 0.1054199,0.0186 0.050643,0 0.096118,-0.0165 0.046509,-0.0176 0.078548,-0.0579 z"
         style="font-style:normal;font-variant:normal;font-weight:bold;font-stretch:normal;font-size:2.11666656px;font-family:sans-serif;-inkscape-font-specification:'sans-serif Bold';text-align:center;text-anchor:middle;fill:#ffffff;fill-opacity:1;stroke-width:0.07000434"
         id="path23194"
         inkscape:connector-curvature="0" />
      <path
         d="M 3.9248781,253.53329 H 3.5528078 v -0.12815 q -0.1033529,0.0786 -0.1891358,0.11989 -0.085783,0.0403 -0.2046386,0.0403 -0.1922363,0 -0.2966227,-0.11058 -0.1033529,-0.11059 -0.1033529,-0.3266 v -0.75551 h 0.3741374 v 0.57568 q 0,0.0879 0.00517,0.14676 0.0062,0.0579 0.026872,0.0961 0.019637,0.0382 0.058911,0.0558 0.040308,0.0176 0.1116211,0.0176 0.047542,0 0.1054199,-0.0176 0.057878,-0.0176 0.1116211,-0.0517 v -0.82269 h 0.3720703 z"
         style="font-style:normal;font-variant:normal;font-weight:bold;font-stretch:normal;font-size:2.11666656px;font-family:sans-serif;-inkscape-font-specification:'sans-serif Bold';text-align:center;text-anchor:middle;fill:#ffffff;fill-opacity:1;stroke-width:0.07000434"
         id="path23196"
         inkscape:connector-curvature="0" />
      <path
         d="m 5.0193848,253.52296 q -0.059945,0.0155 -0.1271241,0.0238 -0.067179,0.009 -0.164331,0.009 -0.217041,0 -0.3234944,-0.0879 -0.10542,-0.0879 -0.10542,-0.30075 V 252.6245 H 4.1460531 v -0.25218 h 0.1529622 v -0.33176 h 0.3720703 v 0.33176 h 0.3482992 v 0.25218 H 4.6710856 v 0.41135 q 0,0.061 0.00103,0.10645 0.00103,0.0455 0.016536,0.0816 0.014469,0.0362 0.050643,0.0579 0.037207,0.0207 0.107487,0.0207 0.028939,0 0.075448,-0.0124 0.047542,-0.0124 0.066146,-0.0227 h 0.031006 z"
         style="font-style:normal;font-variant:normal;font-weight:bold;font-stretch:normal;font-size:2.11666656px;font-family:sans-serif;-inkscape-font-specification:'sans-serif Bold';text-align:center;text-anchor:middle;fill:#ffffff;fill-opacity:1;stroke-width:0.07000434"
         id="path23198"
         inkscape:connector-curvature="0" />
      <path
         d="m 6.4518555,252.93695 q 0,0.14366 -0.044442,0.26148 -0.043408,0.11782 -0.1147216,0.1943 -0.074414,0.0806 -0.1684652,0.12196 -0.094051,0.0413 -0.2015381,0.0413 -0.099219,0 -0.1684651,-0.0217 -0.069246,-0.0207 -0.1415934,-0.0589 v 0.48369 H 5.24056 v -1.58647 h 0.3720703 v 0.12092 q 0.085783,-0.0682 0.1746663,-0.11058 0.089917,-0.0424 0.2067057,-0.0424 0.217041,0 0.3369303,0.15917 0.1209229,0.15916 0.1209229,0.43718 z m -0.3834391,0.007 q 0,-0.1695 -0.057878,-0.24598 -0.057878,-0.0765 -0.1829346,-0.0765 -0.05271,0 -0.1085205,0.0165 -0.05581,0.0155 -0.1064534,0.0455 v 0.58395 q 0.037207,0.0145 0.079582,0.0186 0.042375,0.004 0.083716,0.004 0.1477946,0 0.2201416,-0.0858 0.072347,-0.0868 0.072347,-0.26045 z"
         style="font-style:normal;font-variant:normal;font-weight:bold;font-stretch:normal;font-size:2.11666656px;font-family:sans-serif;-inkscape-font-specification:'sans-serif Bold';text-align:center;text-anchor:middle;fill:#ffffff;fill-opacity:1;stroke-width:0.07000434"
         id="path23200"
         inkscape:connector-curvature="0" />
      <path
         d="M 7.8770914,253.53329 H 7.5050211 v -0.12815 q -0.1033529,0.0786 -0.1891358,0.11989 -0.085783,0.0403 -0.2046386,0.0403 -0.1922364,0 -0.2966227,-0.11058 -0.1033529,-0.11059 -0.1033529,-0.3266 v -0.75551 h 0.3741374 v 0.57568 q 0,0.0879 0.00517,0.14676 0.0062,0.0579 0.026872,0.0961 0.019637,0.0382 0.058911,0.0558 0.040308,0.0176 0.1116211,0.0176 0.047542,0 0.1054199,-0.0176 0.057878,-0.0176 0.1116211,-0.0517 v -0.82269 h 0.3720703 z"
         style="font-style:normal;font-variant:normal;font-weight:bold;font-stretch:normal;font-size:2.11666656px;font-family:sans-serif;-inkscape-font-specification:'sans-serif Bold';text-align:center;text-anchor:middle;fill:#ffffff;fill-opacity:1;stroke-width:0.07000434"
         id="path23202"
         inkscape:connector-curvature="0" />
      <path
         d="m 8.9715981,253.52296 q -0.059945,0.0155 -0.1271241,0.0238 -0.067179,0.009 -0.164331,0.009 -0.217041,0 -0.3234945,-0.0879 -0.1054199,-0.0879 -0.1054199,-0.30075 V 252.6245 H 8.0982664 v -0.25218 h 0.1529622 v -0.33176 h 0.3720703 v 0.33176 h 0.3482992 v 0.25218 H 8.6232989 v 0.41135 q 0,0.061 0.00103,0.10645 0.00103,0.0455 0.016536,0.0816 0.014469,0.0362 0.050643,0.0579 0.037207,0.0207 0.107487,0.0207 0.028939,0 0.075448,-0.0124 0.047542,-0.0124 0.066146,-0.0227 h 0.031006 z"
         style="font-style:normal;font-variant:normal;font-weight:bold;font-stretch:normal;font-size:2.11666656px;font-family:sans-serif;-inkscape-font-specification:'sans-serif Bold';text-align:center;text-anchor:middle;fill:#ffffff;fill-opacity:1;stroke-width:0.07000434"
         id="path23204"
         inkscape:connector-curvature="0" />
    </g>
    <g
       aria-label="output"
       style="font-style:normal;font-variant:normal;font-weight:bold;font-stretch:normal;font-size:8.46666622px;line-height:1.25;font-family:'Bauhaus 93';-inkscape-font-specification:'Bauhaus 93 Bold';letter-spacing:0px;word-spacing:0px;display:inline;opacity:1;fill:#ffffff;fill-opacity:1;stroke:none;stroke-width:0.07000434"
       id="text18831-64-6-9-4">
      <path
         d="m 2.4996421,285.95349 q 0,0.28628 -0.1674316,0.45165 -0.1663981,0.16433 -0.4681885,0.16433 -0.3017903,0 -0.469222,-0.16433 -0.1663981,-0.16537 -0.1663981,-0.45165 0,-0.28836 0.1674317,-0.45269 0.1684651,-0.16433 0.4681884,-0.16433 0.3038574,0 0.469222,0.16536 0.1663981,0.16537 0.1663981,0.45166 z m -0.4578532,0.28215 q 0.036174,-0.0444 0.053744,-0.10646 0.018603,-0.063 0.018603,-0.17363 0,-0.10232 -0.018603,-0.17156 -0.018604,-0.0693 -0.051676,-0.11059 -0.033073,-0.0424 -0.079582,-0.06 -0.046509,-0.0176 -0.1002523,-0.0176 -0.053744,0 -0.096118,0.0145 -0.041341,0.0145 -0.079582,0.0579 -0.034107,0.0403 -0.054777,0.11059 -0.019637,0.0703 -0.019637,0.17673 0,0.0951 0.01757,0.16537 0.01757,0.0692 0.051676,0.11162 0.033073,0.0403 0.078548,0.0589 0.046509,0.0186 0.1054199,0.0186 0.050643,0 0.096118,-0.0165 0.046509,-0.0176 0.078548,-0.0579 z"
         style="font-style:normal;font-variant:normal;font-weight:bold;font-stretch:normal;font-size:2.11666656px;font-family:sans-serif;-inkscape-font-specification:'sans-serif Bold';text-align:center;text-anchor:middle;fill:#ffffff;fill-opacity:1;stroke-width:0.07000434"
         id="path23181"
         inkscape:connector-curvature="0" />
      <path
         d="M 3.9248781,286.53329 H 3.5528078 v -0.12815 q -0.1033529,0.0786 -0.1891358,0.11989 -0.085783,0.0403 -0.2046386,0.0403 -0.1922363,0 -0.2966227,-0.11058 -0.1033529,-0.11059 -0.1033529,-0.3266 v -0.75551 h 0.3741374 v 0.57568 q 0,0.0879 0.00517,0.14676 0.0062,0.0579 0.026872,0.0961 0.019637,0.0382 0.058911,0.0558 0.040308,0.0176 0.1116211,0.0176 0.047542,0 0.1054199,-0.0176 0.057878,-0.0176 0.1116211,-0.0517 v -0.82269 h 0.3720703 z"
         style="font-style:normal;font-variant:normal;font-weight:bold;font-stretch:normal;font-size:2.11666656px;font-family:sans-serif;-inkscape-font-specification:'sans-serif Bold';text-align:center;text-anchor:middle;fill:#ffffff;fill-opacity:1;stroke-width:0.07000434"
         id="path23183"
         inkscape:connector-curvature="0" />
      <path
         d="m 5.0193848,286.52296 q -0.059945,0.0155 -0.1271241,0.0238 -0.067179,0.009 -0.164331,0.009 -0.217041,0 -0.3234944,-0.0879 -0.10542,-0.0879 -0.10542,-0.30075 V 285.6245 H 4.1460531 v -0.25218 h 0.1529622 v -0.33176 h 0.3720703 v 0.33176 h 0.3482992 v 0.25218 H 4.6710856 v 0.41135 q 0,0.061 0.00103,0.10645 0.00103,0.0455 0.016536,0.0816 0.014469,0.0362 0.050643,0.0579 0.037207,0.0207 0.107487,0.0207 0.028939,0 0.075448,-0.0124 0.047542,-0.0124 0.066146,-0.0227 h 0.031006 z"
         style="font-style:normal;font-variant:normal;font-weight:bold;font-stretch:normal;font-size:2.11666656px;font-family:sans-serif;-inkscape-font-specification:'sans-serif Bold';text-align:center;text-anchor:middle;fill:#ffffff;fill-opacity:1;stroke-width:0.07000434"
         id="path23185"
         inkscape:connector-curvature="0" />
      <path
         d="m 6.4518555,285.93695 q 0,0.14366 -0.044442,0.26148 -0.043408,0.11782 -0.1147216,0.1943 -0.074414,0.0806 -0.1684652,0.12196 -0.094051,0.0413 -0.2015381,0.0413 -0.099219,0 -0.1684651,-0.0217 -0.069246,-0.0207 -0.1415934,-0.0589 v 0.48369 H 5.24056 v -1.58647 h 0.3720703 v 0.12092 q 0.085783,-0.0682 0.1746663,-0.11058 0.089917,-0.0424 0.2067057,-0.0424 0.217041,0 0.3369303,0.15917 0.1209229,0.15916 0.1209229,0.43718 z m -0.3834391,0.007 q 0,-0.1695 -0.057878,-0.24598 -0.057878,-0.0765 -0.1829346,-0.0765 -0.05271,0 -0.1085205,0.0165 -0.05581,0.0155 -0.1064534,0.0455 v 0.58395 q 0.037207,0.0145 0.079582,0.0186 0.042375,0.004 0.083716,0.004 0.1477946,0 0.2201416,-0.0858 0.072347,-0.0868 0.072347,-0.26045 z"
         style="font-style:normal;font-variant:normal;font-weight:bold;font-stretch:normal;font-size:2.11666656px;font-family:sans-serif;-inkscape-font-specification:'sans-serif Bold';text-align:center;text-anchor:middle;fill:#ffffff;fill-opacity:1;stroke-width:0.07000434"
         id="path23187"
         inkscape:connector-curvature="0" />
      <path
         d="M 7.8770914,286.53329 H 7.5050211 v -0.12815 q -0.1033529,0.0786 -0.1891358,0.11989 -0.085783,0.0403 -0.2046386,0.0403 -0.1922364,0 -0.2966227,-0.11058 -0.1033529,-0.11059 -0.1033529,-0.3266 v -0.75551 h 0.3741374 v 0.57568 q 0,0.0879 0.00517,0.14676 0.0062,0.0579 0.026872,0.0961 0.019637,0.0382 0.058911,0.0558 0.040308,0.0176 0.1116211,0.0176 0.047542,0 0.1054199,-0.0176 0.057878,-0.0176 0.1116211,-0.0517 v -0.82269 h 0.3720703 z"
         style="font-style:normal;font-variant:normal;font-weight:bold;font-stretch:normal;font-size:2.11666656px;font-family:sans-serif;-inkscape-font-specification:'sans-serif Bold';text-align:center;text-anchor:middle;fill:#ffffff;fill-opacity:1;stroke-width:0.07000434"
         id="path23189"
         inkscape:connector-curvature="0" />
      <path
         d="m 8.9715981,286.52296 q -0.059945,0.0155 -0.1271241,0.0238 -0.067179,0.009 -0.164331,0.009 -0.217041,0 -0.3234945,-0.0879 -0.1054199,-0.0879 -0.1054199,-0.30075 V 285.6245 H 8.0982664 v -0.25218 h 0.1529622 v -0.33176 h 0.3720703 v 0.33176 h 0.3482992 v 0.25218 H 8.6232989 v 0.41135 q 0,0.061 0.00103,0.10645 0.00103,0.0455 0.016536,0.0816 0.014469,0.0362 0.050643,0.0579 0.037207,0.0207 0.107487,0.0207 0.028939,0 0.075448,-0.0124 0.047542,-0.0124 0.066146,-0.0227 h 0.031006 z"
         style="font-style:normal;font-variant:normal;font-weight:bold;font-stretch:normal;font-size:2.11666656px;font-family:sans-serif;-inkscape-font-specification:'sans-serif Bold';text-align:center;text-anchor:middle;fill:#ffffff;fill-opacity:1;stroke-width:0.07000434"
         id="path23191"
         inkscape:connector-curvature="0" />
    </g>
  </g>
  <g
     inkscape:groupmode="layer"
     id="layer2"
     inkscape:label="components"
     style="display:none">
    <circle
       cy="90"
       cx="5.0999999"
       id="circle164-0"
       style="display:inline;fill:#00ff00;stroke-width:0.24907795"
       inkscape:label="_input"
       r="4.25" />
    <circle
       style="display:inline;fill:#0000ff;stroke-width:0.24907796"
       id="circle166"
       cx="5.0999999"
       cy="101"
       inkscape:label="_output"
       r="4.25" />
    <circle
       style="display:inline;fill:#ff0000;stroke-width:0.24907795"
       id="path162"
       cx="5.0999999"
       cy="57"
       inkscape:label="_level"
       r="4.25" />
  </g>
</svg>
