<?xml version="1.0" encoding="UTF-8" standalone="no"?>
<!-- Created with Inkscape (http://www.inkscape.org/) -->

<svg
   xmlns:dc="http://purl.org/dc/elements/1.1/"
   xmlns:cc="http://creativecommons.org/ns#"
   xmlns:rdf="http://www.w3.org/1999/02/22-rdf-syntax-ns#"
   xmlns:svg="http://www.w3.org/2000/svg"
   xmlns="http://www.w3.org/2000/svg"
   xmlns:sodipodi="http://sodipodi.sourceforge.net/DTD/sodipodi-0.dtd"
   xmlns:inkscape="http://www.inkscape.org/namespaces/inkscape"
   width="10.16mm"
   height="128.5mm"
   viewBox="0 0 10.16 128.5"
   version="1.1"
   id="svg8"
   inkscape:version="0.92.3 (2405546, 2018-03-11)"
   sodipodi:docname="Holdah.svg">
  <defs
     id="defs2" />
  <sodipodi:namedview
     id="base"
     pagecolor="#ffffff"
     bordercolor="#666666"
     borderopacity="1.0"
     inkscape:pageopacity="0"
     inkscape:pageshadow="2"
     inkscape:zoom="1.979899"
     inkscape:cx="230.61195"
     inkscape:cy="127.80634"
     inkscape:document-units="mm"
     inkscape:current-layer="layer1"
     showgrid="true"
     inkscape:window-width="1920"
     inkscape:window-height="1027"
     inkscape:window-x="-8"
     inkscape:window-y="22"
     inkscape:window-maximized="1"
     inkscape:pagecheckerboard="true"
     inkscape:snap-to-guides="true"
     showguides="true"
     inkscape:guide-bbox="true"
     inkscape:snap-page="true"
     inkscape:snap-bbox="true"
     inkscape:snap-bbox-edge-midpoints="false"
     inkscape:snap-bbox-midpoints="true"
     inkscape:snap-object-midpoints="true"
     inkscape:snap-others="false"
     inkscape:object-nodes="false"
     inkscape:snap-nodes="true"
     inkscape:measure-start="-12.2321,122.857"
     inkscape:measure-end="-11.6964,83.125"
     inkscape:bbox-paths="false"
     inkscape:showpageshadow="false">
    <inkscape:grid
       type="xygrid"
       id="grid5221"
       units="mm"
       originx="0"
       originy="0"
       spacingx="0.1"
       spacingy="0.1"
       enabled="true"
       visible="true" />
    <sodipodi:guide
       position="5.1000002,27.000001"
       orientation="1,0"
       id="guide5243"
       inkscape:locked="false" />
    <sodipodi:guide
       position="0.50000004,53.750004"
       orientation="1,0"
       id="guide5245"
       inkscape:locked="false" />
    <sodipodi:guide
       position="9.7000004,27.100001"
       orientation="1,0"
       id="guide5247"
       inkscape:locked="false" />
    <sodipodi:guide
       position="7.5000003,122.5"
       orientation="0,1"
       id="guide5258"
       inkscape:locked="false" />
    <sodipodi:guide
       position="15.000001,87.000004"
       orientation="0,1"
       id="guide921"
       inkscape:locked="false" />
    <sodipodi:guide
       position="14.000001,32.000001"
       orientation="0,1"
       id="guide927"
       inkscape:locked="false" />
    <sodipodi:guide
       position="12.500001,43.000002"
       orientation="0,1"
       id="guide931"
       inkscape:locked="false" />
    <sodipodi:guide
       position="10.500001,21"
       orientation="0,1"
       id="guide1035"
       inkscape:locked="false" />
    <sodipodi:guide
       position="10.500001,10"
       orientation="0,1"
       id="guide1037"
       inkscape:locked="false" />
    <sodipodi:guide
       position="14.500001,54.000001"
       orientation="0,1"
       id="guide1105"
       inkscape:locked="false" />
    <sodipodi:guide
       position="14.500001,65.000001"
       orientation="0,1"
       id="guide1107"
       inkscape:locked="false" />
    <sodipodi:guide
       position="14.000001,76.000002"
       orientation="0,1"
       id="guide1109"
       inkscape:locked="false" />
  </sodipodi:namedview>
  <metadata
     id="metadata5">
    <rdf:RDF>
      <cc:Work
         rdf:about="">
        <dc:format>image/svg+xml</dc:format>
        <dc:type
           rdf:resource="http://purl.org/dc/dcmitype/StillImage" />
        <dc:title />
      </cc:Work>
    </rdf:RDF>
  </metadata>
  <g
     inkscape:label="Layer 1"
     inkscape:groupmode="layer"
     id="layer1"
     transform="translate(0,-168.5)"
     style="display:inline">
    <path
       inkscape:connector-curvature="0"
       style="fill:#5fd38d;fill-opacity:1;stroke-width:0.2916196"
       d="M 1.8529411,276 H 8.3470588 C 9.0965881,276 9.7,276.70085 9.7,277.57143 v 7.85714 C 9.7,286.29915 9.0965881,287 8.3470588,287 H 1.8529411 c -0.7495293,0 -1.35294112,-0.70085 -1.35294112,-1.57143 v -7.85714 C 0.49999998,276.70085 1.1034118,276 1.8529411,276 Z"
       id="rect182" />
    <g
       aria-label="output"
       style="font-style:normal;font-weight:normal;font-size:2.82222223px;line-height:1.25;font-family:sans-serif;letter-spacing:0px;word-spacing:0px;fill:#ffffff;fill-opacity:1;stroke:none;stroke-width:0.26458332"
       id="text1045"
       transform="translate(2.2751264e-7,-0.011678)">
      <path
         d="m 2.6562216,285.42702 q 0.2191081,0 0.3751709,0.15813 0.1570964,0.1571 0.1570964,0.37724 0,0.22324 -0.1591634,0.38034 -0.1581299,0.1571 -0.3824056,0.1571 -0.2242757,0 -0.3834391,-0.1571 -0.1591634,-0.15813 -0.1591634,-0.38034 0,-0.22634 0.1591634,-0.38034 0.1591634,-0.15503 0.3927408,-0.15503 z m -0.010335,0.38138 q -0.062012,0 -0.10542,0.0455 -0.043408,0.0444 -0.043408,0.10956 0,0.0641 0.043408,0.10955 0.044442,0.0455 0.10542,0.0455 0.062012,0 0.1054199,-0.0455 0.044442,-0.0455 0.044442,-0.10955 0,-0.0651 -0.043408,-0.10956 -0.043408,-0.0455 -0.1064539,-0.0455 z"
         style="font-style:normal;font-variant:normal;font-weight:normal;font-stretch:normal;font-size:2.11666656px;font-family:'Bauhaus 93';-inkscape-font-specification:'Bauhaus 93, ';fill:#ffffff;stroke-width:0.26458332"
         id="path891"
         inkscape:connector-curvature="0" />
      <path
         d="M 3.3497193,285.4632 H 3.736259 v 0.58187 q 0,0.0879 0.073381,0.0879 0.072347,0 0.072347,-0.0879 v -0.58187 h 0.3865397 v 0.57464 q 0,0.2005 -0.1333252,0.339 -0.1333252,0.13746 -0.3265951,0.13746 -0.2201416,0 -0.3545003,-0.1602 -0.1043864,-0.12506 -0.1043864,-0.34727 z"
         style="font-style:normal;font-variant:normal;font-weight:normal;font-stretch:normal;font-size:2.11666656px;font-family:'Bauhaus 93';-inkscape-font-specification:'Bauhaus 93, ';fill:#ffffff;stroke-width:0.26458332"
         id="path893"
         inkscape:connector-curvature="0" />
      <path
         d="m 4.8390342,285.06839 v 0.39481 H 5.012667 v 0.40824 H 4.8390342 q 0,0.12299 0.03824,0.1695 0.039274,0.0465 0.142627,0.0465 v 0.40618 q -0.029972,10e-4 -0.044442,10e-4 -0.1312582,0 -0.2480469,-0.061 -0.1157552,-0.061 -0.1860352,-0.16536 -0.088883,-0.13333 -0.088883,-0.35347 v -0.84646 z"
         style="font-style:normal;font-variant:normal;font-weight:normal;font-stretch:normal;font-size:2.11666656px;font-family:'Bauhaus 93';-inkscape-font-specification:'Bauhaus 93, ';fill:#ffffff;stroke-width:0.26458332"
         id="path895"
         inkscape:connector-curvature="0" />
      <path
         d="M 5.5656047,286.86053 H 5.179065 v -0.8599 q 0,-0.23668 0.1240235,-0.3855 0.071313,-0.0858 0.1808675,-0.13643 0.1105875,-0.0506 0.2263427,-0.0506 0.2304769,0 0.3886068,0.15503 0.1581299,0.15503 0.1581299,0.38034 0,0.2191 -0.1570964,0.37827 -0.1570963,0.15916 -0.3720703,0.15916 -0.03514,0 -0.1033528,-0.007 v -0.42582 q 0.047542,0.0382 0.095085,0.0382 0.059945,0 0.1023193,-0.0444 0.043408,-0.0444 0.043408,-0.10542 0,-0.061 -0.044442,-0.10335 -0.044442,-0.0434 -0.1064535,-0.0434 -0.1488281,0 -0.1488281,0.20567 z"
         style="font-style:normal;font-variant:normal;font-weight:normal;font-stretch:normal;font-size:2.11666656px;font-family:'Bauhaus 93';-inkscape-font-specification:'Bauhaus 93, ';fill:#ffffff;stroke-width:0.26458332"
         id="path897"
         inkscape:connector-curvature="0" />
      <path
         d="M 6.4255003,285.4632 H 6.81204 v 0.58187 q 0,0.0879 0.073381,0.0879 0.072347,0 0.072347,-0.0879 v -0.58187 h 0.3865397 v 0.57464 q 0,0.2005 -0.1333251,0.339 -0.1333252,0.13746 -0.3265951,0.13746 -0.2201416,0 -0.3545003,-0.1602 -0.1043864,-0.12506 -0.1043864,-0.34727 z"
         style="font-style:normal;font-variant:normal;font-weight:normal;font-stretch:normal;font-size:2.11666656px;font-family:'Bauhaus 93';-inkscape-font-specification:'Bauhaus 93, ';fill:#ffffff;stroke-width:0.26458332"
         id="path899"
         inkscape:connector-curvature="0" />
      <path
         d="m 7.9148151,285.06839 v 0.39481 h 0.1736328 v 0.40824 H 7.9148151 q 0,0.12299 0.03824,0.1695 0.039274,0.0465 0.142627,0.0465 v 0.40618 q -0.029972,10e-4 -0.044442,10e-4 -0.1312581,0 -0.2480468,-0.061 -0.1157552,-0.061 -0.1860352,-0.16536 -0.088883,-0.13333 -0.088883,-0.35347 v -0.84646 z"
         style="font-style:normal;font-variant:normal;font-weight:normal;font-stretch:normal;font-size:2.11666656px;font-family:'Bauhaus 93';-inkscape-font-specification:'Bauhaus 93, ';fill:#ffffff;stroke-width:0.26458332"
         id="path901"
         inkscape:connector-curvature="0" />
    </g>
    <path
       inkscape:connector-curvature="0"
       style="fill:#ffffff;fill-opacity:1;stroke-width:0.2916196"
       d="M 1.8529411,265 H 8.3470588 C 9.0965881,265 9.7,265.70085 9.7,266.57143 v 7.85714 C 9.7,275.29915 9.0965881,276 8.3470588,276 H 1.8529411 C 1.1034118,276 0.5,275.29915 0.5,274.42857 v -7.85714 C 0.5,265.70085 1.1034118,265 1.8529411,265 Z"
       id="rect182-7" />
    <g
       aria-label="input"
       style="font-style:normal;font-weight:normal;font-size:2.82222223px;line-height:1.25;font-family:sans-serif;letter-spacing:0px;word-spacing:0px;fill:#5fd38d;fill-opacity:1;stroke:none;stroke-width:0.26458332"
       id="text1045-7"
       transform="translate(-1.6243676e-8,11)">
      <path
         d="m 3.1590332,263.47091 v 1.03043 H 2.7724935 v -1.03043 z m -0.1922363,-0.45992 q 0.078548,0 0.1353923,0.0558 0.057878,0.0548 0.057878,0.13022 0,0.0806 -0.054777,0.13229 -0.053743,0.0517 -0.1384928,0.0517 -0.084749,0 -0.1395264,-0.0517 -0.053743,-0.0517 -0.053743,-0.13229 0,-0.0754 0.056844,-0.13022 0.057878,-0.0558 0.1364249,-0.0558 z"
         style="font-style:normal;font-variant:normal;font-weight:normal;font-stretch:normal;font-size:2.11666656px;font-family:'Bauhaus 93';-inkscape-font-specification:'Bauhaus 93, ';fill:#5fd38d;fill-opacity:1;stroke-width:0.26458332"
         id="path904"
         inkscape:connector-curvature="0" />
      <path
         d="M 4.3072835,264.50134 H 3.9207438 v -0.58187 q 0,-0.0889 -0.07338,-0.0889 -0.072347,0 -0.072347,0.0889 v 0.58187 H 3.3884766 v -0.57464 q 0,-0.20154 0.1333252,-0.339 0.1333252,-0.13849 0.326595,-0.13849 0.2211751,0 0.3545003,0.1602 0.1043864,0.12505 0.1043864,0.3483 z"
         style="font-style:normal;font-variant:normal;font-weight:normal;font-stretch:normal;font-size:2.11666656px;font-family:'Bauhaus 93';-inkscape-font-specification:'Bauhaus 93, ';fill:#5fd38d;fill-opacity:1;stroke-width:0.26458332"
         id="path906"
         inkscape:connector-curvature="0" />
      <path
         d="M 4.8974283,264.88271 H 4.5108886 v -0.85989 q 0,-0.23668 0.1240235,-0.38551 0.071313,-0.0858 0.1808675,-0.13642 0.1105875,-0.0507 0.2263427,-0.0507 0.2304769,0 0.3886068,0.15503 0.1581298,0.15503 0.1581298,0.38034 0,0.21911 -0.1570963,0.37827 -0.1570964,0.15917 -0.3720703,0.15917 -0.03514,0 -0.1033529,-0.007 v -0.426 q 0.047542,0.0382 0.095085,0.0382 0.059945,0 0.1023193,-0.0444 0.043408,-0.0444 0.043408,-0.10542 0,-0.061 -0.044442,-0.10336 -0.044442,-0.0434 -0.1064535,-0.0434 -0.1488281,0 -0.1488281,0.20567 z"
         style="font-style:normal;font-variant:normal;font-weight:normal;font-stretch:normal;font-size:2.11666656px;font-family:'Bauhaus 93';-inkscape-font-specification:'Bauhaus 93, ';fill:#5fd38d;fill-opacity:1;stroke-width:0.26458332"
         id="path908"
         inkscape:connector-curvature="0" />
      <path
         d="m 5.7573241,263.48538 h 0.3865397 v 0.58188 q 0,0.0879 0.073381,0.0879 0.072347,0 0.072347,-0.0879 v -0.58188 h 0.3865397 v 0.57465 q 0,0.2005 -0.1333252,0.33899 -0.1333252,0.13746 -0.3265951,0.13746 -0.2201415,0 -0.3545003,-0.16019 -0.1043864,-0.12506 -0.1043864,-0.34727 z"
         style="font-style:normal;font-variant:normal;font-weight:normal;font-stretch:normal;font-size:2.11666656px;font-family:'Bauhaus 93';-inkscape-font-specification:'Bauhaus 93, ';fill:#5fd38d;fill-opacity:1;stroke-width:0.26458332"
         id="path910"
         inkscape:connector-curvature="0" />
      <path
         d="m 7.2466391,263.09058 v 0.3948 h 0.1736328 v 0.40825 H 7.2466391 q 0,0.12299 0.038241,0.1695 0.039274,0.0465 0.1426269,0.0465 v 0.40617 q -0.029972,10e-4 -0.044442,10e-4 -0.1312581,0 -0.2480469,-0.061 Q 7.0192629,264.3948 6.948983,264.29043 6.8601,264.15711 6.8601,263.93697 v -0.84646 z"
         style="font-style:normal;font-variant:normal;font-weight:normal;font-stretch:normal;font-size:2.11666656px;font-family:'Bauhaus 93';-inkscape-font-specification:'Bauhaus 93, ';fill:#5fd38d;fill-opacity:1;stroke-width:0.26458332"
         id="path912"
         inkscape:connector-curvature="0" />
    </g>
    <g
       style="display:inline"
       id="g1583"
       transform="translate(0,-5.2916669)">
      <rect
         y="293.75"
         x="2.5999999"
         height="2.5"
         width="5"
         id="rect1572"
         style="opacity:1;fill:#ffffff;fill-opacity:1;stroke:#8c8c8c;stroke-width:0.02;stroke-linecap:butt;stroke-linejoin:round;stroke-miterlimit:4;stroke-dasharray:none;stroke-opacity:1;paint-order:markers fill stroke" />
      <g
         id="text1570"
         style="font-style:normal;font-variant:normal;font-weight:normal;font-stretch:normal;font-size:2.82222223px;line-height:1.25;font-family:'Bauhaus 93';-inkscape-font-specification:'Bauhaus 93, ';letter-spacing:0px;word-spacing:0px;fill:#000000;fill-opacity:1;stroke:none;stroke-width:0.26458332"
         aria-label="mm">
        <path
           inkscape:connector-curvature="0"
           id="path1574"
           style="stroke-width:0.26458332"
           d="M 4.9484157,295.70074 H 4.4330294 v -0.74138 q 0,-0.0854 -0.017914,-0.11851 -0.017914,-0.0331 -0.064768,-0.0331 -0.086816,0 -0.086816,0.15296 v 0.74 h -0.515387 v -0.74138 q 0,-0.0854 -0.019293,-0.11851 -0.017914,-0.0331 -0.064768,-0.0331 -0.085438,0 -0.085438,0.15296 v 0.74 h -0.515386 v -0.84611 q 0,-0.23151 0.1557184,-0.39274 0.1557183,-0.16261 0.3775824,-0.16261 0.2287544,0 0.4106554,0.19293 0.2025716,-0.19293 0.4051432,-0.19293 0.2576932,0 0.4134115,0.18741 0.1226454,0.14608 0.1226454,0.42582 z" />
        <path
           inkscape:connector-curvature="0"
           id="path1576"
           style="stroke-width:0.26458332"
           d="M 7.1367404,295.70074 H 6.6213541 v -0.74138 q 0,-0.0854 -0.017914,-0.11851 -0.017914,-0.0331 -0.064768,-0.0331 -0.086816,0 -0.086816,0.15296 v 0.74 h -0.515387 v -0.74138 q 0,-0.0854 -0.019292,-0.11851 -0.017915,-0.0331 -0.064768,-0.0331 -0.085438,0 -0.085438,0.15296 v 0.74 h -0.515387 v -0.84611 q 0,-0.23151 0.1557183,-0.39274 0.1557184,-0.16261 0.3775825,-0.16261 0.2287544,0 0.4106554,0.19293 0.2025716,-0.19293 0.4051432,-0.19293 0.2576932,0 0.4134115,0.18741 0.1226454,0.14608 0.1226454,0.42582 z" />
      </g>
    </g>
    <path
       inkscape:connector-curvature="0"
       style="display:inline;fill:#ffffff;fill-opacity:1;stroke-width:0.2916196"
       d="M 1.8529411,254 H 8.3470588 C 9.0965881,254 9.7,254.70085 9.7,255.57143 v 7.85714 C 9.7,264.29915 9.0965881,265 8.3470588,265 H 1.8529411 c -0.7495293,0 -1.35294112,-0.70085 -1.35294112,-1.57143 v -7.85714 C 0.49999998,254.70085 1.1034118,254 1.8529411,254 Z"
       id="rect182-7-2-7" />
    <g
       aria-label="trigger"
       style="font-style:normal;font-variant:normal;font-weight:normal;font-stretch:normal;font-size:2.11666656px;line-height:1.25;font-family:'Bauhaus 93';-inkscape-font-specification:'Bauhaus 93, ';letter-spacing:0px;word-spacing:0px;fill:#5fd38d;fill-opacity:1;stroke:none;stroke-width:0.26458332"
       id="text945">
      <path
         d="m 2.3756187,263.09641 v 0.3948 h 0.1736328 v 0.40825 H 2.3756187 q 0,0.12299 0.038241,0.1695 0.039274,0.0465 0.142627,0.0465 v 0.40618 q -0.029972,0.001 -0.044442,0.001 -0.1312582,0 -0.2480469,-0.061 -0.1157552,-0.061 -0.1860352,-0.16537 -0.088883,-0.13332 -0.088883,-0.35346 v -0.84646 z"
         style="fill:#5fd38d;stroke-width:0.26458332"
         id="path1048" />
      <path
         d="m 3.3037274,263.46641 v 0.41341 q -0.040308,-0.0227 -0.073381,-0.0227 -0.1054199,0 -0.1054199,0.16123 v 0.48886 H 2.7383872 v -0.56327 q 0,-0.22324 0.1219564,-0.35554 0.1219564,-0.13332 0.3255615,-0.13332 0.045475,0 0.1178223,0.0114 z"
         style="fill:#5fd38d;stroke-width:0.26458332"
         id="path1050" />
      <path
         d="m 3.8029216,263.47674 v 1.03043 H 3.4163819 v -1.03043 z m -0.1922363,-0.45992 q 0.078548,0 0.1353922,0.0558 0.057878,0.0548 0.057878,0.13023 0,0.0806 -0.054777,0.13229 -0.053743,0.0517 -0.1384928,0.0517 -0.084749,0 -0.1395264,-0.0517 -0.053743,-0.0517 -0.053743,-0.13229 0,-0.0754 0.056844,-0.13023 0.057878,-0.0558 0.1364258,-0.0558 z"
         style="fill:#5fd38d;stroke-width:0.26458332"
         id="path1052" />
      <path
         d="m 4.5822021,264.08239 v 0.3545 q -0.083716,0.031 -0.1601969,0.031 -0.1870687,0 -0.3172933,-0.1416 -0.1291911,-0.14159 -0.1291911,-0.34623 0,-0.22117 0.1560628,-0.3731 0.1560629,-0.15193 0.3834391,-0.15193 0.1209229,0 0.2315105,0.0486 0.1105875,0.0486 0.1736328,0.13022 0.1054199,0.13539 0.1054199,0.39274 v 0.339 q 0,0.27595 -0.1570964,0.44752 -0.1560628,0.1726 -0.4072102,0.1726 -0.076481,0 -0.1932699,-0.0383 v -0.35139 q 0.075448,0.0413 0.1529622,0.0413 0.1043864,0 0.1612305,-0.0693 0.056844,-0.0682 0.056844,-0.19637 v -0.38757 q 0,-0.16227 -0.1312582,-0.16227 -0.05581,0 -0.098185,0.0434 -0.041341,0.0424 -0.041341,0.0982 0,0.0589 0.039274,0.0982 0.040308,0.0393 0.099219,0.0393 0.039274,0 0.075448,-0.0186 z"
         style="fill:#5fd38d;stroke-width:0.26458332"
         id="path1054" />
      <path
         d="m 5.8017661,264.08239 v 0.3545 q -0.083716,0.031 -0.160197,0.031 -0.1870686,0 -0.3172932,-0.1416 -0.1291911,-0.14159 -0.1291911,-0.34623 0,-0.22117 0.1560628,-0.3731 0.1560628,-0.15193 0.3834391,-0.15193 0.1209229,0 0.2315104,0.0486 0.1105876,0.0486 0.1736328,0.13022 0.1054199,0.13539 0.1054199,0.39274 v 0.339 q 0,0.27595 -0.1570963,0.44752 -0.1560628,0.1726 -0.4072103,0.1726 -0.076481,0 -0.1932698,-0.0383 v -0.35139 q 0.075448,0.0413 0.1529622,0.0413 0.1043864,0 0.1612305,-0.0693 0.056844,-0.0682 0.056844,-0.19637 v -0.38757 q 0,-0.16227 -0.1312581,-0.16227 -0.05581,0 -0.098185,0.0434 -0.041341,0.0424 -0.041341,0.0982 0,0.0589 0.039274,0.0982 0.040308,0.0393 0.099219,0.0393 0.039274,0 0.075448,-0.0186 z"
         style="fill:#5fd38d;stroke-width:0.26458332"
         id="path1056" />
      <path
         d="M 7.4843504,264.05449 H 6.8983396 q -0.013436,-0.0444 -0.013436,-0.0816 0,-0.0517 0.018604,-0.10129 h 0.1963704 q -0.020671,-0.11472 -0.1291911,-0.11472 -0.072347,0 -0.1178222,0.062 -0.045475,0.061 -0.045475,0.1571 0,0.10025 0.043408,0.16226 0.044442,0.062 0.1157552,0.062 0.057878,0 0.1116211,-0.0579 l 0.2201416,0.26458 q -0.1539957,0.12092 -0.342098,0.12092 -0.2294433,0 -0.3855061,-0.15399 -0.1560628,-0.154 -0.1560628,-0.38138 0,-0.22634 0.1570963,-0.3824 0.1581299,-0.15606 0.3875732,-0.15606 0.2242757,0 0.3762044,0.15296 0.1529623,0.15193 0.1529623,0.37517 0,0.0227 -0.00413,0.0723 z"
         style="fill:#5fd38d;stroke-width:0.26458332"
         id="path1058" />
      <path
         d="m 8.210921,263.46641 v 0.41341 q -0.040308,-0.0227 -0.073381,-0.0227 -0.1054199,0 -0.1054199,0.16123 v 0.48886 H 7.6455808 v -0.56327 q 0,-0.22324 0.1219564,-0.35554 0.1219564,-0.13332 0.3255615,-0.13332 0.045475,0 0.1178223,0.0114 z"
         style="fill:#5fd38d;stroke-width:0.26458332"
         id="path1060" />
    </g>
    <path
       inkscape:connector-curvature="0"
       style="display:inline;fill:#5fd38d;fill-opacity:1;stroke-width:0.2916196"
       d="m 1.852941,243 h 6.4941178 c 0.7495294,0 1.3529413,0.70085 1.3529413,1.57143 v 7.85714 C 9.7000001,253.29915 9.0965882,254 8.3470588,254 H 1.852941 c -0.7495292,0 -1.35294109,-0.70085 -1.35294109,-1.57143 v -7.85714 C 0.49999991,243.70085 1.1034118,243 1.852941,243 Z"
       id="rect182-9" />
    <g
       aria-label="output"
       style="font-style:normal;font-weight:normal;font-size:2.82222223px;line-height:1.25;font-family:sans-serif;letter-spacing:0px;word-spacing:0px;display:inline;fill:#ffffff;fill-opacity:1;stroke:none;stroke-width:0.26458332"
       id="text1045-73"
       transform="translate(1.4251264e-7,-33.011682)">
      <path
         d="m 2.6562216,285.42702 q 0.2191081,0 0.3751709,0.15813 0.1570964,0.1571 0.1570964,0.37724 0,0.22324 -0.1591634,0.38034 -0.1581299,0.1571 -0.3824056,0.1571 -0.2242757,0 -0.3834391,-0.1571 -0.1591634,-0.15813 -0.1591634,-0.38034 0,-0.22634 0.1591634,-0.38034 0.1591634,-0.15503 0.3927408,-0.15503 z m -0.010335,0.38138 q -0.062012,0 -0.10542,0.0455 -0.043408,0.0444 -0.043408,0.10956 0,0.0641 0.043408,0.10955 0.044442,0.0455 0.10542,0.0455 0.062012,0 0.1054199,-0.0455 0.044442,-0.0455 0.044442,-0.10955 0,-0.0651 -0.043408,-0.10956 -0.043408,-0.0455 -0.1064539,-0.0455 z"
         style="font-style:normal;font-variant:normal;font-weight:normal;font-stretch:normal;font-size:2.11666656px;font-family:'Bauhaus 93';-inkscape-font-specification:'Bauhaus 93, ';fill:#ffffff;stroke-width:0.26458332"
         id="path891-6"
         inkscape:connector-curvature="0" />
      <path
         d="M 3.3497193,285.4632 H 3.736259 v 0.58187 q 0,0.0879 0.073381,0.0879 0.072347,0 0.072347,-0.0879 v -0.58187 h 0.3865397 v 0.57464 q 0,0.2005 -0.1333252,0.339 -0.1333252,0.13746 -0.3265951,0.13746 -0.2201416,0 -0.3545003,-0.1602 -0.1043864,-0.12506 -0.1043864,-0.34727 z"
         style="font-style:normal;font-variant:normal;font-weight:normal;font-stretch:normal;font-size:2.11666656px;font-family:'Bauhaus 93';-inkscape-font-specification:'Bauhaus 93, ';fill:#ffffff;stroke-width:0.26458332"
         id="path893-8"
         inkscape:connector-curvature="0" />
      <path
         d="m 4.8390342,285.06839 v 0.39481 H 5.012667 v 0.40824 H 4.8390342 q 0,0.12299 0.03824,0.1695 0.039274,0.0465 0.142627,0.0465 v 0.40618 q -0.029972,10e-4 -0.044442,10e-4 -0.1312582,0 -0.2480469,-0.061 -0.1157552,-0.061 -0.1860352,-0.16536 -0.088883,-0.13333 -0.088883,-0.35347 v -0.84646 z"
         style="font-style:normal;font-variant:normal;font-weight:normal;font-stretch:normal;font-size:2.11666656px;font-family:'Bauhaus 93';-inkscape-font-specification:'Bauhaus 93, ';fill:#ffffff;stroke-width:0.26458332"
         id="path895-8"
         inkscape:connector-curvature="0" />
      <path
         d="M 5.5656047,286.86053 H 5.179065 v -0.8599 q 0,-0.23668 0.1240235,-0.3855 0.071313,-0.0858 0.1808675,-0.13643 0.1105875,-0.0506 0.2263427,-0.0506 0.2304769,0 0.3886068,0.15503 0.1581299,0.15503 0.1581299,0.38034 0,0.2191 -0.1570964,0.37827 -0.1570963,0.15916 -0.3720703,0.15916 -0.03514,0 -0.1033528,-0.007 v -0.42582 q 0.047542,0.0382 0.095085,0.0382 0.059945,0 0.1023193,-0.0444 0.043408,-0.0444 0.043408,-0.10542 0,-0.061 -0.044442,-0.10335 -0.044442,-0.0434 -0.1064535,-0.0434 -0.1488281,0 -0.1488281,0.20567 z"
         style="font-style:normal;font-variant:normal;font-weight:normal;font-stretch:normal;font-size:2.11666656px;font-family:'Bauhaus 93';-inkscape-font-specification:'Bauhaus 93, ';fill:#ffffff;stroke-width:0.26458332"
         id="path897-8"
         inkscape:connector-curvature="0" />
      <path
         d="M 6.4255003,285.4632 H 6.81204 v 0.58187 q 0,0.0879 0.073381,0.0879 0.072347,0 0.072347,-0.0879 v -0.58187 h 0.3865397 v 0.57464 q 0,0.2005 -0.1333251,0.339 -0.1333252,0.13746 -0.3265951,0.13746 -0.2201416,0 -0.3545003,-0.1602 -0.1043864,-0.12506 -0.1043864,-0.34727 z"
         style="font-style:normal;font-variant:normal;font-weight:normal;font-stretch:normal;font-size:2.11666656px;font-family:'Bauhaus 93';-inkscape-font-specification:'Bauhaus 93, ';fill:#ffffff;stroke-width:0.26458332"
         id="path899-6"
         inkscape:connector-curvature="0" />
      <path
         d="m 7.9148151,285.06839 v 0.39481 h 0.1736328 v 0.40824 H 7.9148151 q 0,0.12299 0.03824,0.1695 0.039274,0.0465 0.142627,0.0465 v 0.40618 q -0.029972,10e-4 -0.044442,10e-4 -0.1312581,0 -0.2480468,-0.061 -0.1157552,-0.061 -0.1860352,-0.16536 -0.088883,-0.13333 -0.088883,-0.35347 v -0.84646 z"
         style="font-style:normal;font-variant:normal;font-weight:normal;font-stretch:normal;font-size:2.11666656px;font-family:'Bauhaus 93';-inkscape-font-specification:'Bauhaus 93, ';fill:#ffffff;stroke-width:0.26458332"
         id="path901-4"
         inkscape:connector-curvature="0" />
    </g>
    <path
       inkscape:connector-curvature="0"
       style="display:inline;fill:#ffffff;fill-opacity:1;stroke-width:0.2916196"
       d="m 1.852941,232 h 6.4941178 c 0.7495294,0 1.3529413,0.70085 1.3529413,1.57143 v 7.85714 C 9.7000001,242.29915 9.0965882,243 8.3470588,243 H 1.852941 c -0.7495292,0 -1.35294107,-0.70085 -1.35294107,-1.57143 v -7.85714 C 0.49999993,232.70085 1.1034118,232 1.852941,232 Z"
       id="rect182-7-3" />
    <g
       aria-label="input"
       style="font-style:normal;font-weight:normal;font-size:2.82222223px;line-height:1.25;font-family:sans-serif;letter-spacing:0px;word-spacing:0px;display:inline;fill:#5fd38d;fill-opacity:1;stroke:none;stroke-width:0.26458332"
       id="text1045-7-4"
       transform="translate(-6.7487351e-8,-22.000004)">
      <path
         d="m 3.1590332,263.47091 v 1.03043 H 2.7724935 v -1.03043 z m -0.1922363,-0.45992 q 0.078548,0 0.1353923,0.0558 0.057878,0.0548 0.057878,0.13022 0,0.0806 -0.054777,0.13229 -0.053743,0.0517 -0.1384928,0.0517 -0.084749,0 -0.1395264,-0.0517 -0.053743,-0.0517 -0.053743,-0.13229 0,-0.0754 0.056844,-0.13022 0.057878,-0.0558 0.1364249,-0.0558 z"
         style="font-style:normal;font-variant:normal;font-weight:normal;font-stretch:normal;font-size:2.11666656px;font-family:'Bauhaus 93';-inkscape-font-specification:'Bauhaus 93, ';fill:#5fd38d;fill-opacity:1;stroke-width:0.26458332"
         id="path904-0"
         inkscape:connector-curvature="0" />
      <path
         d="M 4.3072835,264.50134 H 3.9207438 v -0.58187 q 0,-0.0889 -0.07338,-0.0889 -0.072347,0 -0.072347,0.0889 v 0.58187 H 3.3884766 v -0.57464 q 0,-0.20154 0.1333252,-0.339 0.1333252,-0.13849 0.326595,-0.13849 0.2211751,0 0.3545003,0.1602 0.1043864,0.12505 0.1043864,0.3483 z"
         style="font-style:normal;font-variant:normal;font-weight:normal;font-stretch:normal;font-size:2.11666656px;font-family:'Bauhaus 93';-inkscape-font-specification:'Bauhaus 93, ';fill:#5fd38d;fill-opacity:1;stroke-width:0.26458332"
         id="path906-7"
         inkscape:connector-curvature="0" />
      <path
         d="M 4.8974283,264.88271 H 4.5108886 v -0.85989 q 0,-0.23668 0.1240235,-0.38551 0.071313,-0.0858 0.1808675,-0.13642 0.1105875,-0.0507 0.2263427,-0.0507 0.2304769,0 0.3886068,0.15503 0.1581298,0.15503 0.1581298,0.38034 0,0.21911 -0.1570963,0.37827 -0.1570964,0.15917 -0.3720703,0.15917 -0.03514,0 -0.1033529,-0.007 v -0.426 q 0.047542,0.0382 0.095085,0.0382 0.059945,0 0.1023193,-0.0444 0.043408,-0.0444 0.043408,-0.10542 0,-0.061 -0.044442,-0.10336 -0.044442,-0.0434 -0.1064535,-0.0434 -0.1488281,0 -0.1488281,0.20567 z"
         style="font-style:normal;font-variant:normal;font-weight:normal;font-stretch:normal;font-size:2.11666656px;font-family:'Bauhaus 93';-inkscape-font-specification:'Bauhaus 93, ';fill:#5fd38d;fill-opacity:1;stroke-width:0.26458332"
         id="path908-5"
         inkscape:connector-curvature="0" />
      <path
         d="m 5.7573241,263.48538 h 0.3865397 v 0.58188 q 0,0.0879 0.073381,0.0879 0.072347,0 0.072347,-0.0879 v -0.58188 h 0.3865397 v 0.57465 q 0,0.2005 -0.1333252,0.33899 -0.1333252,0.13746 -0.3265951,0.13746 -0.2201415,0 -0.3545003,-0.16019 -0.1043864,-0.12506 -0.1043864,-0.34727 z"
         style="font-style:normal;font-variant:normal;font-weight:normal;font-stretch:normal;font-size:2.11666656px;font-family:'Bauhaus 93';-inkscape-font-specification:'Bauhaus 93, ';fill:#5fd38d;fill-opacity:1;stroke-width:0.26458332"
         id="path910-7"
         inkscape:connector-curvature="0" />
      <path
         d="m 7.2466391,263.09058 v 0.3948 h 0.1736328 v 0.40825 H 7.2466391 q 0,0.12299 0.038241,0.1695 0.039274,0.0465 0.1426269,0.0465 v 0.40617 q -0.029972,10e-4 -0.044442,10e-4 -0.1312581,0 -0.2480469,-0.061 Q 7.0192629,264.3948 6.948983,264.29043 6.8601,264.15711 6.8601,263.93697 v -0.84646 z"
         style="font-style:normal;font-variant:normal;font-weight:normal;font-stretch:normal;font-size:2.11666656px;font-family:'Bauhaus 93';-inkscape-font-specification:'Bauhaus 93, ';fill:#5fd38d;fill-opacity:1;stroke-width:0.26458332"
         id="path912-6"
         inkscape:connector-curvature="0" />
    </g>
    <path
       inkscape:connector-curvature="0"
       style="display:inline;fill:#ffffff;fill-opacity:1;stroke-width:0.2916196"
       d="m 1.852941,221 h 6.4941178 c 0.7495294,0 1.3529413,0.70085 1.3529413,1.57143 v 7.85714 C 9.7000001,231.29915 9.0965882,232 8.3470588,232 H 1.852941 c -0.7495292,0 -1.35294109,-0.70085 -1.35294109,-1.57143 v -7.85714 C 0.49999991,221.70085 1.1034118,221 1.852941,221 Z"
       id="rect182-7-2-7-3" />
    <g
       aria-label="trigger"
       style="font-style:normal;font-variant:normal;font-weight:normal;font-stretch:normal;font-size:2.11666656px;line-height:1.25;font-family:'Bauhaus 93';-inkscape-font-specification:'Bauhaus 93, ';letter-spacing:0px;word-spacing:0px;display:inline;fill:#5fd38d;fill-opacity:1;stroke:none;stroke-width:0.26458332"
       id="text945-6">
      <path
         d="m 2.3756187,230.09641 v 0.3948 h 0.1736328 v 0.40825 H 2.3756187 q 0,0.12299 0.038241,0.1695 0.039274,0.0465 0.142627,0.0465 v 0.40618 q -0.029972,0.001 -0.044442,0.001 -0.1312582,0 -0.2480469,-0.061 -0.1157552,-0.061 -0.1860352,-0.16537 -0.088883,-0.13332 -0.088883,-0.35346 v -0.84646 z"
         style="fill:#5fd38d;stroke-width:0.26458332"
         id="path1033" />
      <path
         d="m 3.3037274,230.46641 v 0.41341 q -0.040308,-0.0227 -0.073381,-0.0227 -0.1054199,0 -0.1054199,0.16123 v 0.48886 H 2.7383872 v -0.56327 q 0,-0.22324 0.1219564,-0.35554 0.1219564,-0.13332 0.3255615,-0.13332 0.045475,0 0.1178223,0.0114 z"
         style="fill:#5fd38d;stroke-width:0.26458332"
         id="path1035" />
      <path
         d="m 3.8029216,230.47674 v 1.03043 H 3.4163819 v -1.03043 z m -0.1922363,-0.45992 q 0.078548,0 0.1353922,0.0558 0.057878,0.0548 0.057878,0.13023 0,0.0806 -0.054777,0.13229 -0.053743,0.0517 -0.1384928,0.0517 -0.084749,0 -0.1395264,-0.0517 -0.053743,-0.0517 -0.053743,-0.13229 0,-0.0754 0.056844,-0.13023 0.057878,-0.0558 0.1364258,-0.0558 z"
         style="fill:#5fd38d;stroke-width:0.26458332"
         id="path1037" />
      <path
         d="m 4.5822021,231.08239 v 0.3545 q -0.083716,0.031 -0.1601969,0.031 -0.1870687,0 -0.3172933,-0.1416 -0.1291911,-0.14159 -0.1291911,-0.34623 0,-0.22117 0.1560628,-0.3731 0.1560629,-0.15193 0.3834391,-0.15193 0.1209229,0 0.2315105,0.0486 0.1105875,0.0486 0.1736328,0.13022 0.1054199,0.13539 0.1054199,0.39274 v 0.339 q 0,0.27595 -0.1570964,0.44752 -0.1560628,0.1726 -0.4072102,0.1726 -0.076481,0 -0.1932699,-0.0383 v -0.35139 q 0.075448,0.0413 0.1529622,0.0413 0.1043864,0 0.1612305,-0.0693 0.056844,-0.0682 0.056844,-0.19637 v -0.38757 q 0,-0.16227 -0.1312582,-0.16227 -0.05581,0 -0.098185,0.0434 -0.041341,0.0424 -0.041341,0.0982 0,0.0589 0.039274,0.0982 0.040308,0.0393 0.099219,0.0393 0.039274,0 0.075448,-0.0186 z"
         style="fill:#5fd38d;stroke-width:0.26458332"
         id="path1039" />
      <path
         d="m 5.8017661,231.08239 v 0.3545 q -0.083716,0.031 -0.160197,0.031 -0.1870686,0 -0.3172932,-0.1416 -0.1291911,-0.14159 -0.1291911,-0.34623 0,-0.22117 0.1560628,-0.3731 0.1560628,-0.15193 0.3834391,-0.15193 0.1209229,0 0.2315104,0.0486 0.1105876,0.0486 0.1736328,0.13022 0.1054199,0.13539 0.1054199,0.39274 v 0.339 q 0,0.27595 -0.1570963,0.44752 -0.1560628,0.1726 -0.4072103,0.1726 -0.076481,0 -0.1932698,-0.0383 v -0.35139 q 0.075448,0.0413 0.1529622,0.0413 0.1043864,0 0.1612305,-0.0693 0.056844,-0.0682 0.056844,-0.19637 v -0.38757 q 0,-0.16227 -0.1312581,-0.16227 -0.05581,0 -0.098185,0.0434 -0.041341,0.0424 -0.041341,0.0982 0,0.0589 0.039274,0.0982 0.040308,0.0393 0.099219,0.0393 0.039274,0 0.075448,-0.0186 z"
         style="fill:#5fd38d;stroke-width:0.26458332"
         id="path1041" />
      <path
         d="M 7.4843504,231.05449 H 6.8983396 q -0.013436,-0.0444 -0.013436,-0.0816 0,-0.0517 0.018604,-0.10129 h 0.1963704 q -0.020671,-0.11472 -0.1291911,-0.11472 -0.072347,0 -0.1178222,0.062 -0.045475,0.061 -0.045475,0.1571 0,0.10025 0.043408,0.16226 0.044442,0.062 0.1157552,0.062 0.057878,0 0.1116211,-0.0579 l 0.2201416,0.26458 q -0.1539957,0.12092 -0.342098,0.12092 -0.2294433,0 -0.3855061,-0.15399 -0.1560628,-0.154 -0.1560628,-0.38138 0,-0.22634 0.1570963,-0.3824 0.1581299,-0.15606 0.3875732,-0.15606 0.2242757,0 0.3762044,0.15296 0.1529623,0.15193 0.1529623,0.37517 0,0.0227 -0.00413,0.0724 z"
         style="fill:#5fd38d;stroke-width:0.26458332"
         id="path1043" />
      <path
         d="m 8.210921,230.46641 v 0.41341 q -0.040308,-0.0227 -0.073381,-0.0227 -0.1054199,0 -0.1054199,0.16123 v 0.48886 H 7.6455808 v -0.56327 q 0,-0.22324 0.1219564,-0.35554 0.1219564,-0.13332 0.3255615,-0.13332 0.045475,0 0.1178223,0.0114 z"
         style="fill:#5fd38d;stroke-width:0.26458332"
         id="path1045" />
    </g>
    <g
       aria-label="holdah"
       transform="rotate(90)"
       style="font-style:normal;font-variant:normal;font-weight:normal;font-stretch:normal;font-size:8.46666622px;line-height:1.25;font-family:'Bauhaus 93';-inkscape-font-specification:'Bauhaus 93, ';letter-spacing:0px;word-spacing:0px;fill:#5fd38d;fill-opacity:1;stroke:none;stroke-width:0.26458332"
       id="text1018">
      <path
         d="m 175.94331,-7.9649412 v 1.7239257 q 0.39274,-0.2852539 0.78548,-0.2852539 0.59531,0 0.94258,0.4299479 0.3514,0.4299479 0.3514,1.1616861 v 2.6127603 h -1.54616 v -2.1786783 q 0,-0.2645833 -0.0579,-0.3555338 -0.0537,-0.09095 -0.21497,-0.09095 -0.26045,0 -0.26045,0.3844726 v 2.24069 h -1.54616 v -5.6430661 z"
         style="stroke-width:0.26458332;fill:#5fd38d;fill-opacity:1"
         id="path1020" />
      <path
         d="m 180.88358,-6.5304035 q 0.87643,0 1.50068,0.6325195 0.62839,0.6283854 0.62839,1.5089517 0,0.8929687 -0.63666,1.5213541 -0.63252,0.6283854 -1.52962,0.6283854 -0.8971,0 -1.53376,-0.6283854 -0.63665,-0.6325195 -0.63665,-1.5213541 0,-0.905371 0.63665,-1.5213541 0.63666,-0.6201171 1.57097,-0.6201171 z m -0.0413,1.5254882 q -0.24805,0 -0.42168,0.181901 -0.17364,0.1777669 -0.17364,0.4382161 0,0.2563151 0.17364,0.4382162 0.17776,0.181901 0.42168,0.181901 0.24804,0 0.42168,-0.181901 0.17776,-0.1819011 0.17776,-0.4382162 0,-0.2604492 -0.17363,-0.4382161 -0.17363,-0.181901 -0.42581,-0.181901 z"
         style="stroke-width:0.26458332;fill:#5fd38d;fill-opacity:1"
         id="path1022" />
      <path
         d="m 185.20373,-7.9649412 v 5.6430661 h -1.54616 v -5.6430661 z"
         style="stroke-width:0.26458332;fill:#5fd38d;fill-opacity:1"
         id="path1024" />
      <path
         d="m 188.64331,-7.9649412 h 1.54616 v 3.435449 q 0,0.9467122 -0.4961,1.5420247 -0.28525,0.3431315 -0.7276,0.5457031 -0.43822,0.2025716 -0.90124,0.2025716 -0.9219,0 -1.55442,-0.6201172 -0.63252,-0.6201171 -0.63252,-1.521354 0,-0.8722982 0.62838,-1.5089518 0.62839,-0.6366536 1.48828,-0.6366536 0.13643,0 0.41341,0.024805 v 1.7032551 q -0.19016,-0.1488281 -0.38033,-0.1488281 -0.23978,0 -0.41342,0.1777669 -0.16949,0.1736328 -0.16949,0.4216797 0,0.2397786 0.17776,0.4134114 0.17777,0.1694987 0.42582,0.1694987 0.59531,0 0.59531,-0.8226888 z"
         style="stroke-width:0.26458332;fill:#5fd38d;fill-opacity:1"
         id="path1026" />
      <path
         d="m 193.29005,-3.8680339 v 1.5999023 q -0.19016,0.033073 -0.34726,0.033073 -0.93018,0 -1.55029,-0.6118489 -0.62012,-0.6118489 -0.62012,-1.5337564 0,-0.8971029 0.62425,-1.5213541 0.62839,-0.6242513 1.52549,-0.6242513 1.00045,0 1.5751,0.5870442 0.57877,0.5829102 0.57877,1.5957682 v 2.0215819 h -1.54616 v -1.9099608 q 0,-0.3265951 -0.16123,-0.5208984 -0.15709,-0.1943034 -0.42581,-0.1943034 -0.24391,0 -0.42168,0.1777669 -0.17777,0.1777669 -0.17777,0.4216797 0,0.2563151 0.16123,0.4216796 0.16123,0.1653646 0.40928,0.1653646 0.20257,0 0.3762,-0.107487 z"
         style="stroke-width:0.26458332;fill:#5fd38d;fill-opacity:1"
         id="path1028" />
      <path
         d="m 197.52339,-7.9649412 v 1.7239257 q 0.39274,-0.2852539 0.78548,-0.2852539 0.59531,0 0.94258,0.4299479 0.3514,0.4299479 0.3514,1.1616861 v 2.6127603 h -1.54616 v -2.1786783 q 0,-0.2645833 -0.0579,-0.3555338 -0.0537,-0.09095 -0.21497,-0.09095 -0.26045,0 -0.26045,0.3844726 v 2.24069 h -1.54616 v -5.6430661 z"
         style="stroke-width:0.26458332;fill:#5fd38d;fill-opacity:1"
         id="path1030" />
    </g>
  </g>
  <g
     inkscape:groupmode="layer"
     id="layer2"
     inkscape:label="components"
     style="display:none">
    <circle
       cy="90"
       cx="5.0999999"
       id="circle164-0"
       style="display:inline;fill:#00ff00;stroke-width:0.24907795"
       inkscape:label="_input"
       r="4.25" />
    <circle
       style="display:inline;fill:#0000ff;stroke-width:0.24907796"
       id="circle166"
       cx="5.0999999"
       cy="101"
       inkscape:label="_output"
       r="4.25" />
    <circle
       style="display:inline;fill:#ff0000;stroke-width:0.24907795"
       id="path162"
       cx="5.0999999"
       cy="57"
       inkscape:label="_level"
       r="4.25" />
  </g>
</svg>
