<?xml version="1.0" encoding="UTF-8" standalone="no"?>
<svg
   xmlns:dc="http://purl.org/dc/elements/1.1/"
   xmlns:cc="http://creativecommons.org/ns#"
   xmlns:rdf="http://www.w3.org/1999/02/22-rdf-syntax-ns#"
   xmlns:svg="http://www.w3.org/2000/svg"
   xmlns="http://www.w3.org/2000/svg"
   xmlns:sodipodi="http://sodipodi.sourceforge.net/DTD/sodipodi-0.dtd"
   xmlns:inkscape="http://www.inkscape.org/namespaces/inkscape"
   version="1.1"
   width="8.4666662mm"
   height="8.4666662mm"
   viewBox="0 0 32 31.999999"
   id="svg10"
   sodipodi:docname="knob.svg"
   inkscape:version="0.92.3 (2405546, 2018-03-11)">
  <metadata
     id="metadata16">
    <rdf:RDF>
      <cc:Work
         rdf:about="">
        <dc:format>image/svg+xml</dc:format>
        <dc:type
           rdf:resource="http://purl.org/dc/dcmitype/StillImage" />
        <dc:title></dc:title>
      </cc:Work>
    </rdf:RDF>
  </metadata>
  <defs
     id="defs14" />
  <sodipodi:namedview
     pagecolor="#ffffff"
     bordercolor="#666666"
     borderopacity="1"
     objecttolerance="10"
     gridtolerance="10"
     guidetolerance="10"
     inkscape:pageopacity="0"
     inkscape:pageshadow="2"
     inkscape:window-width="1920"
     inkscape:window-height="1027"
     id="namedview12"
     showgrid="true"
     inkscape:zoom="20.85965"
     inkscape:cx="15.573985"
     inkscape:cy="16.708364"
     inkscape:window-x="-8"
     inkscape:window-y="22"
     inkscape:window-maximized="1"
     inkscape:current-layer="svg10"
     inkscape:snap-nodes="false"
     inkscape:snap-others="false"
     inkscape:snap-bbox="true"
     inkscape:snap-bbox-midpoints="true"
     inkscape:document-units="mm"
     units="mm"
     fit-margin-top="0"
     fit-margin-left="0"
     fit-margin-right="0"
     fit-margin-bottom="0">
    <inkscape:grid
       type="xygrid"
       id="grid829"
       originx="-2.0000001e-007"
       originy="1.7410357e-006" />
  </sodipodi:namedview>
  <g
     id="g9727"
     transform="matrix(2.6666666,0,0,2.6666666,-5.3333332,-5.3333332)">
    <path
       id="circle4"
       d="M 14,8 A 6,6 0 0 1 8,14 6,6 0 0 1 2,8 6,6 0 0 1 8,2 6,6 0 0 1 14,8 Z"
       style="fill:#4d4d4d"
       inkscape:connector-curvature="0" />
    <path
       inkscape:connector-curvature="0"
       id="circle2-8"
       d="M 12.2,8 A 4.2000002,4.2000002 0 0 1 8,12.2 4.2000002,4.2000002 0 0 1 3.8,8 4.2000002,4.2000002 0 0 1 8,3.8 4.2000002,4.2000002 0 0 1 12.2,8 Z"
       style="fill:#1a1a1a;stroke-width:0.53846157" />
    <ellipse
       ry="1.9661016"
       rx="0.57627118"
       cy="4"
       cx="8"
       id="path9718"
       style="opacity:1;fill:#1a1a1a;fill-opacity:1" />
    <path
       inkscape:connector-curvature="0"
       id="circle2"
       d="M 10.6,8 A 2.6000001,2.6000001 0 0 1 8,10.6 2.6000001,2.6000001 0 0 1 5.4,8 2.6000001,2.6000001 0 0 1 8,5.4 2.6000001,2.6000001 0 0 1 10.6,8 Z"
       style="fill:#999999;stroke-width:0.33333334" />
    <rect
       y="2.2711864"
       x="7.8813558"
       height="2.3728814"
       width="0.23728813"
       id="rect9720"
       style="opacity:1;fill:#ffffff;fill-opacity:1;stroke-width:1.09858847" />
  </g>
</svg>
