<?xml version="1.0" encoding="UTF-8" standalone="no"?>
<svg
   xmlns:osb="http://www.openswatchbook.org/uri/2009/osb"
   xmlns:dc="http://purl.org/dc/elements/1.1/"
   xmlns:cc="http://creativecommons.org/ns#"
   xmlns:rdf="http://www.w3.org/1999/02/22-rdf-syntax-ns#"
   xmlns:svg="http://www.w3.org/2000/svg"
   xmlns="http://www.w3.org/2000/svg"
   xmlns:xlink="http://www.w3.org/1999/xlink"
   xmlns:sodipodi="http://sodipodi.sourceforge.net/DTD/sodipodi-0.dtd"
   xmlns:inkscape="http://www.inkscape.org/namespaces/inkscape"
   version="1.1"
   width="24"
   height="24"
   viewBox="0 0 24 24"
   id="svg16"
   sodipodi:docname="port.svg"
   inkscape:version="0.92.3 (2405546, 2018-03-11)">
  <metadata
     id="metadata22">
    <rdf:RDF>
      <cc:Work
         rdf:about="">
        <dc:format>image/svg+xml</dc:format>
        <dc:type
           rdf:resource="http://purl.org/dc/dcmitype/StillImage" />
      </cc:Work>
    </rdf:RDF>
  </metadata>
  <defs
     id="defs20">
    <linearGradient
       inkscape:collect="always"
       id="linearGradient850">
      <stop
         style="stop-color:#aaaaaa;stop-opacity:1;"
         offset="0"
         id="stop846" />
      <stop
         style="stop-color:#aaaaaa;stop-opacity:0;"
         offset="1"
         id="stop848" />
    </linearGradient>
    <linearGradient
       id="linearGradient6581"
       osb:paint="solid">
      <stop
         style="stop-color:#000000;stop-opacity:1;"
         offset="0"
         id="stop6579" />
    </linearGradient>
    <linearGradient
       inkscape:collect="always"
       xlink:href="#linearGradient850"
       id="linearGradient856"
       x1="9.2744417"
       y1="16.143925"
       x2="15.318493"
       y2="16.143925"
       gradientUnits="userSpaceOnUse"
       gradientTransform="matrix(0.81259144,0,0,1.5809353,-25.579629,-13.49281)" />
  </defs>
  <sodipodi:namedview
     pagecolor="#ffffff"
     bordercolor="#666666"
     borderopacity="1"
     objecttolerance="10"
     gridtolerance="10"
     guidetolerance="10"
     inkscape:pageopacity="0"
     inkscape:pageshadow="2"
     inkscape:window-width="1920"
     inkscape:window-height="1027"
     id="namedview18"
     showgrid="false"
     inkscape:zoom="3.0334881"
     inkscape:cx="-37.077117"
     inkscape:cy="-5.9833461"
     inkscape:window-x="-8"
     inkscape:window-y="22"
     inkscape:window-maximized="1"
     inkscape:current-layer="svg16">
    <inkscape:grid
       type="xygrid"
       id="grid6587" />
  </sodipodi:namedview>
  <path
     style="fill:none;stroke:#ede4d9;stroke-width:4.5;stroke-opacity:1"
     d="m 21,12 a 9,9 0 0 1 -9,9 9,9 0 0 1 -9,-9 9,9 0 0 1 9,-9 9,9 0 0 1 9,9 z"
     id="circle4" />
  <path
     style="fill:none;stroke:#bbbbbb;stroke-width:0.5"
     d="M 23.2,12 A 11.2,11.2 0 0 1 12,23.2 11.2,11.2 0 0 1 0.80000019,12 11.2,11.2 0 0 1 12,0.80000019 11.2,11.2 0 0 1 23.2,12 Z"
     id="circle10" />
  <path
     style="fill:none;stroke:#888888;stroke-width:0.5"
     d="M 23.7,12 A 11.7,11.7 0 0 1 12,23.7 11.7,11.7 0 0 1 0.30000019,12 11.7,11.7 0 0 1 12,0.30000019 11.7,11.7 0 0 1 23.7,12 Z"
     id="circle12" />
  <path
     style="fill:#aaaaaa;stroke:#aaaaaa;stroke-width:0.57407409;fill-opacity:1;stroke-opacity:1"
     d="M 19.528144,12 A 7.462963,7.4629632 0 0 1 12.065181,19.462963 7.462963,7.4629632 0 0 1 4.6022179,12 7.462963,7.4629632 0 0 1 12.065181,4.5370366 7.462963,7.4629632 0 0 1 19.528144,12 Z"
     id="circle8"
     inkscape:connector-curvature="0" />
  <!-- <rect width="24" height="24" fill="#0f0" /> -->
  <path
     style="fill:#222222;stroke:#222222;stroke-width:1"
     d="m 18,12 a 6,6 0 0 1 -6,6 6,6 0 0 1 -6,-6 6,6 0 0 1 6,-6 6,6 0 0 1 6,6 z"
     id="circle2" />
  <rect
     style="opacity:0.86000001;fill:#222222;fill-opacity:1;stroke:none;stroke-width:0.06399315;stroke-linecap:butt;stroke-linejoin:round;stroke-miterlimit:4;stroke-dasharray:none;stroke-opacity:1;paint-order:markers fill stroke"
     id="rect5111"
     width="3.9190502"
     height="2"
     x="0.50336456"
     y="11" />
  <rect
     style="opacity:0.86000001;fill:#222222;fill-opacity:1;stroke:none;stroke-width:0.06399315;stroke-linecap:butt;stroke-linejoin:round;stroke-miterlimit:4;stroke-dasharray:none;stroke-opacity:1;paint-order:markers fill stroke"
     id="rect5111-7"
     width="3.9190502"
     height="2"
     x="19.581791"
     y="11" />
  <rect
     style="opacity:0.86000001;fill:url(#linearGradient856);fill-opacity:1;stroke:none;stroke-width:0.08567628;stroke-linecap:butt;stroke-linejoin:round;stroke-miterlimit:4;stroke-dasharray:none;stroke-opacity:1;paint-order:markers fill stroke"
     id="rect844"
     width="4.8499188"
     height="5.7410283"
     x="-18.012583"
     y="9.1591759"
     transform="rotate(-90)" />
  <path
     style="fill:none;stroke:#777777;stroke-width:0.52000004"
     d="m 18.24276,11.99724 a 6.24,6.24 0 0 1 -6.24,6.24 6.24,6.24 0 0 1 -6.2400001,-6.24 6.24,6.24 0 0 1 6.2400001,-6.2399999 6.24,6.24 0 0 1 6.24,6.2399999 z"
     id="circle6"
     inkscape:connector-curvature="0" />
</svg>
