<?xml version="1.0" encoding="UTF-8" standalone="no"?>
<!-- Created with Inkscape (http://www.inkscape.org/) -->

<svg
   xmlns:dc="http://purl.org/dc/elements/1.1/"
   xmlns:cc="http://creativecommons.org/ns#"
   xmlns:rdf="http://www.w3.org/1999/02/22-rdf-syntax-ns#"
   xmlns:svg="http://www.w3.org/2000/svg"
   xmlns="http://www.w3.org/2000/svg"
   xmlns:sodipodi="http://sodipodi.sourceforge.net/DTD/sodipodi-0.dtd"
   xmlns:inkscape="http://www.inkscape.org/namespaces/inkscape"
   width="14.999999"
   height="14.9989"
   viewBox="0 0 3.9687497 3.9684593"
   version="1.1"
   id="svg18800"
   inkscape:version="0.92.3 (2405546, 2018-03-11)"
   sodipodi:docname="screw.svg">
  <defs
     id="defs18794" />
  <sodipodi:namedview
     id="base"
     pagecolor="#ffffff"
     bordercolor="#666666"
     borderopacity="1.0"
     inkscape:pageopacity="0.0"
     inkscape:pageshadow="2"
     inkscape:zoom="44.8"
     inkscape:cx="7.325567"
     inkscape:cy="5.6526358"
     inkscape:document-units="mm"
     inkscape:current-layer="layer1"
     showgrid="true"
     fit-margin-top="0"
     fit-margin-left="0"
     fit-margin-right="0"
     fit-margin-bottom="0"
     inkscape:window-width="1920"
     inkscape:window-height="1027"
     inkscape:window-x="-8"
     inkscape:window-y="22"
     inkscape:window-maximized="1"
     units="px">
    <inkscape:grid
       type="xygrid"
       id="grid837" />
  </sodipodi:namedview>
  <metadata
     id="metadata18797">
    <rdf:RDF>
      <cc:Work
         rdf:about="">
        <dc:format>image/svg+xml</dc:format>
        <dc:type
           rdf:resource="http://purl.org/dc/dcmitype/StillImage" />
        <dc:title />
      </cc:Work>
    </rdf:RDF>
  </metadata>
  <g
     inkscape:label="Layer 1"
     inkscape:groupmode="layer"
     id="layer1"
     transform="translate(-30.138143,-67.088277)">
    <path
       inkscape:connector-curvature="0"
       id="path6833"
       style="fill:#cccccc;fill-opacity:1;fill-rule:nonzero;stroke:#bebebe;stroke-width:0.26462689;stroke-miterlimit:4;stroke-dasharray:none;stroke-opacity:1"
       d="m 32.122779,70.659881 c -0.875518,0 -1.587702,-0.711987 -1.587702,-1.58757 0,-0.875583 0.712184,-1.58782 1.587702,-1.58782 0.875518,0 1.587702,0.712237 1.587702,1.58782 0,0.875583 -0.712184,1.58757 -1.587702,1.58757" />
    <path
       style="fill:#333333;fill-opacity:1;fill-rule:nonzero;stroke:#434343;stroke-width:0.37795276;stroke-opacity:1;stroke-miterlimit:4;stroke-dasharray:none"
       d="m 6.765625,3.6113281 c 0,0 -0.1743582,1.7968745 -0.7656249,2.3875724 C 5.4091268,6.5892053 3.6132812,6.7617188 3.6132812,6.7617188 V 8.234375 c 0,0 1.7959233,0.1738976 2.3867189,0.7645255 0.5911215,0.5909538 0.7656249,2.3878185 0.7656249,2.3878185 h 1.4726562 c 0,0 0.1712462,-1.796777 0.7617189,-2.3878185 C 9.5908656,8.4074659 11.388672,8.234375 11.388672,8.234375 V 6.7617188 c 0,0 -1.7977283,-0.1717067 -2.3886719,-0.7628183 C 8.4093822,5.4081146 8.2382812,3.6113281 8.2382812,3.6113281 Z"
       id="path6843"
       inkscape:connector-curvature="0"
       sodipodi:nodetypes="csccsccsccscc"
       transform="matrix(0.26458333,0,0,0.26458333,30.138143,67.088277)" />
  </g>
</svg>
