<?xml version="1.0" encoding="UTF-8" standalone="no"?>
<!-- Created with Inkscape (http://www.inkscape.org/) -->

<svg
   xmlns:dc="http://purl.org/dc/elements/1.1/"
   xmlns:cc="http://creativecommons.org/ns#"
   xmlns:rdf="http://www.w3.org/1999/02/22-rdf-syntax-ns#"
   xmlns:svg="http://www.w3.org/2000/svg"
   xmlns="http://www.w3.org/2000/svg"
   xmlns:sodipodi="http://sodipodi.sourceforge.net/DTD/sodipodi-0.dtd"
   xmlns:inkscape="http://www.inkscape.org/namespaces/inkscape"
   width="10.16mm"
   height="128.5mm"
   viewBox="0 0 10.16 128.5"
   version="1.1"
   id="svg8"
   inkscape:version="0.92.3 (2405546, 2018-03-11)"
   sodipodi:docname="UDPClockMaster.svg">
  <defs
     id="defs2" />
  <sodipodi:namedview
     id="base"
     pagecolor="#ffffff"
     bordercolor="#666666"
     borderopacity="1.0"
     inkscape:pageopacity="0.0"
     inkscape:pageshadow="2"
     inkscape:zoom="3.959798"
     inkscape:cx="-39.210076"
     inkscape:cy="142.49209"
     inkscape:document-units="mm"
     inkscape:current-layer="layer1"
     showgrid="true"
     inkscape:window-width="1920"
     inkscape:window-height="1027"
     inkscape:window-x="-8"
     inkscape:window-y="22"
     inkscape:window-maximized="1"
     inkscape:pagecheckerboard="false"
     inkscape:snap-to-guides="true"
     showguides="true"
     inkscape:guide-bbox="true"
     inkscape:snap-page="true"
     inkscape:snap-bbox="true"
     inkscape:snap-bbox-edge-midpoints="false"
     inkscape:snap-bbox-midpoints="true"
     inkscape:snap-object-midpoints="false"
     inkscape:snap-others="false"
     inkscape:object-nodes="false"
     inkscape:snap-nodes="false">
    <inkscape:grid
       type="xygrid"
       id="grid5221" />
    <sodipodi:guide
       position="5.0113039,30.535544"
       orientation="1,0"
       id="guide5243"
       inkscape:locked="false" />
    <sodipodi:guide
       position="0.40090432,34.444361"
       orientation="1,0"
       id="guide5245"
       inkscape:locked="false" />
    <sodipodi:guide
       position="9.788747,35.112535"
       orientation="1,0"
       id="guide5247"
       inkscape:locked="false" />
    <sodipodi:guide
       position="7.0158255,122.44286"
       orientation="0,1"
       id="guide5258"
       inkscape:locked="false" />
    <sodipodi:guide
       position="5.0113042,78.265638"
       orientation="0,1"
       id="guide5260"
       inkscape:locked="false" />
    <sodipodi:guide
       position="5.0948258,32.599601"
       orientation="0,1"
       id="guide5262"
       inkscape:locked="false" />
    <sodipodi:guide
       position="5.0113042,22.116738"
       orientation="0,1"
       id="guide5264"
       inkscape:locked="false" />
    <sodipodi:guide
       position="5.011304,84.791259"
       orientation="0,1"
       id="guide5266"
       inkscape:locked="false" />
  </sodipodi:namedview>
  <metadata
     id="metadata5">
    <rdf:RDF>
      <cc:Work
         rdf:about="">
        <dc:format>image/svg+xml</dc:format>
        <dc:type
           rdf:resource="http://purl.org/dc/dcmitype/StillImage" />
        <dc:title />
      </cc:Work>
    </rdf:RDF>
  </metadata>
  <g
     inkscape:label="Layer 1"
     inkscape:groupmode="layer"
     id="layer1"
     transform="translate(0,-168.5)">
    <path
       inkscape:connector-curvature="0"
       style="fill:#008080;fill-opacity:1;stroke-width:0.27075237"
       d="M 0.36852685,270.50387 H 9.7887466 v 2.64583 H 0.36852685 Z"
       id="rect180" />
    <path
       inkscape:connector-curvature="0"
       style="fill:#008080;fill-opacity:1;stroke-width:0.27075237"
       d="m 1.7538533,271.82679 h 6.6495668 c 0.7674708,0 1.3853265,0.59002 1.3853265,1.32292 v 6.61458 c 0,0.7329 -0.6178557,1.32292 -1.3853265,1.32292 H 1.7538533 c -0.76747086,0 -1.38532645,-0.59002 -1.38532645,-1.32292 v -6.61458 c 0,-0.7329 0.61785559,-1.32292 1.38532645,-1.32292 z"
       id="rect182" />
    <g
       aria-label="mastah"
       transform="rotate(90)"
       style="font-style:normal;font-weight:normal;font-size:2.82222223px;line-height:1.25;font-family:sans-serif;letter-spacing:0px;word-spacing:0px;fill:#008080;fill-opacity:1;stroke:none;stroke-width:0.26458332"
       id="text1472">
      <path
         d="m 181.13176,-1.7846272 h -1.80385 v -2.594846 q 0,-0.2990343 -0.0627,-0.4147895 -0.0627,-0.1157552 -0.22669,-0.1157552 -0.30385,0 -0.30385,0.5353678 v 2.5900229 h -1.80386 v -2.594846 q 0,-0.2990343 -0.0675,-0.4147895 -0.0627,-0.1157552 -0.22669,-0.1157552 -0.29903,0 -0.29903,0.5353678 v 2.5900229 h -1.80385 v -2.9614042 q 0,-0.8102864 0.54501,-1.3745931 0.54502,-0.5691298 1.32154,-0.5691298 0.80064,0 1.43729,0.6752387 0.709,-0.6752387 1.41801,-0.6752387 0.90192,0 1.44694,0.6559462 0.42925,0.5112522 0.42925,1.4903484 z"
         style="font-style:normal;font-variant:normal;font-weight:normal;font-stretch:normal;font-size:9.87777805px;font-family:'Bauhaus 93';-inkscape-font-specification:'Bauhaus 93, ';fill:#008080;stroke-width:0.26458332"
         id="path1474"
         inkscape:connector-curvature="0" />
      <path
         d="m 184.86487,-3.5884792 v 1.8665527 q -0.22186,0.038585 -0.40514,0.038585 -1.08521,0 -1.80868,-0.7138238 -0.72347,-0.7138238 -0.72347,-1.7893826 0,-1.0466201 0.72829,-1.7749133 0.73312,-0.7282932 1.77974,-0.7282932 1.1672,0 1.83761,0.684885 0.67524,0.6800619 0.67524,1.8617297 v 2.3585124 h -1.80385 V -4.012915 q 0,-0.3810276 -0.1881,-0.6077149 -0.18328,-0.2266873 -0.49678,-0.2266873 -0.28457,0 -0.49196,0.2073948 -0.2074,0.2073947 -0.2074,0.4919596 0,0.2990343 0.1881,0.4919597 0.18811,0.1929253 0.47749,0.1929253 0.23634,0 0.43891,-0.1254014 z"
         style="font-style:normal;font-variant:normal;font-weight:normal;font-stretch:normal;font-size:9.87777805px;font-family:'Bauhaus 93';-inkscape-font-specification:'Bauhaus 93, ';fill:#008080;stroke-width:0.26458332"
         id="path1476"
         inkscape:connector-curvature="0" />
      <path
         d="m 191.01437,-6.5257677 v 1.9003147 q -0.38103,0 -0.52573,0.144694 -0.13987,0.1398709 -0.17845,0.5594835 -0.1254,1.3938857 -1.08038,1.9678386 -0.50643,0.2990343 -1.4373,0.2990343 h -0.2508 v -1.909961 h 0.082 q 0.43408,0 0.61736,-0.1784559 0.18811,-0.1832791 0.21704,-0.6366537 0.0386,-0.7379395 0.13505,-1.0369738 0.10129,-0.2990343 0.40515,-0.5932454 0.53054,-0.5160753 1.47105,-0.5160753 z"
         style="font-style:normal;font-variant:normal;font-weight:normal;font-stretch:normal;font-size:9.87777805px;font-family:'Bauhaus 93';-inkscape-font-specification:'Bauhaus 93, ';fill:#008080;stroke-width:0.26458332"
         id="path1478"
         inkscape:connector-curvature="0" />
      <path
         d="m 193.21372,-8.3682049 v 1.8424372 h 0.81028 v 1.9051378 h -0.81028 q 0,0.5739529 0.17845,0.790994 0.18328,0.217041 0.66559,0.217041 v 1.8954916 q -0.13987,0.00482 -0.20739,0.00482 -0.61254,0 -1.15755,-0.2845649 -0.54019,-0.2845649 -0.86817,-0.7717014 -0.41479,-0.6221843 -0.41479,-1.6495118 V -8.368208 Z"
         style="font-style:normal;font-variant:normal;font-weight:normal;font-stretch:normal;font-size:9.87777805px;font-family:'Bauhaus 93';-inkscape-font-specification:'Bauhaus 93, ';fill:#008080;stroke-width:0.26458332"
         id="path1480"
         inkscape:connector-curvature="0" />
      <path
         d="m 197.57865,-3.5884792 v 1.8665527 q -0.22186,0.038585 -0.40514,0.038585 -1.08521,0 -1.80868,-0.7138238 -0.72347,-0.7138238 -0.72347,-1.7893826 0,-1.0466201 0.7283,-1.7749133 0.73311,-0.7282932 1.77973,-0.7282932 1.1672,0 1.83762,0.684885 0.67523,0.6800619 0.67523,1.8617297 v 2.3585124 h -1.80385 V -4.012915 q 0,-0.3810276 -0.1881,-0.6077149 -0.18328,-0.2266873 -0.49678,-0.2266873 -0.28457,0 -0.49196,0.2073948 -0.2074,0.2073947 -0.2074,0.4919596 0,0.2990343 0.18811,0.4919597 0.1881,0.1929253 0.47749,0.1929253 0.23633,0 0.4389,-0.1254014 z"
         style="font-style:normal;font-variant:normal;font-weight:normal;font-stretch:normal;font-size:9.87777805px;font-family:'Bauhaus 93';-inkscape-font-specification:'Bauhaus 93, ';fill:#008080;stroke-width:0.26458332"
         id="path1482"
         inkscape:connector-curvature="0" />
      <path
         d="m 202.51754,-8.3682049 v 2.0112468 q 0.4582,-0.3327962 0.91639,-0.3327962 0.69454,0 1.09968,0.5016059 0.40997,0.5016059 0.40997,1.3553006 v 3.0482206 h -1.80386 v -2.5417915 q 0,-0.3086806 -0.0675,-0.4147895 -0.0627,-0.106109 -0.2508,-0.106109 -0.30386,0 -0.30386,0.4485515 v 2.6141385 h -1.80385 v -6.5835777 z"
         style="font-style:normal;font-variant:normal;font-weight:normal;font-stretch:normal;font-size:9.87777805px;font-family:'Bauhaus 93';-inkscape-font-specification:'Bauhaus 93, ';fill:#008080;stroke-width:0.26458332"
         id="path1484"
         inkscape:connector-curvature="0" />
    </g>
    <path
       id="rect172"
       d="m 0.2850047,267.85803 h 9.42022 v 2.64583 h -9.42022 z"
       style="fill:#fafafa;stroke-width:0.27075237"
       inkscape:connector-curvature="0" />
    <path
       id="rect174"
       d="m 1.6979477,259.85371 h 6.626712 c 0.764833,0 1.380565,0.57938 1.380565,1.29906 v 6.49526 c 0,0.71969 -0.615732,1.29906 -1.380565,1.29906 h -6.626712 c -0.764833,0 -1.380565,-0.57937 -1.380565,-1.29906 v -6.49526 c 0,-0.71968 0.615732,-1.29906 1.380565,-1.29906 z"
       style="fill:#fafafa;stroke-width:0.26783785"
       inkscape:connector-curvature="0" />
    <g
       style="display:inline"
       id="g1583"
       transform="translate(0,-5.2916669)">
      <rect
         y="293.75"
         x="2.5999999"
         height="2.5"
         width="5"
         id="rect1572"
         style="opacity:1;fill:#ffffff;fill-opacity:1;stroke:#8c8c8c;stroke-width:0.02;stroke-linecap:butt;stroke-linejoin:round;stroke-miterlimit:4;stroke-dasharray:none;stroke-opacity:1;paint-order:markers fill stroke" />
      <g
         id="text1570"
         style="font-style:normal;font-variant:normal;font-weight:normal;font-stretch:normal;font-size:2.82222223px;line-height:1.25;font-family:'Bauhaus 93';-inkscape-font-specification:'Bauhaus 93, ';letter-spacing:0px;word-spacing:0px;fill:#000000;fill-opacity:1;stroke:none;stroke-width:0.26458332"
         aria-label="mm">
        <path
           inkscape:connector-curvature="0"
           id="path1574"
           style="stroke-width:0.26458332"
           d="M 4.9484157,295.70074 H 4.4330294 v -0.74138 q 0,-0.0854 -0.017914,-0.11851 -0.017914,-0.0331 -0.064768,-0.0331 -0.086816,0 -0.086816,0.15296 v 0.74 h -0.515387 v -0.74138 q 0,-0.0854 -0.019293,-0.11851 -0.017914,-0.0331 -0.064768,-0.0331 -0.085438,0 -0.085438,0.15296 v 0.74 h -0.515386 v -0.84611 q 0,-0.23151 0.1557184,-0.39274 0.1557183,-0.16261 0.3775824,-0.16261 0.2287544,0 0.4106554,0.19293 0.2025716,-0.19293 0.4051432,-0.19293 0.2576932,0 0.4134115,0.18741 0.1226454,0.14608 0.1226454,0.42582 z" />
        <path
           inkscape:connector-curvature="0"
           id="path1576"
           style="stroke-width:0.26458332"
           d="M 7.1367404,295.70074 H 6.6213541 v -0.74138 q 0,-0.0854 -0.017914,-0.11851 -0.017914,-0.0331 -0.064768,-0.0331 -0.086816,0 -0.086816,0.15296 v 0.74 h -0.515387 v -0.74138 q 0,-0.0854 -0.019292,-0.11851 -0.017915,-0.0331 -0.064768,-0.0331 -0.085438,0 -0.085438,0.15296 v 0.74 h -0.515387 v -0.84611 q 0,-0.23151 0.1557183,-0.39274 0.1557184,-0.16261 0.3775825,-0.16261 0.2287544,0 0.4106554,0.19293 0.2025716,-0.19293 0.4051432,-0.19293 0.2576932,0 0.4134115,0.18741 0.1226454,0.14608 0.1226454,0.42582 z" />
      </g>
    </g>
    <g
       aria-label="status"
       style="font-style:normal;font-variant:normal;font-weight:bold;font-stretch:normal;font-size:2.11666656px;line-height:1.25;font-family:sans-serif;-inkscape-font-specification:'sans-serif Bold';letter-spacing:0px;word-spacing:0px;display:inline;fill:#008080;fill-opacity:1;stroke:none;stroke-width:0.26458332"
       id="text29779-2-9">
      <path
         d="m 2.5171594,251.58934 q 0,0.17983 -0.1612305,0.29042 -0.1612304,0.10955 -0.4413167,0.10955 -0.1550293,0 -0.2811198,-0.0289 -0.1260905,-0.0289 -0.2025716,-0.0641 v -0.30593 h 0.034107 q 0.027905,0.0196 0.064079,0.0434 0.037207,0.0227 0.1043864,0.0496 0.057878,0.0238 0.1312582,0.0413 0.073381,0.0165 0.1570963,0.0165 0.109554,0 0.162264,-0.0238 0.05271,-0.0248 0.05271,-0.0724 0,-0.0424 -0.031006,-0.061 -0.031006,-0.0196 -0.1178223,-0.0372 -0.041341,-0.009 -0.1126546,-0.0196 -0.07028,-0.0114 -0.1281575,-0.0269 -0.1581299,-0.0413 -0.234611,-0.12816 -0.076481,-0.0879 -0.076481,-0.21808 0,-0.16743 0.1581298,-0.27802 0.1591634,-0.11162 0.434082,-0.11162 0.1302246,0 0.2490804,0.0269 0.1198894,0.0258 0.1870687,0.0558 v 0.29352 H 2.43241 q -0.082682,-0.0568 -0.1891357,-0.092 -0.1054199,-0.0362 -0.2139404,-0.0362 -0.089917,0 -0.1519287,0.0248 -0.060978,0.0248 -0.060978,0.0703 0,0.0413 0.027905,0.0631 0.027905,0.0217 0.1312581,0.0434 0.056844,0.0114 0.1219564,0.0227 0.066146,0.0103 0.1322916,0.0269 0.1467611,0.0382 0.217041,0.12092 0.07028,0.0816 0.07028,0.20464 z"
         style="text-align:center;text-anchor:middle;fill:#008080;fill-opacity:1;stroke-width:0.26458332"
         id="path34833"
         inkscape:connector-curvature="0" />
      <path
         d="m 3.5072797,251.94694 q -0.059945,0.0155 -0.127124,0.0238 -0.067179,0.009 -0.164331,0.009 -0.217041,0 -0.3234945,-0.0879 -0.1054199,-0.0879 -0.1054199,-0.30075 V 251.0488 H 2.6339481 v -0.25218 h 0.1529622 v -0.33176 h 0.3720703 v 0.33176 h 0.3482991 v 0.25218 H 3.1589806 v 0.41135 q 0,0.061 0.00103,0.10645 0.00103,0.0455 0.016536,0.0816 0.014469,0.0362 0.050643,0.0579 0.037207,0.0207 0.1074869,0.0207 0.028939,0 0.075448,-0.0124 0.047542,-0.0124 0.066146,-0.0227 h 0.031006 z"
         style="text-align:center;text-anchor:middle;fill:#008080;fill-opacity:1;stroke-width:0.26458332"
         id="path34835"
         inkscape:connector-curvature="0" />
      <path
         d="m 4.4312542,251.65445 v -0.24184 q -0.075448,0.006 -0.1632975,0.0176 -0.08785,0.0103 -0.1333252,0.0248 -0.055811,0.0176 -0.085783,0.0517 -0.028939,0.0331 -0.028939,0.0879 0,0.0362 0.0062,0.0589 0.0062,0.0227 0.031006,0.0434 0.023771,0.0207 0.056844,0.031 0.033073,0.009 0.1033528,0.009 0.055811,0 0.1126546,-0.0227 0.057878,-0.0227 0.1012858,-0.06 z m 0,0.17984 q -0.029972,0.0227 -0.074414,0.0548 -0.044442,0.032 -0.083716,0.0506 -0.054777,0.0248 -0.1136882,0.0362 -0.058911,0.0124 -0.129191,0.0124 -0.1653646,0 -0.2769857,-0.10232 -0.1116211,-0.10232 -0.1116211,-0.26148 0,-0.12712 0.056844,-0.20774 0.056844,-0.0806 0.1612304,-0.12712 0.1033529,-0.0465 0.2563151,-0.0662 0.1529623,-0.0196 0.3172933,-0.0289 v -0.006 q 0,-0.0961 -0.078548,-0.13229 -0.078548,-0.0372 -0.2315104,-0.0372 -0.091984,0 -0.1963704,0.0331 -0.1043864,0.032 -0.1498617,0.0496 h -0.034106 v -0.28008 q 0.058911,-0.0155 0.1912028,-0.0362 0.1333252,-0.0217 0.2666504,-0.0217 0.3172932,0 0.4578531,0.0982 0.1415935,0.0971 0.1415935,0.30592 v 0.78962 H 4.4312542 Z"
         style="text-align:center;text-anchor:middle;fill:#008080;fill-opacity:1;stroke-width:0.26458332"
         id="path34837"
         inkscape:connector-curvature="0" />
      <path
         d="m 5.8843956,251.94694 q -0.059945,0.0155 -0.127124,0.0238 -0.067179,0.009 -0.1643311,0.009 -0.217041,0 -0.3234944,-0.0879 -0.10542,-0.0879 -0.10542,-0.30075 V 251.0488 H 5.0110639 v -0.25218 h 0.1529622 v -0.33176 h 0.3720703 v 0.33176 h 0.3482992 v 0.25218 H 5.5360964 v 0.41135 q 0,0.061 0.00103,0.10645 0.00103,0.0455 0.016536,0.0816 0.014469,0.0362 0.050643,0.0579 0.037207,0.0207 0.107487,0.0207 0.028939,0 0.075448,-0.0124 0.047542,-0.0124 0.066146,-0.0227 h 0.031006 z"
         style="text-align:center;text-anchor:middle;fill:#008080;fill-opacity:1;stroke-width:0.26458332"
         id="path34839"
         inkscape:connector-curvature="0" />
      <path
         d="M 7.262089,251.95728 H 6.8900187 v -0.12816 q -0.1033528,0.0786 -0.1891357,0.11989 -0.085783,0.0403 -0.2046387,0.0403 -0.1922363,0 -0.2966227,-0.11058 -0.1033528,-0.11059 -0.1033528,-0.3266 v -0.75551 h 0.3741373 v 0.57568 q 0,0.0879 0.00517,0.14676 0.0062,0.0579 0.026872,0.0961 0.019637,0.0382 0.058911,0.0558 0.040308,0.0176 0.1116211,0.0176 0.047542,0 0.1054199,-0.0176 0.057878,-0.0176 0.1116211,-0.0517 v -0.82269 H 7.262089 Z"
         style="text-align:center;text-anchor:middle;fill:#008080;fill-opacity:1;stroke-width:0.26458332"
         id="path34841"
         inkscape:connector-curvature="0" />
      <path
         d="m 8.6232461,251.58934 q 0,0.17983 -0.1612305,0.29042 -0.1612304,0.10955 -0.4413167,0.10955 -0.1550293,0 -0.2811197,-0.0289 -0.1260905,-0.0289 -0.2025716,-0.0641 v -0.30593 h 0.034106 q 0.027905,0.0196 0.064079,0.0434 0.037207,0.0227 0.1043864,0.0496 0.057878,0.0238 0.1312581,0.0413 0.07338,0.0165 0.1570963,0.0165 0.1095541,0 0.162264,-0.0238 0.05271,-0.0248 0.05271,-0.0724 0,-0.0424 -0.031006,-0.061 -0.031006,-0.0196 -0.1178222,-0.0372 -0.041341,-0.009 -0.1126547,-0.0196 -0.07028,-0.0114 -0.1281575,-0.0269 -0.1581299,-0.0413 -0.234611,-0.12816 -0.076481,-0.0879 -0.076481,-0.21808 0,-0.16743 0.1581299,-0.27802 0.1591634,-0.11162 0.434082,-0.11162 0.1302246,0 0.2490804,0.0269 0.1198893,0.0258 0.1870686,0.0558 v 0.29352 h -0.032039 q -0.082682,-0.0568 -0.1891358,-0.092 -0.1054199,-0.0362 -0.2139404,-0.0362 -0.089917,0 -0.1519287,0.0248 -0.060978,0.0248 -0.060978,0.0703 0,0.0413 0.027905,0.0631 0.027905,0.0217 0.1312581,0.0434 0.056844,0.0114 0.1219564,0.0227 0.066146,0.0103 0.1322917,0.0269 0.146761,0.0382 0.217041,0.12092 0.07028,0.0816 0.07028,0.20464 z"
         style="text-align:center;text-anchor:middle;fill:#008080;fill-opacity:1;stroke-width:0.26458332"
         id="path34843"
         inkscape:connector-curvature="0" />
    </g>
    <g
       aria-label="reset"
       style="font-style:normal;font-variant:normal;font-weight:bold;font-stretch:normal;font-size:2.11666656px;line-height:1.25;font-family:sans-serif;-inkscape-font-specification:'sans-serif Bold';letter-spacing:0px;word-spacing:0px;display:inline;fill:#008080;fill-opacity:1;stroke:none;stroke-width:0.26458332"
       id="text29779-2-9-0">
      <path
         d="m 2.9204753,269.14279 h -0.033073 q -0.023771,-0.008 -0.076481,-0.0124 -0.05271,-0.004 -0.08785,-0.004 -0.079582,0 -0.1405599,0.0103 -0.060978,0.0103 -0.1312581,0.0351 V 269.949 H 2.079183 v -1.16065 h 0.3720703 v 0.17053 q 0.1229899,-0.10542 0.2139404,-0.13952 0.09095,-0.0351 0.1674316,-0.0351 0.019637,0 0.044442,10e-4 0.024805,0.001 0.043408,0.003 z"
         style="text-align:center;text-anchor:middle;fill:#008080;fill-opacity:1;stroke-width:0.26458332"
         id="path34822"
         inkscape:connector-curvature="0" />
      <path
         d="M 4.2764648,269.43735 H 3.4248373 q 0.00827,0.13642 0.1033528,0.20877 0.096118,0.0724 0.2821533,0.0724 0.1178223,0 0.2284099,-0.0424 0.1105875,-0.0424 0.1746663,-0.0909 h 0.041341 v 0.29869 q -0.1260904,0.0506 -0.2377115,0.0734 -0.1116211,0.0227 -0.2470134,0.0227 -0.3493326,0 -0.5353678,-0.1571 -0.1860351,-0.15709 -0.1860351,-0.44751 0,-0.28733 0.1756998,-0.45476 0.1767334,-0.16846 0.4836914,-0.16846 0.2831868,0 0.4258138,0.14366 0.1426269,0.14263 0.1426269,0.41134 z m -0.3700032,-0.21808 q -0.0031,-0.11679 -0.057878,-0.1757 -0.054777,-0.0589 -0.1705322,-0.0589 -0.107487,0 -0.1767334,0.0558 -0.069246,0.0558 -0.077515,0.1788 z"
         style="text-align:center;text-anchor:middle;fill:#008080;fill-opacity:1;stroke-width:0.26458332"
         id="path34824"
         inkscape:connector-curvature="0" />
      <path
         d="m 5.547705,269.58101 q 0,0.17983 -0.1612305,0.29042 -0.1612304,0.10955 -0.4413167,0.10955 -0.1550293,0 -0.2811197,-0.0289 -0.1260905,-0.0289 -0.2025716,-0.0641 v -0.30593 h 0.034106 q 0.027905,0.0196 0.064079,0.0434 0.037207,0.0227 0.1043864,0.0496 0.057878,0.0238 0.1312581,0.0413 0.07338,0.0165 0.1570963,0.0165 0.1095541,0 0.162264,-0.0238 0.05271,-0.0248 0.05271,-0.0723 0,-0.0424 -0.031006,-0.061 -0.031006,-0.0196 -0.1178222,-0.0372 -0.041341,-0.009 -0.1126547,-0.0196 -0.07028,-0.0114 -0.1281575,-0.0269 -0.1581299,-0.0413 -0.234611,-0.12815 -0.076481,-0.0879 -0.076481,-0.21808 0,-0.16743 0.1581299,-0.27802 0.1591634,-0.11162 0.434082,-0.11162 0.1302246,0 0.2490804,0.0269 0.1198893,0.0258 0.1870686,0.0558 v 0.29353 h -0.032039 q -0.082682,-0.0568 -0.1891358,-0.092 -0.1054199,-0.0362 -0.2139404,-0.0362 -0.089917,0 -0.1519287,0.0248 -0.060978,0.0248 -0.060978,0.0703 0,0.0413 0.027905,0.063 0.027905,0.0217 0.1312581,0.0434 0.056844,0.0114 0.1219564,0.0227 0.066146,0.0103 0.1322917,0.0269 0.146761,0.0382 0.217041,0.12092 0.07028,0.0816 0.07028,0.20464 z"
         style="text-align:center;text-anchor:middle;fill:#008080;fill-opacity:1;stroke-width:0.26458332"
         id="path34826"
         inkscape:connector-curvature="0" />
      <path
         d="M 6.9388346,269.43735 H 6.087207 q 0.00827,0.13642 0.1033529,0.20877 0.096118,0.0724 0.2821533,0.0724 0.1178222,0 0.2284098,-0.0424 0.1105876,-0.0424 0.1746663,-0.0909 h 0.041341 v 0.29869 q -0.1260905,0.0506 -0.2377116,0.0734 -0.1116211,0.0227 -0.2470133,0.0227 -0.3493327,0 -0.5353679,-0.1571 -0.1860351,-0.15709 -0.1860351,-0.44751 0,-0.28733 0.1756999,-0.45476 0.1767334,-0.16846 0.4836913,-0.16846 0.2831869,0 0.4258138,0.14366 0.142627,0.14263 0.142627,0.41134 z m -0.3700033,-0.21808 q -0.0031,-0.11679 -0.057878,-0.1757 -0.054777,-0.0589 -0.1705322,-0.0589 -0.107487,0 -0.1767334,0.0558 -0.069246,0.0558 -0.077515,0.1788 z"
         style="text-align:center;text-anchor:middle;fill:#008080;fill-opacity:1;stroke-width:0.26458332"
         id="path34828"
         inkscape:connector-curvature="0" />
      <path
         d="m 7.9434241,269.93861 q -0.059945,0.0155 -0.127124,0.0238 -0.067179,0.009 -0.164331,0.009 -0.2170411,0 -0.3234945,-0.0879 -0.1054199,-0.0879 -0.1054199,-0.30076 v -0.5426 H 7.0700925 v -0.25218 h 0.1529622 v -0.33176 H 7.595125 v 0.33176 h 0.3482991 v 0.25218 H 7.595125 v 0.41135 q 0,0.061 0.00103,0.10645 0.00103,0.0455 0.016537,0.0817 0.014469,0.0362 0.050643,0.0579 0.037207,0.0207 0.1074869,0.0207 0.028939,0 0.075448,-0.0124 0.047542,-0.0124 0.066146,-0.0227 h 0.031006 z"
         style="text-align:center;text-anchor:middle;fill:#008080;fill-opacity:1;stroke-width:0.26458332"
         id="path34830"
         inkscape:connector-curvature="0" />
    </g>
    <g
       aria-label="clock"
       style="font-style:normal;font-variant:normal;font-weight:bold;font-stretch:normal;font-size:2.11666656px;line-height:1.25;font-family:sans-serif;-inkscape-font-specification:'sans-serif Bold';letter-spacing:0px;word-spacing:0px;display:inline;fill:#ffffff;fill-opacity:1;stroke:none;stroke-width:0.26458332"
       id="text29779-2-9-3">
      <path
         d="m 2.7086018,280.61908 q -0.1519287,0 -0.2780191,-0.0362 -0.125057,-0.0362 -0.2180746,-0.11163 -0.091984,-0.0754 -0.1426269,-0.19016 -0.050643,-0.11473 -0.050643,-0.26872 0,-0.16227 0.053743,-0.28009 0.054777,-0.11782 0.1519287,-0.19533 0.094051,-0.0734 0.217041,-0.10749 0.1229899,-0.0341 0.2552815,-0.0341 0.1188558,0 0.2191081,0.0258 0.1002523,0.0258 0.1870687,0.0672 v 0.31729 h -0.05271 q -0.021704,-0.0186 -0.05271,-0.0434 -0.029972,-0.0248 -0.074414,-0.0486 -0.042375,-0.0227 -0.093018,-0.0372 -0.050643,-0.0155 -0.1178222,-0.0155 -0.1488282,0 -0.2294434,0.0951 -0.079582,0.094 -0.079582,0.25632 0,0.16743 0.081649,0.25425 0.082682,0.0868 0.2335774,0.0868 0.07028,0 0.1260905,-0.0155 0.056844,-0.0165 0.094051,-0.0382 0.03514,-0.0207 0.062012,-0.0434 0.026872,-0.0227 0.049609,-0.0444 h 0.05271 v 0.31729 q -0.08785,0.0413 -0.1839681,0.0651 -0.095085,0.0248 -0.2108399,0.0248 z"
         style="text-align:center;text-anchor:middle;fill:#ffffff;fill-opacity:1;stroke-width:0.26458332"
         id="path34811"
         inkscape:connector-curvature="0" />
      <path
         d="M 3.7204263,280.58807 H 3.3483561 v -1.60817 h 0.3720702 z"
         style="text-align:center;text-anchor:middle;fill:#ffffff;fill-opacity:1;stroke-width:0.26458332"
         id="path34813"
         inkscape:connector-curvature="0" />
      <path
         d="m 5.258317,280.00826 q 0,0.28629 -0.1674317,0.45166 -0.1663981,0.16433 -0.4681884,0.16433 -0.3017904,0 -0.469222,-0.16433 -0.1663981,-0.16537 -0.1663981,-0.45166 0,-0.28835 0.1674316,-0.45268 0.1684652,-0.16433 0.4681885,-0.16433 0.3038574,0 0.469222,0.16536 0.1663981,0.16537 0.1663981,0.45165 z m -0.4578532,0.28216 q 0.036173,-0.0444 0.053743,-0.10646 0.018604,-0.063 0.018604,-0.17363 0,-0.10232 -0.018604,-0.17156 -0.018603,-0.0693 -0.051676,-0.11059 -0.033073,-0.0424 -0.079582,-0.06 -0.046509,-0.0176 -0.1002523,-0.0176 -0.053744,0 -0.096118,0.0145 -0.041341,0.0145 -0.079582,0.0579 -0.034106,0.0403 -0.054777,0.11059 -0.019637,0.0703 -0.019637,0.17673 0,0.0951 0.01757,0.16537 0.01757,0.0692 0.051676,0.11162 0.033073,0.0403 0.078548,0.0589 0.046509,0.0186 0.1054199,0.0186 0.050643,0 0.096118,-0.0165 0.046509,-0.0176 0.078548,-0.0579 z"
         style="text-align:center;text-anchor:middle;fill:#ffffff;fill-opacity:1;stroke-width:0.26458332"
         id="path34815"
         inkscape:connector-curvature="0" />
      <path
         d="m 6.1316487,280.61908 q -0.1519287,0 -0.2780192,-0.0362 -0.125057,-0.0362 -0.2180745,-0.11163 -0.091984,-0.0754 -0.142627,-0.19016 -0.050643,-0.11473 -0.050643,-0.26872 0,-0.16227 0.053743,-0.28009 0.054777,-0.11782 0.1519287,-0.19533 0.094051,-0.0734 0.217041,-0.10749 0.1229899,-0.0341 0.2552816,-0.0341 0.1188557,0 0.219108,0.0258 0.1002523,0.0258 0.1870687,0.0672 v 0.31729 h -0.05271 q -0.021704,-0.0186 -0.05271,-0.0434 -0.029972,-0.0248 -0.074414,-0.0486 -0.042375,-0.0227 -0.093018,-0.0372 -0.050643,-0.0155 -0.1178222,-0.0155 -0.1488281,0 -0.2294434,0.0951 -0.079582,0.094 -0.079582,0.25632 0,0.16743 0.081649,0.25425 0.082682,0.0868 0.2335775,0.0868 0.07028,0 0.1260904,-0.0155 0.056844,-0.0165 0.094051,-0.0382 0.03514,-0.0207 0.062012,-0.0434 0.026872,-0.0227 0.049609,-0.0444 h 0.05271 v 0.31729 q -0.08785,0.0413 -0.1839681,0.0651 -0.095085,0.0248 -0.2108398,0.0248 z"
         style="text-align:center;text-anchor:middle;fill:#ffffff;fill-opacity:1;stroke-width:0.26458332"
         id="path34817"
         inkscape:connector-curvature="0" />
      <path
         d="M 8.0033688,280.58807 H 7.5703204 l -0.3255615,-0.50539 -0.1012858,0.12299 v 0.3824 H 6.7714028 v -1.60817 h 0.3720703 v 0.96015 l 0.4010091,-0.51263 h 0.4289143 l -0.4175455,0.50023 z"
         style="text-align:center;text-anchor:middle;fill:#ffffff;fill-opacity:1;stroke-width:0.26458332"
         id="path34819"
         inkscape:connector-curvature="0" />
    </g>
  </g>
  <g
     inkscape:groupmode="layer"
     id="layer2"
     inkscape:label="components"
     style="display:none">
    <circle
       style="display:inline;fill:#0000ff;stroke-width:0.24907796"
       id="circle166"
       cx="5.0113039"
       cy="106.38326"
       inkscape:label="_output"
       r="4.25" />
  </g>
</svg>
